<?xml version="1.0" encoding="utf-8"?>
<!-- Generator: Adobe Illustrator 24.3.0, SVG Export Plug-In . SVG Version: 6.00 Build 0)  -->
<svg version="1.1" id="Слой_2" xmlns="http://www.w3.org/2000/svg" xmlns:xlink="http://www.w3.org/1999/xlink" x="0px" y="0px"
	 viewBox="0 0 3000 2000" style="enable-background:new 0 0 3000 2000;" xml:space="preserve">
<style type="text/css">
	.st0{fill:#FFFFFF;}
	.st1{fill:#EBF3FA;}
	.st2{fill:#78ACEA;}
	.st3{fill:#AFCDFB;}
	.st4{opacity:0.4;fill:#5E92DD;}
	.st5{fill:#95C0F4;}
	.st6{fill:#8CBAF1;}
	.st7{opacity:0.9;fill:#78ACEA;}
	.st8{fill:#FCECDB;}
	.st9{fill:#F99746;}
	.st10{fill:#F9E5D1;}
	.st11{fill:#EFCBAB;}
	.st12{fill:#B7D3F3;}
	.st13{fill:#D2E3FC;}
	.st14{fill:#C5DCF8;}
	.st15{fill:#FFB27D;}
	.st16{fill:#1C468A;}
	.st17{fill:#163560;}
	.st18{fill:#B5453C;}
	.st19{fill:#ED975D;}
	.st20{fill:#ED7D2B;}
	.st21{fill:#F9DDBF;}
	.st22{fill:#ED893E;}
	.st23{fill:#2E3552;}
	.st24{fill:#233862;}
	.st25{fill:#2A4E96;}
	.st26{fill:#ED985F;}
	.st27{fill:#2C3A64;}
</style>
<rect class="st0" width="3000" height="2000"/>
<g>
	<path class="st1" d="M349.4,1738.1c0,0-318-341.4-53.8-711C530,699.2,803.3,721.6,1003.8,854.7c85.4,56.7,331.6,7,541.2-326.7
		C1830.8,72.9,2821.4,348.9,2640.8,1049c-87.4,338.8,266,351.1,85.9,689.8L349.4,1738.1z"/>
	<g>
		<path class="st2" d="M1978.4,1734.9h-567.5c-17.8,0-32.4-14.6-32.4-32.4V567.6c0-17.8,14.6-32.4,32.4-32.4h567.5
			c17.8,0,32.4,14.6,32.4,32.4v1134.9C2010.8,1720.3,1996.2,1734.9,1978.4,1734.9z"/>
		<path class="st3" d="M2044.2,567.6v1134.9c0,17.8-14.6,32.3-32.4,32.3h-567.5c-17.8,0-32.3-14.6-32.3-32.3V567.6
			c0-17.8,14.5-32.4,32.3-32.4h567.5C2029.6,535.2,2044.2,549.8,2044.2,567.6z"/>
		<g>
			<path class="st4" d="M1820.7,580.7h-164.4c-3.5,0-6.4-2.9-6.4-6.4l0,0c0-3.5,2.9-6.4,6.4-6.4h164.4c3.5,0,6.4,2.9,6.4,6.4l0,0
				C1827.1,577.8,1824.2,580.7,1820.7,580.7z"/>
			<path class="st4" d="M1627.2,580.7L1627.2,580.7c-3.5,0-6.4-2.9-6.4-6.4l0,0c0-3.5,2.9-6.4,6.4-6.4l0,0c3.5,0,6.4,2.9,6.4,6.4
				l0,0C1633.6,577.8,1630.7,580.7,1627.2,580.7z"/>
		</g>
		<path class="st5" d="M1777.1,1668.6c0,11.3-4.6,21.6-12,29c-7.5,7.5-17.8,12.2-29.3,12.2c-22.8,0-41.2-18.5-41.2-41.2
			c0-14.6,7.6-27.5,19.1-34.8c6.4-4.1,14-6.4,22.1-6.4C1758.7,1627.4,1777.1,1645.8,1777.1,1668.6z"/>
		<rect x="1449.8" y="609.1" class="st5" width="560.6" height="997.9"/>
		<path class="st6" d="M1765.2,1697.6c-7.5,7.5-17.8,12.2-29.3,12.2c-22.8,0-41.2-18.5-41.2-41.2c0-14.6,7.6-27.5,19.1-34.8
			C1717.8,1651.3,1729.8,1680.7,1765.2,1697.6z"/>
	</g>
	<path class="st7" d="M2002.4,728.5h-1.3h-259.6h-260.9c-4.4,0-8.1,4.7-8.1,10.4v333.6c0,5.7,3.6,10.4,8.1,10.4h260.9h259.6h1.3
		c4.4,0,8.1-4.7,8.1-10.4V738.9C2010.5,733.2,2006.8,728.5,2002.4,728.5z"/>
	<path class="st7" d="M1807.7,1133.7h-1h-202.4h-203.4c-3.5,0-6.3,4.7-6.3,10.4v333.6c0,5.7,2.8,10.4,6.3,10.4h203.4h202.4h1
		c3.5,0,6.3-4.7,6.3-10.4v-333.6C1814,1138.4,1811.2,1133.7,1807.7,1133.7z"/>
	<g>
		<path class="st8" d="M2200.7,708.9v333.6c0,5.7-4.7,10.4-10.5,10.4h-675.5c-5.7,0-10.4-4.7-10.4-10.4V708.9
			c0-5.8,4.7-10.5,10.4-10.5h675.5C2196,698.4,2200.7,703.1,2200.7,708.9z"/>
		<path class="st9" d="M2200.7,708.8v333.6c0,5.7-5.5,10.4-12.1,10.4h-336.1V698.4h336.1C2195.3,698.4,2200.7,703.1,2200.7,708.8z"
			/>
		<g>
			<path class="st8" d="M2017.5,827.9h-118.9c-4.2,0-7.6-3.4-7.6-7.6l0,0c0-4.2,3.4-7.6,7.6-7.6h118.9c4.2,0,7.6,3.4,7.6,7.6l0,0
				C2025.1,824.5,2021.7,827.9,2017.5,827.9z"/>
			<path class="st8" d="M1988.1,850.6h-90.4c-3.7,0-6.7-3-6.7-6.7v-1.8c0-3.7,3-6.7,6.7-6.7h90.4c3.7,0,6.7,3,6.7,6.7v1.8
				C1994.8,847.6,1991.8,850.6,1988.1,850.6z"/>
		</g>
		<g>
			<path class="st8" d="M1900.2,743c2.8-3.8,6.6-5.6,11.2-5.6c4.6,0,8.3,1.9,11.1,5.6c2.8,3.7,4.2,8.3,4.2,13.9
				c0,5.5-1.4,10.1-4.2,13.9c-2.8,3.7-6.6,5.6-11.1,5.6c-4.6,0-8.3-1.9-11.2-5.6c-2.8-3.7-4.2-8.3-4.2-13.9
				C1895.9,751.4,1897.3,746.8,1900.2,743z M1919.5,745.6c-2.1-3-4.9-4.5-8.2-4.5s-6.1,1.5-8.2,4.5c-2.1,3-3.2,6.8-3.2,11.2
				c0,4.5,1.1,8.3,3.2,11.3c2.1,3,4.9,4.5,8.3,4.5c3.4,0,6.1-1.5,8.2-4.5c2.1-3,3.2-6.8,3.2-11.3
				C1922.8,752.4,1921.7,748.6,1919.5,745.6z"/>
			<path class="st8" d="M1957.3,742.1c2.5,3.1,3.8,7.4,3.8,12.9c0.2,11.7-6.1,21.4-16.3,21.3c-3.1,0-5.7-0.8-7.9-2.3v-3.8
				c2.4,1.6,4.9,2.4,7.6,2.4c8.9,0,12.6-8.1,12.8-16.1c-2,3.4-5.9,5.6-11,5.6c-3.4,0-6.3-1.1-8.6-3.3c-2.3-2.3-3.5-5.2-3.5-8.6
				c0-3.7,1.2-6.7,3.7-9.1c2.5-2.4,5.5-3.6,9.1-3.6C1951.3,737.4,1954.8,739,1957.3,742.1z M1940.6,743.7c-1.7,1.7-2.6,3.8-2.6,6.4
				c0,2.6,0.9,4.6,2.6,6.2c1.8,1.6,3.9,2.3,6.6,2.3c2.2,0,4.2-0.7,6.1-2.1c1.9-1.4,3.1-3.1,3.8-5.2c-0.6-6.4-4.2-10.2-10-10.2
				C1944.6,741.1,1942.4,742,1940.6,743.7z"/>
			<path class="st8" d="M1969.1,751.2c1.1-1.1,2.9-1.1,4,0c1.1,1.1,1.1,2.9,0,4c-1.1,1.1-2.9,1.1-4,0
				C1968,754.1,1968,752.3,1969.1,751.2z M1969.1,771.2c1.1-1.1,2.9-1.1,4,0c1.1,1.1,1.1,2.9,0,4c-1.1,1.1-2.9,1.1-4,0
				C1968,774.1,1968,772.3,1969.1,771.2z"/>
			<path class="st8" d="M1987.7,775.6v-33.3l-8.4,4.8v-3.8l8.9-5.3h3.5v37.6H1987.7z"/>
			<path class="st8" d="M2005.3,743c2.8-3.8,6.6-5.6,11.2-5.6s8.3,1.9,11.1,5.6c2.8,3.7,4.2,8.3,4.2,13.9c0,5.5-1.4,10.1-4.2,13.9
				c-2.8,3.7-6.6,5.6-11.1,5.6s-8.3-1.9-11.2-5.6c-2.8-3.7-4.2-8.3-4.2-13.9C2001.1,751.4,2002.4,746.8,2005.3,743z M2024.7,745.6
				c-2.1-3-4.9-4.5-8.2-4.5s-6.1,1.5-8.2,4.5c-2.1,3-3.2,6.8-3.2,11.2c0,4.5,1.1,8.3,3.2,11.3c2.1,3,4.9,4.5,8.3,4.5
				c3.4,0,6.1-1.5,8.2-4.5c2.1-3,3.2-6.8,3.2-11.3C2027.9,752.4,2026.8,748.6,2024.7,745.6z"/>
			<path class="st8" d="M2055,775.6v-37.6h15.8c7.5,0,12,4.2,12,10.4c0,6.4-4.5,10.6-12,10.6h-11.8v16.6H2055z M2058.9,755.5h11.5
				c5.3,0,8.4-2.5,8.4-6.9c0-4.5-3.1-6.9-8.4-6.9h-11.5V755.5z"/>
			<path class="st8" d="M2090.7,775.6v-37.6h3.9l13.6,18.2l13.6-18.2h3.9v37.6h-3.9v-31.6l-12.3,16.4h-2.4l-12.4-16.4v31.6H2090.7z"
				/>
		</g>
		<path class="st10" d="M1704.8,1052.9h-190.1c-5.7,0-10.4-4.7-10.4-10.4V815.7C1556.1,877,1657.6,997,1704.8,1052.9z"/>
		<path class="st9" d="M1677.1,742.3c-38,0-68.9,30.8-68.9,68.9c0,38,68.9,122.6,68.9,122.6s68.9-84.6,68.9-122.6
			C1746,773.1,1715.2,742.3,1677.1,742.3z M1677.1,842.7c-17.8,0-32.2-14.4-32.2-32.2c0-17.8,14.4-32.2,32.2-32.2
			s32.2,14.4,32.2,32.2C1709.3,828.3,1694.9,842.7,1677.1,842.7z"/>
		<g>
			<path class="st11" d="M1671.3,990.9h-118.9c-4.2,0-7.6-3.4-7.6-7.6l0,0c0-4.2,3.4-7.6,7.6-7.6h118.9c4.2,0,7.6,3.4,7.6,7.6l0,0
				C1678.9,987.5,1675.5,990.9,1671.3,990.9z"/>
			<path class="st11" d="M1642,1013.6h-90.4c-3.7,0-6.7-3-6.7-6.7v-1.8c0-3.7,3-6.7,6.7-6.7h90.4c3.7,0,6.7,3,6.7,6.7v1.8
				C1648.6,1010.6,1645.6,1013.6,1642,1013.6z"/>
		</g>
	</g>
	<g>
		<path class="st8" d="M1867.2,1118.5v333.6c0,5.7-4.7,10.4-10.4,10.4h-675.5c-5.8,0-10.5-4.7-10.5-10.4v-333.6
			c0-5.7,4.7-10.4,10.5-10.4h675.5C1862.5,1108.1,1867.2,1112.8,1867.2,1118.5z"/>
		<path class="st9" d="M1867.2,1118.5v333.6c0,5.7-4.7,10.4-10.4,10.4h-300.5v-354.5h300.5
			C1862.5,1108.1,1867.2,1112.8,1867.2,1118.5z"/>
		<g>
			<g>
				<path class="st8" d="M1709.4,1357.6c-6,0-11.5-3.2-14.5-8.3l-44.4-75.9c-4.7-8-2-18.4,6-23.1c8-4.7,18.4-2,23.1,6l28.5,48.7
					l53.6-110.4c4.1-8.4,14.2-11.9,22.5-7.8c8.4,4.1,11.9,14.2,7.8,22.5l-67.4,138.7c-2.7,5.6-8.3,9.2-14.5,9.5
					C1709.9,1357.6,1709.6,1357.6,1709.4,1357.6z"/>
			</g>
			<g>
				<path class="st8" d="M1709.4,1396.6c-57.7,0-104.6-46.9-104.6-104.6c0-57.7,46.9-104.6,104.6-104.6
					c57.7,0,104.6,46.9,104.6,104.6C1814,1349.7,1767.1,1396.6,1709.4,1396.6z M1709.4,1199.7c-50.9,0-92.3,41.4-92.3,92.3
					s41.4,92.3,92.3,92.3c50.9,0,92.3-41.4,92.3-92.3S1760.3,1199.7,1709.4,1199.7z"/>
			</g>
		</g>
		<path class="st10" d="M1368.6,1462.6h-187.4c-5.8,0-10.5-4.7-10.5-10.4V1194L1368.6,1462.6z"/>
		<g>
			<g>
				<path class="st9" d="M1261.4,1166c-20.7,0-37.5,16.8-37.5,37.5c0,20.7,16.8,37.5,37.5,37.5s37.5-16.8,37.5-37.5
					C1298.8,1182.7,1282.1,1166,1261.4,1166z M1287.3,1204.6h-25.9c-0.7,0-1.2-0.5-1.2-1.2v-27.9c0-0.7,0.5-1.2,1.2-1.2
					s1.2,0.5,1.2,1.2v26.7h24.8c0.7,0,1.2,0.5,1.2,1.2C1288.5,1204.1,1288,1204.6,1287.3,1204.6z"/>
				<g>
					<path class="st11" d="M1454.1,1189.5h-118.9c-4.2,0-7.6-3.4-7.6-7.6l0,0c0-4.2,3.4-7.6,7.6-7.6h118.9c4.2,0,7.6,3.4,7.6,7.6
						l0,0C1461.7,1186.1,1458.3,1189.5,1454.1,1189.5z"/>
					<path class="st11" d="M1424.7,1212.2h-90.4c-3.7,0-6.7-3-6.7-6.7v-1.8c0-3.7,3-6.7,6.7-6.7h90.4c3.7,0,6.7,3,6.7,6.7v1.8
						C1431.4,1209.2,1428.4,1212.2,1424.7,1212.2z"/>
				</g>
			</g>
			<g>
				<path class="st9" d="M1257.6,1311c-18.6,0-33.7,15.1-33.7,33.7c0,18.6,33.7,60,33.7,60s33.7-41.4,33.7-60
					C1291.4,1326.1,1276.3,1311,1257.6,1311z M1257.6,1360.1c-8.7,0-15.8-7.1-15.8-15.8c0-8.7,7.1-15.8,15.8-15.8
					c8.7,0,15.8,7.1,15.8,15.8C1273.4,1353,1266.3,1360.1,1257.6,1360.1z"/>
				<g>
					<path class="st11" d="M1445.1,1335.5h-118.9c-4.2,0-7.6-3.4-7.6-7.6l0,0c0-4.2,3.4-7.6,7.6-7.6h118.9c4.2,0,7.6,3.4,7.6,7.6
						l0,0C1452.6,1332.1,1449.2,1335.5,1445.1,1335.5z"/>
					<path class="st11" d="M1415.7,1358.3h-90.4c-3.7,0-6.7-3-6.7-6.7v-1.8c0-3.7,3-6.7,6.7-6.7h90.4c3.7,0,6.7,3,6.7,6.7v1.8
						C1422.4,1355.3,1419.4,1358.3,1415.7,1358.3z"/>
				</g>
			</g>
		</g>
	</g>
	<g>
		<g>
			<path class="st12" d="M528,1308.9c-2.5-60.9-7.8-113.9-14.2-150.8c-10.2-58.9-19.4-92.8-19.5-93.1c-1.3-5.2-20.7-26.1-63.8-25.5
				c-43.1,0.6-39,28.1-39,28.1l0,0c0,0.9,0.1,1.8,0.3,2.4c0.4,1.4,40,144.8,38.3,330c0,2.6-0.3,7.1-0.1,10.1c0,0,99.8,2.6,99.9,0
				C533.3,1393.9,531.6,1349.1,528,1308.9z"/>
			<path class="st13" d="M540.6,1399.1c0,2.6-1.4,4.6-3.1,4.6h0c-1.7,0-3-2.1-3-4.6h-85.6c0,2.6-1.4,4.6-3.1,4.6h0
				c-1.7,0-3-2.2-3-4.8c0.5-53-2.5-102.5-7.1-146.2c-11.4-108.9-32.4-181.7-32.7-182.7c-0.2-0.6-0.3-1.5-0.3-2.4
				c0,0-4.1-27.5,39-28.1c43.1-0.6,62.5,20.3,63.8,25.5c0.1,0.3,5.3,19.5,12.2,53.9c2.3,11.4,4.8,24.5,7.3,39.2
				c6.4,36.9,11.7,89.9,14.2,150.8C542.8,1349.1,544.1,1382.9,540.6,1399.1z"/>
			<path class="st14" d="M436.5,1403.8h335.5c0,0-7.8-31.6-202.1-26.9C432.4,1380.2,436.5,1403.8,436.5,1403.8z"/>
			<g>
				<path class="st12" d="M409.2,1734c38.9-196.9,28.9-317.7,28.8-319.2c-0.1-3,5.5-5.8,8.5-5.9c3-0.1,16.5-0.9,18,1.7
					c2,3.4,9.9,152.3-48.1,323.4H409.2z"/>
			</g>
			<g>
				<path class="st12" d="M722.4,1734c-38.9-196.9-28.9-317.7-28.8-319.2c0.1-3-5.5-5.8-8.5-5.9c-3-0.1-16.5-0.9-18,1.7
					c-2,3.4-9.9,152.3,48.1,323.4H722.4z"/>
			</g>
			<g>
				<path class="st12" d="M784.5,1734c-38.9-196.9-28.9-317.7-28.8-319.2c0.1-3-5.5-5.8-8.5-5.9c-3-0.1-16.5-0.9-18,1.7
					c-2,3.4-9.9,152.3,48.1,323.4H784.5z"/>
			</g>
			<g>
				<path class="st12" d="M471.7,1734c38.9-196.9,28.9-317.7,28.8-319.2c-0.1-3,5.5-5.8,8.5-5.9c3-0.1,16.5-0.9,18,1.7
					c2,3.4,9.9,152.3-48.1,323.4H471.7z"/>
			</g>
			<path class="st12" d="M772.1,1413.9H436.7c-3.8,0-6.9-3.1-6.9-6.9v-4.5c0-3.8,3.1-6.9,6.9-6.9h335.5c3.8,0,6.9,3.1,6.9,6.9v4.5
				C779,1410.8,775.9,1413.9,772.1,1413.9z"/>
			<g>
				<path class="st15" d="M760.4,1110.9l111.5-24.2l6.6,16c0,0-123,73.2-134.6,69.6S760.4,1110.9,760.4,1110.9z"/>
				<path class="st15" d="M659,1615.2c-2.8,3.2-3.1,6.8-1.8,10.6c0,0,0,0,0,0.1c2.6,7.1,11,15,20.8,22.8c1.3,1,2.4,1.9,3.3,2.8
					c0.3,0.2,0.5,0.4,0.8,0.7c0.2,0.2,0.4,0.4,0.6,0.5c9.1,8.4,5.7,10.4,22.1,27.5c18.7,19.5,31.6,19.8,35.3,18.1
					c3.1-1.5-3.2-11.9-10.2-23.5c-0.3-0.6-0.7-1.1-1-1.7c-0.9-1.5-1.9-3.1-2.8-4.7c-8.2-14-6.1-20.6-4.1-41.4
					c1.6-16.9,26.3-94.5,26.3-94.5l-35.9-6.2c0,0-10.8,61.8-22.7,71.3c-6.4,5.1-13.5,5.1-19.6,8.9c-0.4,0.3-0.9,0.5-1.3,0.8
					C665.3,1609.6,661.8,1612,659,1615.2z"/>
				<path class="st16" d="M659,1615.2c-2.8,3.2-3.1,6.8-1.8,10.6c0,0,0,0,0,0.1c3.1,7.1,11.4,14.9,20.8,22.8c1.2,1,2.3,2,3.3,2.9
					c0.3,0.2,0.5,0.4,0.8,0.7c0.2,0.2,0.4,0.4,0.6,0.5c9.1,8.4,5.7,10.4,22.1,27.5c18.7,19.5,31.6,19.8,35.3,18.1
					c3.1-1.5-3.2-11.9-10.2-23.5c-3.6-1.3-20.6-8.2-33.4-24.6c-11.3-14.4-18.8-32.9-26.5-43.6c-0.4,0.3-0.9,0.5-1.3,0.8
					C665.3,1609.6,661.8,1612,659,1615.2z"/>
				<path class="st15" d="M948.5,1592.8c2.2,11.1,18,9.2,35.7,4.9c17.7-4.3,13.5,0.8,38.6-2c25.1-2.8,32.7-12.1,33.5-15.9
					c0.7-3.3-11.7-4.5-25-6c-1.7-0.2-3.4-0.4-5-0.6c-15-1.9-26-11.6-39.7-19.6c-12.9-7.5-32.2-38.3-32.2-38.3l-34.5,2.7
					c0,0,18.1,27.5,25.1,39.4c4.1,7,3.9,16.3,3.4,23.5C948,1584.9,947.7,1588.9,948.5,1592.8z"/>
				<path class="st16" d="M984.2,1597.7c17.7-4.3,13.5,0.8,38.6-2c25.1-2.8,32.7-12.1,33.5-15.9c0.7-3.3-11.7-4.5-25-6l-0.1,0.3
					c0,0-15.1,10.7-36,11.2c-17,0.4-35.1-4.5-46.9-4.3c-0.3,3.9-0.5,7.9,0.3,11.8C950.7,1603.9,966.5,1602,984.2,1597.7z"/>
				<path class="st15" d="M871.9,1086.8c0,0,8.2-20.1,17.2-20.9c9-0.8,37.8-5.3,39.8-1.2c2.1,4.1,0,18.9-6.2,24.2
					c-6.2,5.3-44.3,14-44.3,14L871.9,1086.8z"/>
				<path class="st17" d="M816.5,1372.5l-74.3,199.8c0,0-11.4,1.1-22.3-2c-10.1-2.9-21.6-10.5-21.6-10.5s18.4-191.9,52.2-231.8
					C784.3,1288.1,816.5,1372.5,816.5,1372.5z"/>
				<path class="st16" d="M522.8,1291.7c0,0,213.4-72.1,260.9-56.8c47.6,15.3,190.5,299.6,190.5,299.6s-3.2,4.3-12,7.6
					c-8.2,3.1-28,2.9-28,2.9s-128.9-110.5-144.3-142.8c-15.4-32.2-21.5-62.9-36.8-59.9c-15.4,3.1-198,75.2-239.5,32.2
					c-41.4-43-30.6-98.8-30.6-98.8L522.8,1291.7z"/>
				<path class="st18" d="M644.4,782.9c-9.2-5.2-20.3-5.8-28-5.4c2-2.1,5.9-2.8,5.9-2.8c-4.8-0.7-15.5,4-15.5,4
					c-66.7-25.7-77.2,72.5-75.8,95.3c1.4,22.8,1.6,49.1-31.7,69.5c-65.5,40.3-10.2,110.5-10.2,110.5c0.5,0.3,30.5,51.1,30.5,51.1
					c-1.7-18.4,83.4-115.7,127.7-144.8c10.8-15.9,14.6-44,14.9-46.2c-1.9,22.3-5.7,34.8-9.1,41.8
					C690.8,921.4,668.9,796.8,644.4,782.9z"/>
				<path class="st15" d="M644.7,961.9c0.2,0.1-21.4,11.3-37.7,6.9c-15.3-4.2-25.3-24-25.1-24.1c6.5-1.3,8.4-10.2,8.2-48.5l2.9,0.6
					l49.3,9.8c0,0-1.1,15.5-1.2,30.1C641.2,948.9,641.9,960.6,644.7,961.9z"/>
				<path class="st19" d="M642.3,906.5c0,0-1.1,15.5-1.2,30.1c-27.6-0.8-42.2-25.9-48.1-39.9L642.3,906.5z"/>
				<path class="st18" d="M588,891.4c0,0-14.5-22.8-17.9-42.4c-2.5-13.9,4.6-65.6,56.6-58.2c0,0,15.1,1.5,29.3,11.1
					c11.3,7.6,27.6,24.1,9.4,69.2l-4.7,15.2L588,891.4z"/>
				<path class="st15" d="M651.6,920.4c0,0-65.3,1.1-65.3-39.6c0-40.7-8.5-67.9,33.2-70.3c41.7-2.4,49.8,13.1,53.1,26.7
					C675.8,850.7,668.5,919,651.6,920.4z"/>
				<path class="st18" d="M649.1,809.5c0,0-17.9,47.7-45.3,54.8c-27.4,7.1-39.3-0.3-39.3-0.3s21-16.7,25.4-45.9
					C589.9,818,635.7,786.8,649.1,809.5z"/>
				<path class="st18" d="M644.7,813.3c0,0,13.3,10.6,16.6,21c3.3,10.4,4.7,31.7,10.9,30.9c0,0,13.5-32.4-1.7-50.8
					C654.5,795.1,644.7,813.3,644.7,813.3z"/>
				<path class="st16" d="M499.4,1137.5c-6.4-27,15.5-79.4,38.3-122.8c20.7-39.3,42.3-71.2,44.2-70.1c54.7,32.5,59.7,5.5,59.7,5.5
					l0,0c0,0,49.7,6.6,63.8,30.8c17.5,30.1,36.3,114,55,129.9c-2.9,8.8-1.6,13.5,1.4,24.4c0.7,2.3,1.4,4.6,2.2,6.7
					c2.8,7.7,6.4,13.9,9.4,19.3c-9.5,5.8-27.9,16.8-41.5,8.9c-20.7-12.1-36.8-48.9-45.8-63.5c0-0.1-0.1-0.1-0.1-0.2
					c-19.7,111.6,7.1,137-6.5,148.7c-14.3,12.4-34.8-5.9-79.8,13.6c-29.5,12.8-70.5,31.3-98.1,34.6c-14.5,1.7-25.3-0.8-28.8-10.6
					C462.5,1264.4,511.6,1189,499.4,1137.5z"/>
				<path class="st0" d="M637,895.7c0,0,1.2,5.2,14.1,4.4c0,0,10.8-0.7,10.5-6.3C661.6,893.7,651.1,889.7,637,895.7z"/>
				<path class="st17" d="M472.7,1292.8c3.5,9.8,14.3,12.3,28.8,10.6c19.1-8.3,101.6-40.3,100.7-61.9c-1.4-32.1-15.9-33.1-5.6-72.7
					c8.2-31.8-68-90.9-80.2-103.7c-22.9,43.4-23.5,45.4-17.1,72.4C511.6,1189,462.5,1264.4,472.7,1292.8z"/>
				<path class="st16" d="M463.4,1177.1c14.6-20.5,29.9-31.4,39.9-36.9c-2.3-5.9,61.5-84.2,61.5-96.3c0-12.3,17-99.2,17-99.2
					s-53.2,3.3-71.6,29C487.2,1005.8,439.4,1129.4,463.4,1177.1z"/>
				<path class="st15" d="M503.3,1140.3l106.3,27.7l-10,17.9c0,0-129.4-0.9-136.2-8.8C456.6,1169.3,503.3,1140.3,503.3,1140.3z"/>
				<path class="st17" d="M686,1106.6c9.1,14.7,25.2,51.4,45.8,63.5c13.5,7.9,31.9-3.1,41.5-8.9c-3-5.4-6.6-11.6-9.4-19.3
					c-7.6,1.7-16.9,4-22.9,5.8C729.4,1151.3,686,1106.6,686,1106.6z"/>
				<path class="st15" d="M609.6,1168c0,0,33.4-9.4,41.3-7.2c8,2.2,35.2,20.2,31.4,25.1c-3.8,4.9-27.8-2.9-38.9-1.5
					c-11,1.5-19.6,6.9-27.5,5.8c-8-1.2-16.3-4.3-16.3-4.3L609.6,1168z"/>
				<path class="st15" d="M609.6,1168c0,0,16.3-8.4,21-13.2c0.6-0.6,1.6-0.5,2,0.2c1.2,2,2.4,5.8-3.3,9.5
					C621.1,1170,609.6,1168,609.6,1168z"/>
			</g>
		</g>
		<g>
			<path class="st20" d="M763.9,1215H608.2l0,0c0-6.9,5.6-12.4,12.4-12.4h143.3V1215z"/>
			<polygon class="st20" points="763.5,1045.4 1004.3,1045.4 946.5,1215 704.1,1215 			"/>
			<polygon class="st9" points="1007.8,1045.4 950,1215 707.7,1215 767,1045.4 			"/>
			<path class="st21" d="M878,1128.6c-1.5,6.5-8,11.7-14.4,11.7c-6.5,0-10.5-5.3-9-11.7c1.5-6.5,8-11.7,14.4-11.7
				C875.4,1116.9,879.5,1122.1,878,1128.6z"/>
			<path class="st22" d="M1007.8,1045.4L950,1215H789.5c106.3-36.3,134.6-146.9,139.4-169.6H1007.8z"/>
		</g>
	</g>
	<g>
		<g>
			<path class="st5" d="M308.7,1734c3,0,5.6-2.1,6.2-5.1l30.2-171.4l43.5-246.5l12.2-68.9l-31-0.9l-5.4,40l-37.7,281.2l-22.4,166.7
				C304,1731.7,306,1734,308.7,1734z"/>
		</g>
		<path class="st2" d="M364.5,1281.1c20.1,8.9,24.2,29.8,24.2,29.8l12.2-68.9l-31-0.9L364.5,1281.1z"/>
	</g>
	<g>
		<g>
			<path class="st5" d="M1079.4,1734c-3,0-5.6-2.1-6.2-5.1l-30.2-171.4l-43.5-246.5l-12.2-68.9l31-0.9l5.4,40l37.7,281.2l22.4,166.7
				C1084.2,1731.7,1082.1,1734,1079.4,1734z"/>
		</g>
		<path class="st2" d="M1023.7,1281.1c-20.1,8.9-24.2,29.8-24.2,29.8l-12.2-68.9l31-0.9L1023.7,1281.1z"/>
	</g>
	<path class="st2" d="M288.1,1269.1h793.5c10.4,0,18.9-8.5,18.9-18.9v-16.3c0-10.4-8.5-18.9-18.9-18.9H288.1
		c-10.4,0-18.9,8.5-18.9,18.9v16.3C269.2,1260.6,277.7,1269.1,288.1,1269.1z"/>
	<path class="st23" d="M2849.9,1741.1H123.6c-1.7,0-3.1-1.4-3.1-3.1v-1.1c0-1.7,1.4-3.1,3.1-3.1h2726.3c1.7,0,3.1,1.4,3.1,3.1v1.1
		C2853,1739.7,2851.6,1741.1,2849.9,1741.1z"/>
	<g>
		<path class="st15" d="M2134.2,850.6c0,0-11.1-35.7-17.4-39.6c-6.3-3.8-32.5-16.8-34.1-13.3c-1.6,3.5,14.2,20.5,17.7,26.1
			c3.5,5.7,5.2,11.3,2.8,8.8c-2.4-2.4-15.7-10.6-17.1-8.8c-1.4,1.8,6.6,8.8,10.5,14.4c3.8,5.6,8,15,21.7,17.1
			C2131.9,857.5,2134.2,850.6,2134.2,850.6z"/>
		<path class="st15" d="M2538,1151.5c0,0-3.3,32.3-7,38.4s-19.2,25.6-25.8,29.4c-6.6,3.8,4-25.7,2.7-31.5
			c-1.3-5.7-5.4,10.5-8.4,10.9c-2.9,0.4-2.2-14.2-2.3-19.6c-0.1-5.3,14.2-18.4,19.2-29.8C2521.6,1138.1,2538,1151.5,2538,1151.5z"/>
		<path class="st24" d="M2436.8,820.3c0,0-26.8,131.7-174.6,174.8c-46.1,13.4-150.9-138.4-150.9-138.4s3.7-14,26.8-10.8
			c0,0,102,67.5,114.8,74.9c11.4,6.5,86.3-83.7,120.5-98.2C2407.6,808,2436.8,820.3,2436.8,820.3z"/>
		<g>
			<path class="st24" d="M2613.1,1648.5c0,0,18.3,16.7,14.7,28.6c-3.6,11.9-20.1,19.8-22.3,34.3s-11.2,22.4-19.2,22.4
				s-38.4,0-38.4,0s-5.9-10.2,8.4-13.3c14.3-3.1,19.7-20.1,18.8-36c-0.9-15.8,1.3-37,1.3-37l30.4-7L2613.1,1648.5z"/>
			<path class="st24" d="M2388.3,1691.7c0,0,3.3,38.1-4.8,42l-103-0.2c0,0,0-11.9,16.5-14.5s45.6-12.3,50.5-33.9
				C2352.6,1663.5,2388.3,1691.7,2388.3,1691.7z"/>
			<path class="st9" d="M2301.4,1154.1c0,0,5.4,66.7,11.8,146.9c8.7,108.9,19.1,242.7,20.1,268.1c1.8,44,8.9,114.4,8.9,114.4
				s17,16.7,51,9.7c0,0,30.3-100.5,38.9-206.9c0.1-1.7,0.3-3.5,0.4-5.3c8-108.3,20.6-336.2,20.6-336.2L2301.4,1154.1z"/>
			<path class="st20" d="M2301.4,1154.1c0,0,5.4,66.7,11.8,146.9l119,185.3c0.1-1.7,0.3-3.5,0.4-5.3c8-108.3,20.6-336.2,20.6-336.2
				L2301.4,1154.1z"/>
			<path class="st9" d="M2326.2,1162c0,0,97.9,241.6,162.2,355.1c64.4,113.5,84.5,145.2,84.5,145.2s36.9-14.5,40.2-24.4
				c0,0-24.6-219.2-67.7-272.6c-24.4-30.2-53-120.8-54.3-152.5s-8.7-94.4-8.7-94.4L2326.2,1162z"/>
		</g>
		<path class="st15" d="M2455,789.7c0,0-66.2,32-104.4,20.1c0,0,9.4-11.9,25.8-20.7c-1.3-7.7-2.3-14.3-2.9-20
			c-1.6-13-1.6-20.4-1.6-20.4l25.5-20.1l24.2-19.2C2419.7,763.5,2455,789.7,2455,789.7z"/>
		<path class="st25" d="M2489.9,1130.8c0.1,4.1-8.5,8.7-12.3,10.4c-28.3,12.4-54.8,21.1-84.7,24c-35.4,3.6-77.2-4.3-91.6-4
			c-1.5,0-2.8-0.6-4-1.6c-1-0.7-1.8-43.4-1-97c0-2.2,0-4.3,0.1-6.5v-0.7c0.3-21,1-42.9,2.1-64.9c2.1-48.3,5.9-94.9,12.3-120.6
			c7.8-30.4,25.4-50.5,41.4-65.1l13.2-11.6c13.2,2.6,27.2,1.9,41.1-4.9c15.3-7.4,31.7-15.3,34.4-13.3c20,14.6,33.5,47.4,40.7,89.4
			c0,0.2,0.1,0.4,0.1,0.6c4,24,6.1,50.8,5.9,78.9c0,10.4-0.3,21.1-0.9,31.7c-2.9,47.8-1,90.4,1,119.9c0.4,5.8,0.8,11.1,1.1,15.9
			C2489.3,1119.7,2489.7,1126.2,2489.9,1130.8z"/>
		<path class="st24" d="M2487.6,1095.4c-109.8-126.7-41.7-218.9-41.7-218.9l35.7-11.6c4,24,6.1,50.8,5.9,78.9
			c0,10.4-0.3,21.1-0.9,31.7C2483.7,1023.4,2485.7,1065.9,2487.6,1095.4z"/>
		<path class="st26" d="M2422.1,730.1c0,0-16.7,30.5-48.6,39c-1.6-13-1.6-20.4-1.6-20.4l25.5-20.1L2422.1,730.1z"/>
		<path class="st15" d="M2360.2,747.9c0,0,63.2,10.3,69.1-28.5c5.9-38.8,18.1-63.7-22-71.9c-40.1-8.2-50.2,5.4-55.4,17.9
			C2346.7,677.9,2343.9,744.2,2360.2,747.9z"/>
		<path class="st27" d="M2452.3,642.9c0.6-0.7,1.9-1.2,4.8-1.3c0,0-2.4-1.5-5.5-1.5c-0.6-4.1-2.8-11.3-9.8-13.1c0,0,3.8,2,4.3,6.4
			c-8.2-8.4-25.6-14.5-74.1-10.7c-63.8,5-42.8,45.9-34.5,50.8c8.3,4.9,29.1-8.5,44.4-7.3c15.4,1.2,18.3,23.5,23.5,26.5
			c5.2,3.1,3.2-2.3,10.2-5.5c7.1-3.2,7.7,8.5,5.7,16.1c-2,7.6,7.7,17.7,7.7,17.7s0,0,9.8-10.6c9.8-10.6,19.1-55.3,14.6-64.8
			C2453.1,644.6,2452.7,643.7,2452.3,642.9z"/>
		<path class="st25" d="M2440.8,774.7c0,0,40,18.9,59.1,48c29.7,45.1,64.2,209.6,64.8,224.9s-25.2,122.8-25.2,122.8
			s-26.2-1.7-32.9-14.9c0,0,5.2-110.5,1.9-117.6c-3.3-7.1-109-148.2-97.2-178.3C2423.4,829.4,2440.8,774.7,2440.8,774.7z"/>
	</g>
	<path class="st8" d="M2109.3,1022h-157.7c-13.7,0-24.9-11.2-24.9-24.9v-7c0-13.7,11.2-24.9,24.9-24.9h157.7
		c13.7,0,24.9,11.2,24.9,24.9v7C2134.2,1010.8,2123,1022,2109.3,1022z"/>
	<g>
		<g>
			<path class="st9" d="M2030.1,1006c-1.1,0-2.1-0.6-2.7-1.6l-8.3-14.2c-0.9-1.5-0.4-3.4,1.1-4.3c1.5-0.9,3.4-0.4,4.3,1.1l5.3,9.1
				l10-20.6c0.8-1.6,2.6-2.2,4.2-1.5c1.6,0.8,2.2,2.6,1.5,4.2l-12.6,25.9c-0.5,1-1.5,1.7-2.7,1.8
				C2030.2,1006,2030.2,1006,2030.1,1006z"/>
		</g>
		<g>
			<path class="st9" d="M2030.1,1013.3c-10.8,0-19.5-8.8-19.5-19.5c0-10.8,8.8-19.5,19.5-19.5s19.5,8.8,19.5,19.5
				C2049.6,1004.5,2040.9,1013.3,2030.1,1013.3z M2030.1,976.6c-9.5,0-17.2,7.7-17.2,17.2c0,9.5,7.7,17.2,17.2,17.2
				c9.5,0,17.2-7.7,17.2-17.2C2047.3,984.3,2039.6,976.6,2030.1,976.6z"/>
		</g>
	</g>
	<g>
		<path class="st13" d="M1140.5,817.6H972.1c-22.1,0-40.2,18.1-40.2,40.2v63.7c0,10.1,3.8,19.4,10,26.5l-10,45.8l57.7-32h151
			c22.1,0,40.2-18.1,40.2-40.2v-63.7C1180.8,835.7,1162.7,817.6,1140.5,817.6z"/>
		<path class="st12" d="M1143.7,866.1H969.1c-3.6,0-6.5-2.9-6.5-6.5l0,0c0-3.6,2.9-6.5,6.5-6.5h174.7c3.6,0,6.5,2.9,6.5,6.5l0,0
			C1150.2,863.2,1147.3,866.1,1143.7,866.1z"/>
		<path class="st12" d="M1143.7,894.8H969.1c-3.6,0-6.5-2.9-6.5-6.5l0,0c0-3.6,2.9-6.5,6.5-6.5h174.7c3.6,0,6.5,2.9,6.5,6.5l0,0
			C1150.2,891.8,1147.3,894.8,1143.7,894.8z"/>
		<path class="st12" d="M1143.7,922.3H969.1c-3.6,0-6.5-2.9-6.5-6.5l0,0c0-3.6,2.9-6.5,6.5-6.5h174.7c3.6,0,6.5,2.9,6.5,6.5l0,0
			C1150.2,919.3,1147.3,922.3,1143.7,922.3z"/>
	</g>
</g>
</svg>
