<?xml version="1.0" encoding="utf-8"?>
<!-- Generator: Adobe Illustrator 24.3.0, SVG Export Plug-In . SVG Version: 6.00 Build 0)  -->
<svg version="1.1" id="_x2018_лой_x5F_1" xmlns="http://www.w3.org/2000/svg" xmlns:xlink="http://www.w3.org/1999/xlink"
	 x="0px" y="0px" viewBox="0 0 3200 2000" style="enable-background:new 0 0 3200 2000;" xml:space="preserve">
<style type="text/css">
	.st0{fill:#FFFFFF;}
	.st1{fill:#EBF3FA;}
	.st2{fill:#F2A16B;}
	.st3{fill:#FFB27D;}
	.st4{fill:#ED7D2B;}
	.st5{fill:#2358A5;}
	.st6{fill:#163560;}
	.st7{fill:#1C468A;}
	.st8{fill:#F99746;}
	.st9{fill:#FCA56B;}
	.st10{fill:#E8945B;}
	.st11{fill:#F2CCAA;}
	.st12{fill:#233862;}
	.st13{fill:#AFCDFB;}
	.st14{fill:#2B478B;}
	.st15{opacity:0.8;}
	.st16{fill:#EABE96;}
	.st17{fill:#F9DDBF;}
	.st18{fill:#EDCBAB;}
	.st19{fill:#202D4F;}
	.st20{fill:#ED985F;}
	.st21{fill:#FFF0E3;}
	.st22{fill:#2C3A64;}
	.st23{fill:#2E3552;}
</style>
<rect class="st0" width="3200" height="2000"/>
<g>
	<path class="st1" d="M2963.6,1630.2c-53.7,0-163.6,3.8-164.8,5.5h-277.2l-81.1-0.2h-726.5l-212.2-0.2H942.6l-233.6-0.2H286.6
		c0,0-0.7-1.4-2.1-4.2l-0.2-0.3c0,0-0.2-0.3-0.2-0.5c-0.9-1.4-351.5-553.4,227.3-825.5c226.5-106.5,107.1-319.1,442.4-447.9
		c432.2-166.1,550,75.2,1061.1,16.9c443.9-50.7,646.1,110.7,615,350.7c-14.6,112.7,85.8,199.1,184.9,214.6
		c273.4,42.8,263.6,293.2,241.3,477.2C3042.2,1529.5,2965.5,1630.2,2963.6,1630.2z"/>
	<path class="st2" d="M1312.1,1196.2c0,0-3.5-4.3-8.8-5.6c-5.3-1.3-16.6-6.9-15.3-4c1.3,2.9,7.7,6.4,6.6,8.5c0,0-18.1-5-18.6-1.9
		c-0.5,3.2,6.4,15.3,14.1,17.9c2.6,0.9,20.4-2.6,20.4-2.6L1312.1,1196.2z"/>
	<path class="st3" d="M1893.7,1249.8c0,0-7.1-7.7-16.6-6.5c-4.8,0.6-11.8-7-11.5-2c0.4,4.9,7.4,16.4,9.7,18.3c4.7,3.8,15,2.6,15,2.6
		l12.6,7.8L1893.7,1249.8z"/>
	<g>
		<path class="st4" d="M387.7,1039.6c0,0-52.2,54.1-54.7,74.5c-2.5,20.4,25,52.2,25,52.2L387.7,1039.6z"/>
		<path class="st5" d="M411.3,1600.8c0,0,1.8,28.7,7.4,29.1c0.7,0.1,28.2,0,28.2,0l35-0.3c0,0-0.2-8.4-10.5-10.2
			c-10.2-1.8-27.4-8.9-33.6-22.4C431.3,1582.8,411.3,1600.8,411.3,1600.8z"/>
		<path class="st5" d="M333.3,1601c0,0,1.8,28.7,7.4,29.1c0.7,0.1,28.2,0,28.2,0l35-0.3c0,0-0.2-8.4-10.5-10.2
			c-10.2-1.8-27.4-8.9-33.6-22.4C353.2,1582.9,333.3,1601,333.3,1601z"/>
		<path class="st6" d="M449.5,1292c0,0-9,58.6-43,162.7c-34,104.1-38.5,149.2-38.5,149.2l-36.7-0.9c0,0-0.6-113.7,15.1-166.1
			c15.6-52.4,3-188.6,3-188.6L449.5,1292z"/>
		<path class="st7" d="M467.2,1251.2c0,0,1.5,88.3-13.6,196.8c-15,108.5-9.8,154.5-9.8,154.5l-36.6,1.3c0,0-22.1-108.4-16-162.7
			c6.2-54.3-30.4-186.2-30.4-186.2L467.2,1251.2z"/>
		<path class="st3" d="M395.9,1044.7l19.5,12.7l28.2-5.3c-0.4-2.3-2.3-11.7-4-20.2c-0.1-0.5-0.2-1-0.3-1.5
			c-1.5-7.3-2.7-13.5-2.7-13.5l-26.3-11.6l-9.8-4.3c0,0.2,0.8,8.1,0.9,9.2C403.2,1030.8,395.9,1044.7,395.9,1044.7z"/>
		<path class="st4" d="M436.4,1038.2c-0.5-0.2-34-10-37.6-8.8c-3.6,1.2-5.8,8.2-5.8,8.2l54.6,12.2
			C447.7,1049.8,443.4,1041.1,436.4,1038.2z"/>
		<path class="st8" d="M347,1262.4c5.7,25.8,99.9,28.7,124.1,5.2c2.8-2.7,2.9-15.1,1.8-31.9c-2.1-32.7-8.8-82-9.1-107.1
			c-0.2-12.2-1.8-24.6-4.1-35.9c-4.8-24-12-42.9-12-42.9s-46-14.8-54.6-12.2C351.6,1049.9,341.2,1236.6,347,1262.4z"/>
		<path class="st4" d="M472.9,1235.7c-2.1-32.7-8.8-82-9.1-107.1c-0.2-12.2-1.8-24.6-4.1-35.9l-27.7-4.8
			C432,1087.9,405.2,1198.5,472.9,1235.7z"/>
		<path class="st3" d="M457.8,1190.1c0,0-1.9,4.5,2.1,7.5c4,3,6.5,7.9,5.6,11.5c-0.9,3.6-9.6,9.5-12.6,8.5c-3-0.9-9.2-5.6-8.5-7.5
			c0.7-1.9-4.2-16.6,3.2-22.3C455,1182.2,457.8,1190.1,457.8,1190.1z"/>
		<path class="st8" d="M426.5,1043.2c0,0,27,5,48.6,36.6c21.6,31.6,35.8,55.2,31.8,66.6c-3.9,11.4-40,51.1-46.2,51.1
			s-16.3-4.5-16.9-14.7c0,0,23.8-39.6,18.8-45.3c-2.1-2.4-31.5-26-35.9-14.7C419.5,1141.8,426.5,1043.2,426.5,1043.2z"/>
		<path class="st9" d="M403.3,1010.6c5.8,9.8,27.4,18.2,36.3,21.3c-0.1-0.5-0.2-1-0.3-1.5c-1.5-7.3-2.7-13.5-2.7-13.5l-26.3-11.6
			C404.4,1005.3,400.9,1006.6,403.3,1010.6z"/>
		<path class="st3" d="M446.5,1015.3c0,0-42.4,13.3-50.3-13.2c-7.9-26.5-18.7-42.7,8.1-52.3c26.7-9.6,35-1.1,39.8,7.1
			C448.9,965.2,457.3,1011.1,446.5,1015.3z"/>
		<path class="st6" d="M442.4,954.4c0,0-2.6,30.9-9,29.6c-6.4-1.3-12.2-2.3-11.2,7c1,9.3,9.8,20-9.8,21.7
			c-19.7,1.7-48.1-49-42.7-58.6C385.2,926.3,464.9,920.5,442.4,954.4z"/>
	</g>
	<g>
		<path class="st3" d="M2657.8,1148.1c0,0-3.6-6-5.8-9.3c-2.2-3.3-6.6-7.4-7.7-6.4c-1.1,1.1,3.4,5.4,3.2,6.9
			c-0.2,1.5-7.8-3.4-8.6-4.5c-1.6-2.2-6-4.6-6.5-1.8c-0.5,2.8,2.7,11.5,4.1,14c1.5,2.5,7.6,6.5,10.9,7.7c3.4,1.2,9.1,4,9.1,4
			L2657.8,1148.1z"/>
		<path class="st6" d="M2811.1,952.1c-12.9-6.7-23.2-2.5-23.2-2.5c-39.4-4.6-51,41.4-50.4,57.2c0.5,15.8,2.3,32.8-15.3,53.4
			c-50.9,59.4,55.7,62,55.7,62c0.9-47.5,57.8-30.1,55.3-25.3C2906,1114.4,2840.4,967.4,2811.1,952.1z"/>
		<path class="st8" d="M2759.2,1153.4c0,0-3.8,7.5-10.6,16c-8.2,10.3-21,22.3-36.9,24.6c-7.6,1.1-15.1-0.5-21.9-3.6c0,0,0,0,0,0
			c-19.4-8.6-34-28.4-34-28.4c-3.4-9.3,2.2-15.6,2.2-15.6s39.1,8.8,42.9,6.9c3.7-1.9,25.5-64.5,30.6-72.4c5.2-7.9,22.8-12,22.8-12
			L2759.2,1153.4z"/>
		<path class="st4" d="M2748.6,1169.5c-8.2,10.3-21,22.3-36.9,24.6c-7.6,1.1-15.1-0.5-21.9-3.6c0.8,0.1,20.1,2.5,27.8-11.3
			c7.9-14.1,16.4-36.4,28.1-29C2750.7,1153.4,2750.5,1161.4,2748.6,1169.5z"/>
		<path class="st5" d="M2905.2,1575.8c0,0,11.9,10.9,9.6,18.6c-2.3,7.7-13.1,12.9-14.6,22.4c-1.5,9.5-7.3,14.6-12.5,14.6s-25,0-25,0
			s-3.9-6.7,5.5-8.7c9.3-2,12.8-13.1,12.3-23.5c-0.6-10.3,0.9-24.1,0.9-24.1l19.8-4.6L2905.2,1575.8z"/>
		<path class="st5" d="M2804.2,1580.5c0,0,4.3,46.2-0.9,48.7l-67.1-0.1c0,0,0-7.7,10.8-9.5s29.7-8,32.9-22.1
			S2804.2,1580.5,2804.2,1580.5z"/>
		<path class="st3" d="M2852,1249.3c-13.8-31-22.3-39.8-20.6-49.5c1.2-7.2-3.7-133.4-3.7-133.4c-1.6-0.5-4.9-1-6.7-1.4
			c-5.7-1.3-10.3-5.2-12.3-10.7c-2.3-6.6-4.2-16.3-4.2-28.5l-1.8,0.3l-29.7,5.9c0,0,0.7,9.4,0.7,18.2c0,0.1,0,0.1,0,0.2
			c0,7.7-5,14.4-12.3,16.5c-3.8,1.1-7,2-7,2s-10.9,31.2-13,63.2c-2.1,32,19.9,45.9-0.2,109.9
			C2720.7,1307.6,2859.6,1266.4,2852,1249.3z"/>
		<path class="st10" d="M2773,1032.1c0,0,0.7,9.4,0.7,18.2c16.6-0.5,25.4-15.6,29-24.1L2773,1032.1z"/>
		<path class="st3" d="M2767.4,1040.5c0,0,39.4,0.6,39.4-23.9c0-24.5,5.1-41-20-42.4c-25.1-1.5-30,7.9-32,16.1
			S2757.2,1039.7,2767.4,1040.5z"/>
		<path class="st6" d="M2768.9,973.6c0,0,10.8,28.8,27.3,33c16.5,4.3,23.7-0.2,23.7-0.2s-12.7-10.1-15.3-27.7
			C2804.6,978.8,2777,959.9,2768.9,973.6z"/>
		<path class="st6" d="M2771.5,975.9c0,0-8,3-11.3,8.8c-3.2,5.7-6,13.3-5.3,22.5c0,0-8.1-19.6,1-30.6
			C2765.6,964.9,2771.5,975.9,2771.5,975.9z"/>
		<path class="st1" d="M2776,1025.3c0,0-2.7,3.6-8.2,3.3c-4.4-0.2-6.1-4-6.1-4S2769.8,1022.7,2776,1025.3z"/>
		<path class="st8" d="M2855.8,1122.3c0,0,1,14.1,0,31c-0.7,11.2-12,26.2-13.6,29.9c-4,9.3-8.6,10.8-8.6,10.8l-35.2,8.6l-12.4,3
			l-39.1-11.7c0,0-17.8-49.7-10.6-77.6c7.1-28,18.1-47.4,18.1-47.4s31.9,31.2,73.4-2.6L2855.8,1122.3z"/>
		<path class="st11" d="M2845.5,1157.9c-0.7,11.2-1.7,21.7-3.3,25.4c-4,9.3-8.6,10.8-8.6,10.8l-35.2,8.6l-15.3-4.5
			c0,0,51.1-7.7,45.4-51.7L2845.5,1157.9z"/>
		<path class="st6" d="M2749.4,1201.6c0,0-19.3,60.2-20.6,80.7s37,291.2,38.5,300.6c1.4,8.9,12.5,14.6,12.5,14.6s5.1,3,12.3,1
			c10.1-2.8,13.3-6.2,13.3-6.2s15.1-193.1,5.7-262c-9.3-69-9.4-128.6-9.4-128.6H2749.4z"/>
		<path class="st7" d="M2831.3,1199.8c0,0,29.5,39.6,32.3,66.4c2.8,26.8,4.3,120.8,10.2,146.9c5.9,26.1,27.4,76.3,27.4,157.7
			c0,0-2.2,4.7-9.1,7.1c-2.2,0.8-5.2,1.6-8,2.2c-5.7,1.3-11.5-1.5-14.1-6.7c-14.6-29.3-60.9-123.8-63.3-143.5
			c-1.7-13.9-16.3-105.8-48.3-159.7c-7.7-12.9,4.7-64.4,4.7-64.4L2831.3,1199.8z"/>
		<path class="st0" d="M2775.1,1025.9c0,0-0.7,2.9-7.9,2.4c0,0-6-0.4-5.9-3.5C2761.4,1024.8,2767.2,1022.6,2775.1,1025.9z"/>
		<path class="st12" d="M2746.3,1192.3c0,0,7.8,6.1,23.2,6.5c18.4,0.4,64.1-4.7,64.1-4.7s2,5.7,1.9,11.7c0,0-55.8,14.1-88.1,2.1
			C2747.4,1207.8,2743.3,1199.9,2746.3,1192.3z"/>
		<g>
			<path class="st0" d="M2765,1214.6c-4.6,0-8.4-4.3-8.4-9.5c0-5.2,3.8-9.5,8.4-9.5c4.6,0,8.4,4.3,8.4,9.5
				C2773.5,1210.4,2769.7,1214.6,2765,1214.6z M2765,1198.4c-3.1,0-5.6,3-5.6,6.7c0,3.7,2.5,6.7,5.6,6.7s5.6-3,5.6-6.7
				C2770.7,1201.4,2768.1,1198.4,2765,1198.4z"/>
		</g>
		
			<rect x="2793.1" y="1137.1" transform="matrix(0.7542 -0.6567 0.6567 0.7542 -84.8167 2151.3655)" class="st13" width="75.8" height="103.7"/>
		<path class="st3" d="M2820.7,1203.4c0,0-22.2,3.4-22.1,8.4c0.1,5,4.6,14,9.1,14.7c5.7,0.9,17-13.8,17-13.8L2820.7,1203.4z"/>
		<path class="st3" d="M2820.2,1204.5c0,0-7.4-2.7-12.9-1.6c-5.5,1.1-10.5,0.3-9.3,2.3c1.2,2,8.6,1.2,9.8,2c1.2,0.8,1.2,0.3,1.2,0.3
			L2820.2,1204.5z"/>
		<path class="st8" d="M2827.7,1066.4c0,0,27.9,2,38.7,28c10.7,26,31,69.8,31,77.1c0,7.4-11.4,30-72.3,43.1c0,0-6.3-6.6-5.9-11.9
			c0,0,38.1-32.7,38-36.5c-0.2-7.2-6.2-16.8-39.7-50.2C2808.3,1106.9,2827.7,1066.4,2827.7,1066.4z"/>
	</g>
	<g>
		<path class="st14" d="M1046,1631c-14.7,0-29.4-1.3-43.8-3.9c-13.2-2.4-26.1-5.8-38.6-10.3c-19.5,1.8-39.1,1.9-58.6,0.1
			c-60-5.6-115.1-23.6-160.8-51.6c-10.9,2.4-22.1,3.2-33.6,2.6c-28-1.5-54.6-12-78.9-31.3c-23.1-18.4-43.1-43.8-59.3-75.4
			c-28.5-55.5-42.6-125.3-39.7-196.5c3.2-78.8,26.8-154.6,68.3-219.2c32.6-50.8,68.7-90.3,107.2-117.3
			c33.3-23.4,69.4-38.1,107.3-43.7c10.6-1.6,21-2.4,31.4-2.6c33-19.7,71-34.4,110.8-42.6c46.7-9.5,117.6-11.8,190.7,31.9
			c75.9,45.4,136.7,130,180.6,251.3c2.5,6.9,4.8,13.9,7,20.8c10.1,5.2,20.9,11.1,33.1,17.6l0.8,0.4c37.9,20.4,97.1,36.8,158.3,43.8
			c51,5.8,126.8,7.8,198.1-15.5c66.6-21.8,113.7-60.7,139.9-115.6l5.7,2.7c-27,56.6-75.3,96.6-143.6,118.9
			c-72.4,23.6-149.1,21.6-200.8,15.7c-62-7-122-23.7-160.6-44.5l-0.8-0.4c-10-5.4-19.1-10.3-27.5-14.7
			c17.6,60.9,21.1,120.4,10.1,177.3c-11,57.5-36.6,109.7-74,151.1c-10.9,12-22.6,22.9-34.8,32.5c-0.9,1.9-1.7,3.7-2.6,5.6
			c4.4,8.3,7,16.3,6.5,23.3c-0.8,11.4-13.7,21.4-38.4,29.7c-2,0.7-4.1,1.4-6.3,2c-20.2,20.4-44.5,35.4-73,44.8
			C1099.9,1626.7,1072.9,1631,1046,1631z M978.6,1615.1c8.1,2.4,16.3,4.3,24.6,5.8c39.9,7.2,81.6,4.1,120.6-8.8
			c23.5-7.8,44.3-19.6,62-35.2c-33.4,8.3-78.4,13.8-126.9,15.7c-1.9,0.8-3.8,1.6-5.7,2.4C1029.2,1604.7,1004.1,1611.4,978.6,1615.1z
			 M752.8,1563.2c43.8,25.7,96.1,42.2,152.7,47.4c14.7,1.4,29.5,1.7,44.3,0.9c-16.2-6.9-31.4-15.5-45.5-25.7
			c-22.9-3.2-43.9-7.3-62.4-12.2c-24.2-6.5-44.1-14.3-59.5-23.4C772.9,1555.8,763,1560.1,752.8,1563.2z M918.1,1587.5
			c14.4,9.3,29.9,17,46.2,22.9c25.9-2.6,51.5-8.4,76-17.3c-23.7,0.5-47.9,0.1-71.9-1.3C951.1,1590.9,934.2,1589.4,918.1,1587.5z
			 M906.8,1579.7c19.3,2.6,40,4.5,62,5.8c29.6,1.6,59.7,1.9,88.6,0.8c17.7-7.7,34.3-16.9,49.8-27.5c-8.5-0.6-16.8-1.8-24.9-3.9
			c-19-4.8-34.7-16.1-47.4-34.8c-19.8,0.6-40.1-0.6-60.8-3.4c-49.3-6.9-89.7-21.9-120.7-44.7c-5.1,9-10.2,17-15.2,24.1
			c13.9,29.7,33.7,55.2,59,76.1C900.3,1574.8,903.5,1577.3,906.8,1579.7z M1117.7,1559.1c-13.5,9.9-28.1,18.7-43.6,26.4
			c47.7-2.6,90.9-8.8,121.3-17.8c6-6.2,11.6-12.8,16.7-19.9c6-8.3,11.5-17.3,16.5-27c-15.1,10.5-31,19.1-47.3,25.5
			C1160,1554.7,1138.4,1559,1117.7,1559.1z M788.6,1546.3c24.7,13.8,60.7,24.6,105.5,31.6c-0.3-0.3-0.6-0.5-0.9-0.8
			c-25.1-20.7-45-46-59.2-75.1c-6.7,9-13.2,16.4-19,22.3C806.5,1532.9,797.7,1540.2,788.6,1546.3z M1233.5,1525.4
			c-7.5,14.2-16,26.9-25.7,38.3c18.6-6.9,29-14.8,29.5-22.5C1237.5,1536.8,1236.2,1531.5,1233.5,1525.4z M836,888.7
			c-6.9,0.5-13.5,1.3-19.7,2.2c-36.9,5.5-72.1,19.8-104.6,42.6c-37.8,26.5-73.3,65.4-105.5,115.5c-40.8,63.6-64.1,138.3-67.3,216
			c-2.8,70.1,11,138.7,39,193.3c15.8,30.9,35.2,55.5,57.6,73.4c23.2,18.5,48.6,28.6,75.2,30c8.7,0.4,17.1,0,25.4-1.3
			c-28.8-18.8-53.5-41.7-73-68.1c-9.9-13.4-18.3-27.4-25.2-42.1c-21.6-11.6-39.3-28.4-52.9-50.3c-18.9-30.3-28.8-68.9-28.8-111.7
			c0-18,1.9-36.3,5.4-54c-2-51.6,19.3-111.4,60.1-168.6C661,1010.7,712,966.7,762,944.8c5.6-2.4,11.1-4.6,16.5-6.4
			c7.1-8.2,14.9-16,23.2-23.4C812.2,905.5,823.7,896.8,836,888.7z M647.4,1454.8c6,11.7,13,22.9,21,33.7
			c20.3,27.4,46.4,51,76.9,70.1c10.7-2.6,21.1-6.7,31.1-12.3c-7.3-4.9-13.4-10.1-18.2-15.6c-17.2-19.7-32.4-40.4-44.9-61.1
			c-10.5-0.6-20.9-1.8-31.4-3.9C669.6,1463.2,658.1,1459.6,647.4,1454.8z M1042.5,1519.8c11.4,15.4,25.1,24.9,41.4,29
			c10.2,2.6,20.9,3.9,31.8,4c18.3-13.6,34.6-29.2,48.5-46.4c7.3-9.1,13.9-18.5,19.7-28.3C1141.9,1503,1093.8,1517.2,1042.5,1519.8z
			 M1193.7,1473.7c-6.9,12.7-15.1,25-24.6,36.7c-12.4,15.4-26.7,29.5-42.6,42.1c17.2-1.1,34.9-5.1,52.6-12.1
			c16.6-6.5,32.8-15.4,48.1-26.4c-6-9.5-14.6-20.3-25.7-32.1C1199.1,1479.2,1196.4,1476.5,1193.7,1473.7z M720.8,1469.8
			c11.8,19,25.9,38,42.1,56.6c5,5.7,11.5,11.1,19.5,16.2c9.7-6.1,19-13.7,27.9-22.8c6.3-6.4,13.2-14.4,20.5-24.4
			c-1.9-4.3-3.7-8.7-5.4-13.1c-1.8-4.6-3.4-9.3-4.8-14.1c-2.3-0.5-4.6-1.1-6.8-1.7c-5.7-1.6-11.2-3.6-16.5-6.1
			C772.6,1466.8,746.8,1470.4,720.8,1469.8z M861.9,1470.2c29.5,20.3,67.4,33.8,113.1,40.2c18.9,2.6,37.6,3.8,55.9,3.5
			c-8.2-13.6-15.1-30.5-20.9-51c-0.7-2.6-1.5-5.2-2.2-7.9c-8.4-1.2-16.9-2.6-25.3-4.4c-10.9-2.3-21.3-5.2-31.1-8.6
			c-19.6,9.5-39.6,17.6-59.4,22.8C881.4,1467.4,871.4,1469.3,861.9,1470.2z M1014.5,1455.8c0.5,1.8,1,3.6,1.5,5.3
			c6.2,21.6,13.5,39,22.2,52.5c54.9-2.2,106-17.7,149.8-45.5c-8.6-8.4-18-16.9-28.1-25.4c-9.2,2.8-18.5,5.2-27.8,7.3
			C1093.4,1458.5,1053.9,1460.5,1014.5,1455.8z M1198.1,1469.1c2.8,2.8,5.5,5.7,8.1,8.5c9,9.6,18.8,21.2,26.2,32.7
			c0.7-0.5,1.4-1.1,2.1-1.6c8.6-19.3,15.3-41,20.2-65c2-9.8,3.6-20,4.9-30.6c-9.6,11.7-20.3,22.8-31.8,33
			C1218.4,1454.4,1208.4,1462.1,1198.1,1469.1z M1267.1,1403.6c-1.5,14.5-3.6,28.3-6.2,41.3c-4,20-9.3,38.5-16,55.3
			c8.6-7.4,17-15.5,24.8-24.2c36-39.9,60.9-90.1,72-145.4c-10.3,10.6-30.7,30.3-59.6,51C1277.5,1389.1,1272.5,1396.5,1267.1,1403.6z
			 M827.7,1469.5c1.2,3.5,2.4,7.1,3.7,10.5c1.2,3.1,2.4,6.2,3.8,9.3c3.8-5.6,7.7-11.7,11.6-18.4
			C840.2,1470.9,833.9,1470.4,827.7,1469.5z M825.6,1462.7c5.9,1.1,12,1.7,18.3,1.8c-5.2-4.4-10-8.9-14.6-13.8
			c-2.1,0.7-4.2,1.5-6.4,2.2C823.8,1456.2,824.7,1459.5,825.6,1462.7z M872.7,1432.7c-4.9,11.5-9.9,22-15,31.4
			c10.3-0.8,21.2-2.6,32.5-5.6c17.5-4.6,35.3-11.5,52.8-19.7c-14.8-5.8-28.2-13.1-40.2-21.6C893.3,1422.5,883.3,1427.7,872.7,1432.7
			z M716.9,1463.4c24.3,1,48.5-1.9,71.9-7.3c-15.9-9.1-30.1-22.4-42.4-39.7c-6.7-9.4-12.7-19.3-17.9-29.5
			c-14.3-2.6-28.7-6.2-43.3-10.8c-1-0.3-2-0.6-3.1-1C686.6,1402.2,698.6,1432.6,716.9,1463.4z M1167.1,1440.4
			c8.9,7.6,17.2,15.2,24.9,22.7c6.1-12.3,11.1-25,14.8-38.1C1193.7,1431,1180.5,1436.1,1167.1,1440.4z M642.9,1445.6
			c12.2,6.3,25.6,10.9,40.2,13.8c8.7,1.7,17.5,2.9,26.2,3.5c-6.3-11-11.9-21.9-16.7-32.7c-8.9-20.2-14.7-39.6-17.4-57.6
			c-18.6-6.6-38-15.9-55.4-28.7C620.6,1380.1,628.4,1414.3,642.9,1445.6z M835.9,1448.4c4.9,5,10.1,9.7,15.6,14.1
			c4.2-7.8,8.5-16.4,12.6-25.7C855,1440.9,845.5,1444.8,835.9,1448.4z M807.3,1457.8c3.7,1.4,7.4,2.5,11.3,3.5
			c-0.6-2.1-1.1-4.2-1.7-6.4C813.7,1455.9,810.5,1456.8,807.3,1457.8z M1214.4,1421.6c-3.4,13-7.9,25.6-13.6,37.9
			c7.9-5.6,15.5-11.7,22.8-18.2c13.8-12.2,26.3-25.7,37.3-40.2c0.2-1.9,0.4-3.8,0.5-5.7c-4.4,2.8-8.9,5.5-13.5,8.3
			C1236.9,1410.3,1225.7,1416.2,1214.4,1421.6z M736.3,1388.1c4.5,8.5,9.6,16.7,15.2,24.5c13.4,18.9,28.8,32.6,46.4,41.1
			c5.9-1.5,11.7-3.2,17.5-5.1c-1.5-6.5-2.7-13.1-3.6-19.8c-0.4-0.5-0.7-1.1-1.1-1.6c-7.1-10.9-13.1-22.7-18-35.4
			C774.2,1392.4,755.4,1391.1,736.3,1388.1z M1012.8,1449.2c39.5,5,79.1,3.2,118-5.4c7.8-1.7,15.6-3.7,23.3-6
			c-26.6-22.1-57.2-44-88.6-63.4c-6.9,4.3-14.2,8.9-21.8,13.8c-12.1,7.7-25.1,15.9-38.6,24.1
			C1007.4,1425.2,1009.9,1437.5,1012.8,1449.2z M959.4,1437.9c7.8,2.5,15.9,4.6,24.4,6.4c7.4,1.6,14.9,2.9,22.3,4
			c-2.5-10.3-4.8-21.2-6.8-32.5C986.4,1423.4,973,1431,959.4,1437.9z M820.2,1440.2c0.4,2.2,0.9,4.4,1.3,6.5
			c1.1-0.4,2.1-0.7,3.2-1.1C823.1,1443.9,821.6,1442,820.2,1440.2z M817.9,1426.5c4,5.9,8.5,11.5,13.2,16.8
			c12.7-4.6,25-9.8,36.7-15.3c4-9.6,7.9-19.9,11.6-31c-1.3-1.4-2.6-2.8-3.9-4.2c-3.7-4.1-7.1-8.4-10.3-12.9c-3,0.9-5.9,1.8-8.9,2.6
			c-13.4,3.6-27.1,6.2-40.9,7.7C815.5,1402.6,816.3,1414.7,817.9,1426.5z M564.5,1258.1c-1.2,10-1.8,20.2-1.8,30.2
			c-0.1,41.7,9.6,79.1,27.8,108.4c11.4,18.3,25.8,32.9,43.1,43.7c-13.3-31.4-20-65.4-20.2-101.3
			C590.1,1320,571.4,1293.9,564.5,1258.1z M1071.6,1370.7c32,19.9,63,42.3,89.8,64.9c16-5,31.9-11.2,47.5-18.5
			c5.8-23.5,7.8-47.9,5.9-72.9c-9.7,7.9-19.9,14.3-30.5,18.8c-28.4,12.2-54.3,12.7-76.8,1.3c-4.2-2.1-8.2-4.6-12-7.4
			C1088.2,1360.8,1080.2,1365.5,1071.6,1370.7z M909,1413.7c12.5,8.5,26.5,15.6,42,21.3c16.1-8,32-16.9,47.2-26
			c-2.8-16.4-5.2-33.7-7.3-51.6c-11.6,9.4-23.5,18.4-35.6,26.9C942.4,1393.4,926.7,1403.6,909,1413.7z M884.5,1402.1
			c-2.6,7.7-5.4,15-8.1,21.9c7.2-3.6,14.2-7.2,20.9-10.9C892.8,1409.6,888.5,1405.9,884.5,1402.1z M799.4,1391.5
			c3.1,7.9,6.7,15.4,10.7,22.5c-0.7-7.6-1-15.3-1.1-23.2C805.9,1391.1,802.6,1391.4,799.4,1391.5z M1220.8,1339.1
			c2.4,25.5,0.9,50.5-4.4,74.5c9.6-4.7,19.1-9.8,28.4-15.3c6-3.6,11.8-7.2,17.4-10.8c2.4-31.3,2.3-65.6-0.3-102.8
			C1250.4,1306.5,1236.4,1324.9,1220.8,1339.1z M886.7,1395.4c5.2,5.1,10.7,9.9,16.6,14.3c18.6-10.5,34.9-21.2,48.2-30.5
			c13.5-9.4,26.3-19.2,38.4-29.1c-0.6-5.5-1.3-11.1-1.9-16.7c-7.1-3.1-13.9-5.9-20.6-8.4c-23.1,18.5-47.4,33.3-72.8,44.3
			C892.1,1378.4,889.4,1387.1,886.7,1395.4z M996.6,1352.7c2.2,18.3,4.6,36,7.3,52.8c12.7-7.7,24.9-15.4,36.4-22.7
			c6.6-4.2,13-8.3,19.2-12.1c-1.7-1-3.4-2-5.1-3c-15.8-9.4-31.2-17.7-46-25C1004.5,1346.1,1000.6,1349.4,996.6,1352.7z
			 M1268.3,1391.1C1268.3,1391.1,1268.3,1391.1,1268.3,1391.1C1268.3,1391.1,1268.3,1391.1,1268.3,1391.1
			C1268.3,1391.1,1268.3,1391.1,1268.3,1391.1z M871.6,1377.9c2.7,3.7,5.6,7.3,8.7,10.7c0.5,0.5,0.9,1,1.4,1.5
			c1.9-5.8,3.7-11.7,5.4-17.9C882,1374.3,876.8,1376.2,871.6,1377.9z M732.7,1381.1c19.6,3.4,38.8,4.9,57.7,4.4
			c-11.5-33.3-15.7-72.7-12.6-117.9c-3.2-2.9-6.2-5.9-9.1-9c-1.8-1.9-3.5-3.9-5.2-6c-14.4,6.7-27.1,13.1-37.5,18.9
			c-6.4,3.6-12.1,7.6-17.1,12c0,0.7,0,1.4,0.1,2.1C710.1,1319.2,718.2,1351.7,732.7,1381.1z M783.8,1272.8
			c-2.5,43.2,1.9,80.8,13.2,112.5c4-0.2,8-0.5,12-0.8c0.2-12.1,1.1-24.5,2.7-37.1c0.1-2.4,1.2-23.4,9.7-52.1
			C807.7,1289.5,795.1,1282,783.8,1272.8z M827.4,1297.6c-8.4,28.8-9.3,49.8-9.3,50.1l0,0.3c-1.6,12.2-2.5,24.1-2.7,35.8
			c13.3-1.5,26.4-4,39.2-7.4c2.3-0.6,4.5-1.3,6.8-1.9c-14.1-21.5-23.2-46.8-26.5-74.2C832.4,1299.4,829.9,1298.6,827.4,1297.6z
			 M1267.4,1273.6c3.1,39.7,3.6,76.2,1.4,109.5c2.9-2,5.8-4,8.6-5.9c28.3-46.3,43.3-100.6,42.4-156.9c-0.4-25.6-8-42.8-23.1-52.7
			c-1.6-1.1-3.3-2-5.1-2.9C1291.9,1200.7,1283.3,1239.6,1267.4,1273.6z M681,1367.9c2,0.7,4,1.3,6,2c12.7,4,25.4,7.3,37.9,9.7
			c-13.1-28-20.7-58.6-22.3-90.3c-11.2,11.9-18.3,26.4-21.2,43.3C679.6,1343.6,679.5,1355.4,681,1367.9z M841.6,1302.2
			c3.6,26.1,12.5,50,26.2,70.3c7.2-2.3,14.4-5,21.5-8c5.2-19.1,9.2-37.9,12.1-55.3c-2.3-0.1-4.6-0.2-6.9-0.2
			C875.7,1309,858,1306.7,841.6,1302.2z M1291.4,1157.6c3.1,1.3,6.1,2.9,8.8,4.7c16.8,10.9,25.5,30.4,26,57.9
			c0.9,52.4-11.8,103.1-36,147.5c31.4-24,50.3-44.8,53.7-48.7c9-55,4.6-112.4-13.3-171.2c-15.6-8-29.1-14.3-42.5-19.1
			c1.6,8.5,2.7,17.3,3.2,26.4C1291.4,1155.9,1291.4,1156.8,1291.4,1157.6z M1013.5,1338.2c14.2,7,29,15.1,44.1,24
			c2.6,1.6,5.3,3.1,7.9,4.7c8.7-5.4,16.9-10.2,24.4-14.2c-14.1-11.8-26.1-28.3-36.6-47.9c-2.3,0.6-4.5,1.2-6.8,1.7
			C1036.4,1317.1,1025.2,1327.8,1013.5,1338.2z M1101.9,1353.8c2.8,1.8,5.6,3.5,8.4,4.9c21.1,10.6,44.4,10.1,71.4-1.5
			c11.3-4.8,22.1-11.8,32.3-20.7c-1.8-17.1-5.5-34.5-11-51.9c-2.2-7-4.8-13.6-7.7-19.9c-29.1,44.2-61,76.2-85.4,85.7
			C1107.4,1351.3,1104.7,1352.5,1101.9,1353.8z M619.8,1336c15.1,11.8,33.3,21.7,54.6,29.6c-1.2-12.1-1-23.5,0.9-33.9
			c3.5-20.4,12.6-37.4,27.2-51c-0.6-38.1,7.1-76.3,22.5-111.1c-4-19-6.1-39.6-6.1-61.6c-6.7-0.3-13.3-0.4-19.8-0.3
			c-35.4,50.9-60.4,108.3-72.4,166C622.2,1294.9,619.9,1315.8,619.8,1336z M907.8,1309.7c-2.8,16.4-6.4,33.8-11.1,51.6
			c22.1-10,43.3-23,63.6-38.9C941,1315.6,923.3,1311.3,907.8,1309.7z M1059.7,1302.9c11.2,20.7,23.2,36.1,36.4,46.6
			c4.1-2,7.9-3.8,11.5-5.1c23-8.9,54.7-41,82.8-83.8c0.5-0.8,1.1-1.7,1.6-2.5c-8.6-16.1-19.7-29.7-33.5-40.8
			c-8,17.5-20.5,34.4-36.6,49.1C1103.4,1283.3,1081.6,1295.9,1059.7,1302.9z M994.7,1336.3c0.3,3,0.7,5.9,1,8.9
			c2.2-1.8,4.3-3.6,6.4-5.5C999.7,1338.5,997.2,1337.4,994.7,1336.3z M993.9,1329c4.4,2,8.9,4,13.4,6.2c10.2-9,19.7-18,28.5-26.8
			c-8.4,1.1-16.6,1.3-24.5,0.6c-6.5-0.6-12.5-3.1-18.1-7c-0.7,0.7-1.3,1.3-2,1.9C992.2,1312.4,993,1320.7,993.9,1329z
			 M1199.4,1258.4c3.8,7.6,7,15.7,9.8,24.2c5.2,16.3,8.7,32.5,10.8,48.5c14.9-14.4,28.2-32.8,39-54.5c0.7-1.4,1.4-2.9,2.1-4.3
			c-2-25.2-5.2-51.6-9.4-79.3c-1.5-10-3.5-19.9-6-29.6C1234.6,1195.4,1218.8,1227.8,1199.4,1258.4z M568.2,1234.7
			c0,0.6,0.1,1.2,0.1,1.9c1.6,30.2,11.6,56.6,29.7,78.4c4.6,5.6,9.8,10.9,15.5,15.9c0.4-19,2.7-38.6,6.9-58.5
			c11.9-57.1,36.3-113.8,70.7-164.4c-11.9,0.6-23.5,2-34.7,4.2c-25.6,5-49.4,26.5-67,60.6C580,1191.1,572.7,1212.4,568.2,1234.7z
			 M973,1320.3c4.7,1.8,9.4,3.7,14.2,5.8c-0.6-5.5-1.2-11.1-1.8-16.7C981.4,1313.1,977.2,1316.8,973,1320.3z M908.8,1303.5
			c16.9,1.8,36.2,6.6,57.3,14.3c5.9-4.9,11.8-10,17.5-15.4c0.3-0.3,0.7-0.6,1-0.9c-0.3-2.7-0.5-5.3-0.8-8
			c-8.5-9.3-16-22.1-23.1-36.9c-16.3,4.7-29.5,6.6-38.4,4.4c-2.6-0.6-5.5-1.4-8.5-2.3C913,1272,911.4,1287.1,908.8,1303.5z
			 M997.9,1297.5c4.4,2.9,9.1,4.8,14.1,5.2c10,0.9,20.6,0.2,31.4-2c1.8-1.8,3.5-3.7,5.2-5.5c-5.7-11.7-10.8-24.3-15.7-37.6
			C1021.8,1271.9,1010.1,1285.2,997.9,1297.5z M840.8,1295.4c16.6,4.8,34.6,7.3,53.8,7.3c2.6,0,5.2,0.1,7.9,0.3
			c2.7-17,4.4-32.6,5.2-46.2c-14.8-4.9-32.9-12.7-51.2-23.5c-2.7,4.3-5.4,8.7-7.9,13.2c-3.2,5.7-6,11.4-8.5,17
			C839.5,1274.2,839.7,1284.9,840.8,1295.4z M1056.2,1296.2c0.2,0.3,0.3,0.7,0.5,1c21.4-6.7,42.8-19,61-35.6
			c15.9-14.5,28.1-31.1,35.7-48.3c-9.4-6.9-20-12.6-31.6-17.2c-1.4-0.5-2.8-1.1-4.2-1.6c-3.3,1.3-6.7,2.7-10,4
			c-1.2,10.7-3,20.3-5,28.3C1098.3,1243.2,1081.4,1268.5,1056.2,1296.2z M989.9,1290.8c1,1,1.9,1.9,2.9,2.8
			c13.1-13.1,25.7-27.6,37.5-43.1c-2-5.7-3.9-11.5-5.7-17.4c-13.9,5.7-27,10.9-39.1,15.3c1.5,13.5,2.8,27,4.2,40.4
			C989.8,1289.4,989.9,1290.1,989.9,1290.8z M829.3,1291.5c1.6,0.6,3.3,1.2,4.9,1.7c-0.4-4.6-0.6-9.1-0.8-13.8
			C831.9,1283.6,830.6,1287.6,829.3,1291.5z M1037.5,1251.6c2.5,7,5.1,13.9,7.8,20.5c2.6,6.3,5.2,12.3,7.9,18
			c23.9-26.6,39.4-50,43.2-64.9c1.8-6.9,3.3-15,4.5-24c-13.7,5.6-27.3,11.3-40.4,16.8C1053.2,1229.6,1045.5,1240.9,1037.5,1251.6z
			 M784.3,1264.9c11.5,10,24.6,18.1,39,24.2c2.8-8.6,6.2-17.8,10.5-27.3c0.8-13.1,2.7-26.4,5.7-39.5c-0.2-0.1-0.4-0.3-0.6-0.4
			c-18.4,6.6-36.1,13.5-52.3,20.4C785.7,1250,784.9,1257.5,784.3,1264.9z M966.9,1254.7c5,10.4,10.2,19.8,15.8,27.3
			c-1.1-10.5-2.2-21-3.3-31.5C975.1,1252.1,970.9,1253.5,966.9,1254.7z M727.4,1180c-12,30-18.5,63-18.7,95.3
			c4.3-3.4,9-6.5,14.1-9.3c10.1-5.7,22.5-11.9,36.5-18.5C744.8,1228.6,734.1,1205.9,727.4,1180z M1250.7,1158.1
			c3,11.1,5.4,22.5,7.2,34.1c3.6,23.6,6.4,46.4,8.4,68.2c12.9-31.4,19.6-66.2,18.9-98.3C1275.4,1158.7,1263.7,1157.5,1250.7,1158.1z
			 M769.4,1249.9c1.3,1.5,2.6,3,3.9,4.4c1.7,1.8,3.3,3.5,5.1,5.2c0.4-4.7,0.9-9.4,1.5-14.3C776.3,1246.8,772.8,1248.3,769.4,1249.9z
			 M914.2,1252.2c3.5,1.1,6.7,2,9.7,2.7c7.6,1.8,19.4,0.1,34.1-4.1c-6.7-14.7-13.1-31-19.6-47.6c-1.2-3-2.4-6-3.5-9
			c-9.3,2-18.3,4.2-26.8,6.4c3.4,8.3,5.5,16.7,6.1,25.3C914.7,1233,914.7,1241.9,914.2,1252.2z M1161.2,1211.2
			c14.1,11.1,25.7,24.7,34.8,40.7c18.8-30.1,34-61.9,44.5-93.1c-21.5,2.3-46,8.6-71.5,16.9
			C1168.5,1187.6,1165.8,1199.5,1161.2,1211.2z M859.9,1227.9c17.1,10.1,34,17.4,48.1,22.2c0.4-9.2,0.3-17.3-0.2-23.9
			c-0.6-8.2-2.6-16.2-5.9-24.1c-9.7,2.6-19.3,5.4-28.9,8.4C868.4,1216.1,864,1221.9,859.9,1227.9z M941.2,1192.7
			c1.1,2.7,2.1,5.4,3.2,8.1c6.6,16.9,13,33.4,19.8,48.1c4.6-1.4,9.5-3,14.5-4.8c-2.1-19-4.3-38.1-7-56.9
			C961.3,1188.8,951.1,1190.7,941.2,1192.7z M845.2,1226.2c-1.4,6.5-2.6,13.1-3.5,19.6c0.4-0.8,0.9-1.6,1.3-2.4
			c2.5-4.6,5.2-9.1,8-13.5C849.1,1228.7,847.1,1227.5,845.2,1226.2z M731.5,1170.2c6.4,29,17.8,54.1,33.7,74.5
			c5-2.3,10.2-4.6,15.5-6.9c2.5-19.3,6.2-39.5,11.1-60.6c-6.2-8.2-11.7-17.1-16.3-26.6c-5.2-10.7-8.9-21.7-11.2-33
			c-11.6,13.4-22.2,29.7-31,48.2C732.9,1167.3,732.2,1168.8,731.5,1170.2z M1030.5,1230.6c1.5,4.6,2.9,9.2,4.5,13.7
			c5.2-7.1,10.3-14.4,15.2-21.9C1043.5,1225.2,1036.9,1228,1030.5,1230.6z M978,1186.3c2.6,18.4,4.8,37,6.8,55.6
			c11.8-4.3,24.6-9.4,37.9-14.9c-4.4-14.3-8.4-29.1-12.3-44.1C999.5,1183.6,988.7,1184.8,978,1186.3z M797,1183.7
			c-4,17.8-7.1,34.9-9.4,51.3c14.2-6,29.3-11.9,45.1-17.6C819.9,1207.8,807.6,1196.6,797,1183.7z M846.7,1219.6
			c2.6,1.7,5.2,3.4,7.8,5c2.5-3.6,5-7.2,7.7-10.6c-5.1,1.7-10.2,3.4-15.3,5.1C846.8,1219.3,846.8,1219.5,846.7,1219.6z
			 M1016.8,1182.5c3.6,14,7.5,28.2,11.8,42.1c8.4-3.5,17-7.1,25.6-10.7c0.7-0.3,1.3-0.6,2-0.8c5.8-9.4,11.4-19,16.7-28.9
			C1054.7,1181.8,1035.8,1181.5,1016.8,1182.5z M798.8,1175.9c11.9,15.3,26.2,28.2,41.1,39c0.6-0.2,1.1-0.4,1.7-0.6
			c4.5-16.8,10.8-33.3,18.8-49.1c1.4-2.7,2.8-5.4,4.3-8c0,0,0,0,0,0c-14.7-11.2-32.5-21.1-52.4-29c-2.2,6.1-4.2,12.3-6,18.8
			C803.5,1156.8,801,1166.4,798.8,1175.9z M869.7,1161.2c-1.2,2.3-2.5,4.6-3.6,6.9c-7.2,14.1-12.9,28.8-17.2,43.7
			c6.8-2.3,13.6-4.6,20.5-6.7c6.6-7.8,13.8-15.1,21.4-21.9C885.1,1175.5,878,1168.1,869.7,1161.2z M1079.6,1185
			c-4.3,8.1-8.7,16-13.4,23.7c11.6-4.9,23.5-9.8,35.5-14.7c0.1-1.4,0.3-2.9,0.4-4.4C1094.8,1187.7,1087.3,1186.2,1079.6,1185z
			 M1126.4,1191.1c10.8,4.4,20.6,9.8,29.5,16.2c3.7-9.7,5.9-19.6,6.6-29.3C1150.6,1182,1138.5,1186.4,1126.4,1191.1z M770.4,948.1
			c-1.9,0.8-3.9,1.6-5.9,2.5c-48.2,21.1-99.6,65.5-137.4,118.7c-32.3,45.4-52.2,92.3-57.5,135.1c3.9-12.3,8.7-23.9,14.2-34.6
			c18.5-35.8,43.9-58.6,71.5-63.9c13-2.5,26.6-4,40.4-4.4c8.1-11.5,16.6-22.5,25.4-32.9c3.5-29.7,12-57.6,25.3-83.1
			C753.1,972.3,761.1,959.9,770.4,948.1z M894.5,1188.3c-4.6,4.2-9.1,8.5-13.4,13.1c6-1.8,12-3.5,18.1-5.1
			C897.7,1193.6,896.2,1191,894.5,1188.3z M899.3,1184.1c2.3,3.4,4.3,6.9,6.1,10.5c9.2-2.4,18.2-4.6,27.1-6.6
			c-2.9-7.3-5.8-14.6-8.8-21.7c-3.1,1.9-6.1,3.9-9,6C909.4,1176,904.2,1180,899.3,1184.1z M1108.8,1184.9c3,0.9,5.9,1.8,8.7,2.8
			c15.2-6,30.4-11.6,45.2-16.6c-0.1-18.1-5.2-36-14.3-52c-12.4,0.9-25.8,2.1-40.6,3.4c-0.4,1.2-0.9,2.4-1.3,3.5
			C1109.4,1147,1109.9,1167.1,1108.8,1184.9z M929.2,1163c3.3,7.8,6.5,15.7,9.6,23.7c10.9-2.3,21.6-4.2,32-5.8
			c-1.7-11.8-3.5-23.4-5.6-34.9C952.5,1150.8,940.5,1156.4,929.2,1163z M1082.7,1179.1c6.8,1.1,13.4,2.5,19.8,4.2
			c0.8-13.8,0.6-29-0.9-44.9C1095.9,1152.2,1089.5,1165.8,1082.7,1179.1z M971.3,1143.8c2.1,11.9,4.1,24,5.8,36.2
			c10.9-1.5,21.4-2.7,31.7-3.4c-3-12-5.9-24-8.8-36.1c-0.4-1.5-0.7-3.1-1-4.6C989.4,1138,980.2,1140.7,971.3,1143.8z M872.8,1155.6
			c9,7.4,16.6,15.2,22.8,23.4c5-4.2,10.1-8.1,15.5-11.8c3.3-2.3,6.7-4.5,10.1-6.6c-6.6-15.1-13.5-29.4-21.3-41.9
			C889.9,1129.5,880.8,1141.9,872.8,1155.6z M1036.3,1175.5c14,0,27.3,0.9,39.9,2.6c8.9-17,16.9-34.7,23.9-52.8
			c-0.1-0.7-0.2-1.3-0.3-2c-17.9,1.7-37.6,3.6-59.6,5.8c-12.1,1.2-23.7,3-34.9,5.4c0.3,1.5,0.6,3.1,1,4.6c2.8,12,5.8,24.5,9,37.2
			c0.9-0.1,1.9-0.1,2.8-0.1C1024.2,1175.7,1030.3,1175.5,1036.3,1175.5z M770.5,1115.2c2.2,11.2,5.8,22.1,10.9,32.7
			c3.6,7.5,7.8,14.6,12.5,21.2c1.9-7.9,4-15.8,6.2-23.9c1.8-6.7,3.9-13.1,6.2-19.4C794.9,1121.7,782.9,1118.1,770.5,1115.2z
			 M1155.4,1118.6c8.4,15.7,13.2,32.9,13.6,50.5c7.8-2.5,15.4-4.8,22.9-6.9c18.9-5.2,35.7-8.5,50.5-9.9c-3.6-12-8-23.8-13.2-35.2
			C1209.3,1115.8,1185.9,1116.5,1155.4,1118.6z M725.2,1108.4c0,18.2,1.4,35.3,4.3,51.4c8.8-17.8,19.2-33.6,30.7-46.7
			C748.5,1110.8,736.8,1109.2,725.2,1108.4z M904.4,1113.8c8.2,12.9,15.5,27.8,22.3,43.4c11.7-6.8,24.2-12.6,37.4-17.5
			c-2.1-11.4-4.5-22.7-7-33.7c-2.1-9-4.3-17.6-6.7-25.9C933.8,1088,918.4,1099.5,904.4,1113.8z M1256.8,1151.6
			c10.6,0,20,1.2,28.1,3.7c-0.6-10-1.8-19.7-3.8-29c-7.7-2.5-15.4-4.4-23.5-5.9c-2.2,10.3-4.9,20.8-8.2,31.4
			C1252,1151.6,1254.4,1151.6,1256.8,1151.6z M814.5,1122.1c19.7,7.8,37.9,17.7,53.3,29.4c8.4-14.3,18-27.2,28.5-38.6
			c-16.9-25.1-35.2-37.3-55.9-37.4C830,1089.4,821.4,1104.9,814.5,1122.1z M1236.4,1117.6c3.5,8,6.6,16.1,9.4,24.3
			c2.2-7.6,4-15.1,5.6-22.5C1246.6,1118.6,1241.6,1118,1236.4,1117.6z M1286.5,1121.4c13.3,4.5,26.5,10.4,41.4,17.9
			c-1.6-4.8-3.2-9.7-5-14.5c-43.4-119.9-103.2-203.3-177.9-248c-71.3-42.6-140.6-40.5-186.1-31.2c-35.4,7.2-69.3,19.7-99.4,36.4
			c25.5,0.7,50.2,4.9,74.1,11.1c30.9-8.5,62.7-11.7,91.9-8.8c40.3,4,71.4,18.9,90,42.1c35.2-8.3,71.3,2.6,104.1,32.2
			c29.4,26.6,44.3,64.4,44,110.8c0.9,1.3,1.9,2.7,2.8,4C1275.4,1087.3,1282.3,1103.6,1286.5,1121.4z M956.1,1077.3
			c2.5,8.7,4.9,17.7,7.1,27.2c2.5,10.8,4.8,21.8,6.9,33c8.9-3.1,18.2-5.7,27.7-7.9c-3.4-21.4-2.6-44.3,2.5-67.1
			C985.9,1065.6,971.2,1070.6,956.1,1077.3z M1007.1,1061c-5.4,22.9-6.4,45.8-3.1,67.2c11.4-2.4,23.2-4.2,35.4-5.4
			c21.8-2.2,41.4-4.1,59.2-5.7c-1.8-10-4.1-20.1-7.2-30.2c-2.1-6.9-4.6-14-7.7-21.4C1060.7,1057.4,1034.7,1055.9,1007.1,1061z
			 M772.5,1109.1c12.4,2.9,24.5,6.5,36.1,10.8c6.4-16,14.2-30.6,23.5-43.6C811.6,1079,790.9,1090.6,772.5,1109.1z M1258.9,1114.2
			c7.1,1.3,13.9,3,20.5,5c-3.7-14.3-9.2-27.4-16.3-38.9c-0.6,10.5-1.9,21.4-4,32.7C1259,1113.4,1258.9,1113.8,1258.9,1114.2z
			 M1120.1,1085.7c-2.9,10-6.2,20.1-9.8,30.2c12.4-1.1,23.9-2.1,34.5-2.9C1138.1,1102.9,1129.8,1093.6,1120.1,1085.7z
			 M1091.9,1068.6c2.2,5.6,4,11.1,5.6,16.3c2.9,9.5,5.2,19,6.9,28.4c3.9-10.7,7.3-21.3,10.3-31.8c-1.8-1.3-3.6-2.6-5.5-3.8
			C1103.6,1074.3,1097.9,1071.2,1091.9,1068.6z M1233.4,1111c4.2,0.3,8.3,0.7,12.2,1.2c2.4,0.3,4.7,0.6,7,1c0.1-0.4,0.2-0.9,0.2-1.3
			c2.3-12.4,4-26.2,4.2-40.4c-15.5-20.8-36.8-35.5-63.5-43.7c-7.4-2.3-15.5-4.6-24.1-6.9C1196.8,1048.3,1218.2,1078.4,1233.4,1111z
			 M1122,1079.1c12.1,9.4,22.2,20.8,30,33.4c30.9-2.2,54.4-2.9,74.2-2c-16.3-33.8-39.4-64.9-69.1-93c-7.2-1.8-14.8-3.6-22.6-5.3
			C1132.7,1032.7,1128.5,1055.4,1122,1079.1z M845.4,1069.5c20.6,1.7,38.9,14.5,55.5,38.8c14.5-14.6,30.5-26.3,47.6-34.5
			c-6.6-22.1-14.3-41.7-23-58.9c-10.3,3.7-20.2,8.1-29.8,13.3C876.1,1039,859.3,1052.8,845.4,1069.5z M725.2,1102
			c12.6,0.9,25.2,2.6,37.6,5c-3.3-27,1.3-55.5,13.9-85.2c-17.4,14.5-34,31-49.6,49.3c-0.3,2.7-0.6,5.4-0.8,8.1
			C725.8,1087,725.4,1094.6,725.2,1102z M787.7,1013c-0.6,1.1-1.1,2.3-1.6,3.4c-14.3,30.6-20,59.8-17.2,87.4
			c20.8-20.5,44.3-32.8,67.5-34.4c0.3,0,0.6,0,0.9-0.1c15.1-19.1,33.6-34.8,55.4-46.7c9.6-5.3,19.6-9.7,29.9-13.4
			c-9.7-18.1-20.7-33.4-33.1-46.1c-0.3-0.4-0.7-0.7-1.1-1.1c-21.3,5.1-43.2,14.2-65.3,27C811.1,996.1,799.2,1004.1,787.7,1013z
			 M704.5,1101.3c4.8,0,9.6,0.1,14.4,0.4c0.1-7.2,0.5-14.5,1-21.9c-5.6,7-11.1,14.1-16.4,21.5
			C703.8,1101.3,704.2,1101.3,704.5,1101.3z M1088.5,1060.4c8.4,3.2,16.5,7.2,24.1,12.1c1.3,0.8,2.6,1.7,3.9,2.6
			c6.1-22.8,10.1-44.6,11.6-64.1c-25-5.1-52.3-9.2-80.3-10.7C1066.8,1018.9,1079.7,1040.1,1088.5,1060.4z M931.5,1012.9
			c8.6,17.1,16.2,36.5,22.8,58.3c16.2-7.2,32.2-12.4,47.6-15.6c2.6-10.1,6-20.1,10.1-30c3.8-9,8.2-17.7,13.1-25.9c-0.3,0-0.6,0-1,0
			C992.7,999.6,960.9,1003.3,931.5,1012.9z M1160.2,1011.8c12.9,3.2,24.7,6.6,35.2,9.8c25.1,7.7,45.8,20.9,61.5,39.4
			c-1.2-34.3-11.5-70.5-41.8-97.7c-30.3-27.3-63.3-37.9-95.7-31.3c5.7,8.5,9.9,17.9,12.4,28.2c2.1,8.7,3.2,18.9,3.4,30.1
			c6.1,4.8,12.1,9.8,17.9,15.1C1155.5,1007.5,1157.9,1009.7,1160.2,1011.8z M782.1,943.8c-11.9,13.8-22,28.7-30.2,44.5
			c-11.5,22.1-19.3,46-23.3,71.4c17-19.1,35.1-36.1,54-50.8c10.7-21.2,28.8-47.4,59.6-71c-3.1-0.6-6.3-1-9.5-1.2
			C817,935.5,800.1,937.9,782.1,943.8z M1038.4,1051.7c14.6,0,28.6,2,41.8,6c-9.3-19.8-22.8-40.3-42.2-57.8
			c-1.8-0.1-3.7-0.1-5.5-0.1c-5.5,8.9-10.4,18.3-14.6,28.3c-3.7,8.7-6.7,17.5-9.1,26.3C1018.9,1052.5,1028.8,1051.7,1038.4,1051.7z
			 M1134.8,1005.9c4.2,0.9,8.4,1.8,12.5,2.8c-4-3.5-8-6.9-12.1-10.3C1135.1,1000.9,1135,1003.4,1134.8,1005.9z M895.7,960.5
			c12.3,13,23.2,28.4,32.9,46.6c31.9-10.5,66.4-14.2,100.5-13.8c0.1-0.2,0.3-0.4,0.4-0.7c-14.9-11.7-33-21.7-54.8-28.7
			C950.1,956.1,923.4,954.9,895.7,960.5z M1040.7,993.6c30.6,1.2,60.7,5.5,87.9,11c0.2-3.8,0.3-7.6,0.3-11.2
			c-19-14.8-38.5-27.4-57.5-38.1c-12.3,9.7-23.6,22-33.4,36.1C1038.9,992.1,1039.8,992.9,1040.7,993.6z M850.4,939.8
			c-20.1,14.7-40.2,34.2-55.6,60c8.2-5.9,16.6-11.3,25.1-16.2c21.2-12.3,42.3-21.2,62.9-26.7C873.2,948.8,862.3,943.1,850.4,939.8z
			 M929.6,950.7c16.3,0,32,2.4,47.1,7.3c22.4,7.2,41,17.4,56.4,29.4c9.5-13.6,20.5-25.6,32.4-35.4c-26.3-14.4-51.3-25.1-71.7-32.7
			c-22.7-8.5-42.7-14.8-60.5-19.5c-15,4.3-29.8,9.9-43.8,16.7c-10,4.9-21.1,11-32.4,18.7c12.3,4.1,23.5,10.8,33.3,20
			C903.6,952.2,916.7,950.7,929.6,950.7z M1077,951.1c17.1,9.8,34.7,21.1,51.8,34.2c-0.4-8.7-1.4-16.6-3.1-23.6
			c-2.5-10.3-6.8-19.7-12.9-28.1c-9,2.5-17.9,6.3-26.7,11.5C1083,947,1080,949,1077,951.1z M945.9,896.5
			c17.1,4.9,33.8,10.8,50.1,16.8c21.3,7.9,47.4,19.1,74.9,34.4c3.9-2.9,7.9-5.6,12-8c8.5-5,17-8.8,25.7-11.5
			c-17.7-20.6-46.6-33.9-83.8-37.6C999.7,888.1,972.6,890.3,945.9,896.5z M848.9,888.1c-15.6,9.4-30,20-43,31.5
			c-5.5,4.9-10.7,9.9-15.6,15.1c15.1-3.9,29.4-5.4,42.9-4.4c5.5,0.4,10.8,1.2,15.9,2.5c11-7.8,23.4-15.3,37.6-22.1
			c11.2-5.4,22.8-10.1,34.6-13.9C891.7,889.9,868.5,887.8,848.9,888.1z"/>
	</g>
	<g>
		<path class="st13" d="M804.4,637.5c17.8-69,47.8-129.1,129.1-129.1c71.3,0,135.9,62.8,131.2,140.2
			c-4.3,71.1-66.1,131.4-141.7,122.9C852.2,763.6,784.1,716.5,804.4,637.5z"/>
		<g class="st15">
			<path class="st0" d="M914,683.6c0-5.6,0.3-10.6,1-14.7c0.7-4.2,1.8-8,3.3-11.4c1.6-3.5,3.6-6.7,6-9.8c2.5-3.1,5.5-6.4,9.1-9.9
				c2.7-2.6,5.2-5.1,7.6-7.5c2.3-2.3,4.4-4.8,6.2-7.2c1.8-2.5,3.2-5.1,4.2-7.9c1-2.8,1.6-5.9,1.6-9.3c0-7.5-1.8-13.2-5.5-17.1
				c-3.7-3.9-9.1-5.9-16.3-5.9c-2.9,0-5.6,0.4-8.3,1.2c-2.7,0.8-5.1,2.1-7.3,3.8c-2.1,1.8-3.9,4-5.2,6.7c-1.3,2.7-2,6-2,9.8h-29
				c0.1-7.5,1.4-14.1,4.1-19.7c2.7-5.7,6.3-10.5,11-14.3c4.7-3.9,10.1-6.8,16.3-8.7c6.2-1.9,13-2.9,20.3-2.9c8,0,15.2,1,21.5,3.1
				c6.3,2.1,11.6,5.1,16,9.1c4.4,4,7.7,8.8,10,14.6c2.3,5.7,3.4,12.2,3.4,19.4c0,5.2-0.8,10.1-2.5,14.7c-1.7,4.5-3.9,8.8-6.7,12.8
				c-2.8,4-6,7.8-9.5,11.5c-3.6,3.7-7.3,7.3-11.1,10.9c-4.4,4-7.3,8.3-8.8,13.1c-1.5,4.7-2.2,10.1-2.3,16H914z M912,720.7
				c0-2.2,0.4-4.3,1.1-6.2c0.7-1.9,1.8-3.6,3.2-5c1.4-1.4,3.1-2.5,5.1-3.3c2-0.8,4.4-1.2,7-1.2c2.6,0,5,0.4,7,1.2
				c2,0.8,3.7,1.9,5.1,3.3c1.4,1.4,2.5,3.1,3.2,5c0.8,1.9,1.1,4,1.1,6.2c0,4.4-1.4,8-4.3,11c-2.9,2.9-6.9,4.4-12.2,4.4
				c-5.2,0-9.3-1.5-12.1-4.4C913.4,728.7,912,725.1,912,720.7z"/>
		</g>
	</g>
	<g>
		<polygon class="st16" points="1287.2,476.2 1171.4,509.5 1242.3,445.1 1248.7,461.7 1278.2,462.9 		"/>
		<polygon class="st17" points="1171.4,509.5 1262.6,445.1 1358.3,426.9 		"/>
		<polygon class="st17" points="1242.3,445.1 1171.4,509.5 1220.5,417.5 		"/>
	</g>
	<g>
		<polygon class="st18" points="2304,953 2424.7,970.2 2344.5,915.7 2340.5,933.2 2311.1,938.5 		"/>
		<polygon class="st17" points="2424.7,970.2 2324.2,918.5 2225.8,913.5 		"/>
		<polygon class="st17" points="2344.5,915.7 2424.7,970.2 2362.6,884.9 		"/>
	</g>
	<g>
		<g>
			<g>
				<path class="st14" d="M2240.1,1553.2c-113.3,0-225.6-50-300.3-133.7c-64-71.7-93.6-160.6-83.5-250.3l1.5,0.2l-1.5-0.2
					c13.9-122.7,55.4-217.8,123.3-282.6c64.4-61.5,152-95.5,260.4-101c126.9-6.5,224.5,29.7,290.2,107.4
					c28.7,34,51.3,76.2,67.2,125.3c14.4,44.7,23.4,95.5,26.6,151c3.4,58.6-1.8,111.8-15.4,158.2c-13.9,47.4-36.7,88.1-67.8,121.1
					C2475.2,1518,2374.1,1553.2,2240.1,1553.2z M2268.5,787.9c-9.2,0-18.7,0.2-28.2,0.7c-107.7,5.5-194.7,39.2-258.5,100.2
					c-67.3,64.3-108.5,158.8-122.3,280.8c-10.1,88.8,19.3,176.9,82.7,247.9c74.2,83.1,185.6,132.7,298.1,132.7
					c133.1,0,233.4-34.9,298.3-103.6c30.8-32.6,53.4-72.9,67.1-119.8c13.5-46.1,18.7-99,15.3-157.2c-3.2-55.2-12.1-105.7-26.4-150.2
					c-15.7-48.8-38.1-90.6-66.6-124.3C2467.8,823.9,2380.6,787.9,2268.5,787.9z"/>
				<path class="st14" d="M2240.1,1555.3c-113.9,0-226.8-50.2-301.9-134.4c-63.9-71.6-93.8-160.2-84.2-249.8l0,0l0.5-4.2l0,0
					c14.2-122.2,55.8-217,123.7-281.8c64.7-61.8,152.8-96,261.8-101.6c127.6-6.5,225.8,29.9,291.9,108.2
					c28.9,34.2,51.6,76.6,67.6,126c14.5,44.9,23.4,95.9,26.7,151.5c3.4,58.8-1.8,112.3-15.5,158.9c-14,47.7-37,88.7-68.3,121.9
					C2476.3,1519.9,2374.7,1555.3,2240.1,1555.3z M2268.5,790c-9.2,0-18.6,0.2-28.1,0.7c-107.2,5.5-193.7,39-257.1,99.6
					c-67,64-107.9,158-121.7,279.5c-10,88.2,19.2,175.7,82.2,246.3c73.8,82.6,184.6,132,296.5,132c132.5,0,232.3-34.6,296.8-103
					c30.5-32.4,53-72.4,66.6-119c13.4-45.8,18.6-98.5,15.2-156.5c-3.2-55-12-105.4-26.3-149.7c-15.6-48.5-37.9-90.1-66.2-123.6
					C2466.7,825.8,2380,790,2268.5,790z"/>
			</g>
		</g>
		<g>
			<g>
				<path class="st14" d="M2253.8,1570.2c-63.6,0-133.7-18.1-209.4-54.2c-102.3-48.7-182.2-142.1-213.7-249.8
					c-27-92.2-15.5-185.2,32.3-261.9c65.3-104.8,143.7-172.8,232.8-202.2c84.6-27.8,178.3-20.8,278.6,20.8
					c117.3,48.7,189.9,123.3,215.8,221.8c11.3,43.1,13.6,90.8,6.7,142c-6.2,46.6-20,96.3-41,147.7c-22.1,54.3-49.7,100.2-82,136.2
					c-32.9,36.8-71,63.8-113.3,80.2C2327.4,1563.8,2291.8,1570.2,2253.8,1570.2z M1864.3,1005.2l1.3,0.8
					c-47.3,75.9-58.7,168-31.9,259.4c31.2,106.9,110.5,199.6,212,247.9c120.1,57.2,225.7,68.9,313.9,34.7
					c41.8-16.2,79.5-42.9,112.1-79.3c32-35.8,59.4-81.3,81.4-135.3c20.9-51.2,34.6-100.7,40.8-147c6.8-50.8,4.5-98.2-6.7-140.8
					c-25.6-97.5-97.6-171.4-214-219.7c-99.6-41.4-192.6-48.3-276.4-20.7c-88.4,29.1-166.2,96.7-231.2,200.9L1864.3,1005.2z"/>
				<path class="st14" d="M2253.8,1572.3c-63.8,0-134.6-18.3-210.3-54.4c-102.8-49-183.1-142.9-214.8-251.2
					c-27.1-92.8-15.6-186.4,32.5-263.6c65.6-105.2,144.3-173.5,234-203c85-28,179.3-21,280,20.9c118,49,191,124.1,217,223.2
					c11.4,43.3,13.7,91.4,6.8,142.8c-6.2,46.8-20.1,96.6-41.1,148.3c-22.2,54.6-49.9,100.6-82.3,136.8
					c-33.2,37.1-71.5,64.2-114.1,80.7C2328.1,1565.8,2291.9,1572.3,2253.8,1572.3z M1867.4,1007.1c-47,75.4-58.3,166.9-31.7,257.7
					c31.1,106.3,109.9,198.5,210.9,246.6c119.6,57,224.6,68.6,312.2,34.7c41.5-16.1,78.9-42.6,111.3-78.8
					c31.9-35.6,59.1-80.9,81-134.7c20.8-51,34.5-100.3,40.6-146.5c6.7-50.5,4.5-97.6-6.6-140c-25.4-96.8-97-170.2-212.8-218.3
					c-99.1-41.2-191.6-48.1-275-20.7C2009.5,836.1,1932.1,903.4,1867.4,1007.1z"/>
			</g>
		</g>
		<g>
			<g>
				<path class="st14" d="M2275.3,1593.8c-92.4,0-187.2-44.4-282.3-132.2c-86.2-79.6-136.5-196.4-134.6-312.6
					c1.6-99.5,41.5-187.9,112.3-249l1,1.2l-1-1.2c96.8-83.6,195.1-126.8,292.2-128.5c92.1-1.6,182.7,34.1,269,106
					c101.1,84.2,150,180.2,145.3,285.4c-2,46-14.4,94-36.9,142.5c-20.4,44.2-49.3,89.1-85.8,133.5c-38.6,46.9-79.9,83.8-122.8,109.5
					c-43.8,26.3-89.8,41.3-136.6,44.5C2288.5,1593.5,2281.9,1593.8,2275.3,1593.8z M2268.7,774.7c-1.9,0-3.9,0-5.8,0
					c-96.4,1.7-194,44.6-290.2,127.7c-70.1,60.5-109.5,148.1-111.2,246.7c-1.9,115.3,48,231.2,133.6,310.2
					c101.2,93.4,202.1,137.4,299.7,130.6c46.3-3.2,91.8-18,135.2-44.1c42.6-25.6,83.7-62.2,122-108.8
					c36.3-44.2,65.1-88.9,85.4-132.8c22.3-48.1,34.6-95.7,36.6-141.3c4.6-104.2-43.9-199.4-144.2-282.9
					C2445.9,810.1,2358.1,774.7,2268.7,774.7z"/>
				<path class="st14" d="M2275.3,1595.9L2275.3,1595.9c-92.9,0-188.3-44.6-283.8-132.7c-86.6-80-137.2-197.4-135.3-314.2
					c1.6-99.3,41.2-187.7,111.4-249.2l0,0l3.2-2.8l0,0c96.6-83,194.8-125.9,292-127.6c92.6-1.6,183.6,34.2,270.4,106.5
					c101.6,84.6,150.8,181.2,146.1,287.2c-2,46.3-14.5,94.5-37.1,143.3c-20.5,44.3-49.5,89.4-86.1,134
					c-38.7,47.1-80.2,84.1-123.4,110c-44.1,26.5-90.4,41.5-137.6,44.8C2288.6,1595.7,2281.9,1595.9,2275.3,1595.9L2275.3,1595.9z
					 M2268.7,776.8c-1.9,0-3.8,0-5.8,0c-95.9,1.6-193.1,44.4-288.9,127.2c-69.6,60.1-108.8,147.2-110.4,245.1
					c-1.9,114.7,47.8,230,132.9,308.6c94.1,86.8,187.8,130.7,278.7,130.8c6.5,0,12.9-0.2,19.4-0.7c46-3.2,91.1-17.9,134.3-43.8
					c42.4-25.4,83.3-61.9,121.5-108.4c36.2-44.1,64.8-88.6,85.1-132.4c22.2-47.9,34.4-95.1,36.4-140.5
					c4.6-103.5-43.7-198.1-143.4-281.2C2445,812.1,2357.5,776.8,2268.7,776.8z"/>
			</g>
		</g>
		<g>
			<g>
				<path class="st14" d="M2161.3,1587c-36.2,0-70.8-6-103.1-18c-92.6-34.4-167-116.5-221.1-244.2c-45.8-108-43.5-235.2,6-340.3
					c42.5-90,115.2-154.1,204.8-180.7c122.6-36.3,230-35.2,319.2,3.3c84.6,36.5,152.4,106.3,201.5,207.4
					c57.4,118.3,62.4,226,14.9,320c-20.8,41.1-51.9,79.7-92.3,114.6c-36.8,31.8-81.6,60.9-133.2,86.3
					c-54.5,26.9-107.3,43.5-157,49.3C2187.6,1586.2,2174.4,1587,2161.3,1587z M2048.4,805.3l0.5,1.5
					c-88.8,26.3-160.8,89.9-202.9,179c-49.2,104.3-51.4,230.5-6,337.7c53.8,126.8,127.6,208.4,219.3,242.5
					c43.5,16.2,91.1,21.4,141.3,15.5c49.4-5.7,101.9-22.2,156-48.9c51.3-25.3,95.9-54.2,132.5-85.9c40.1-34.7,70.9-72.9,91.5-113.7
					c47.1-93.1,42.1-199.8-14.9-317.2c-48.8-100.4-116-169.7-199.9-205.9c-88.5-38.2-195.2-39.2-317-3.1L2048.4,805.3z"/>
				<path class="st14" d="M2161.3,1589.1c-36.4,0-71.4-6.1-103.9-18.2c-93.2-34.6-168-117.1-222.3-245.4
					c-46-108.6-43.8-236.4,6.1-342c42.7-90.5,115.9-155.1,206.1-181.8c123.1-36.5,231-35.3,320.6,3.4
					c85.1,36.7,153.2,106.8,202.6,208.4c57.7,118.9,62.7,227.2,14.9,321.8c-20.9,41.4-52.2,80.2-92.8,115.3
					c-36.9,31.9-81.9,61.1-133.6,86.6c-54.7,27-107.7,43.6-157.7,49.5C2187.8,1588.3,2174.4,1589.1,2161.3,1589.1z M2049.4,808.8
					c-88.2,26.1-159.8,89.3-201.6,177.9c-48.9,103.7-51.2,229.3-5.9,336c53.5,126.3,126.9,207.5,218.1,241.3
					c43.2,16,90.4,21.2,140.4,15.4c49.1-5.7,101.4-22.1,155.3-48.7c51.2-25.3,95.6-54.1,132.1-85.6c39.9-34.5,70.5-72.5,91-113
					c46.8-92.5,41.8-198.5-14.9-315.3c-48.5-100-115.4-168.9-198.9-204.9C2277,773.9,2170.8,772.9,2049.4,808.8z"/>
			</g>
		</g>
		<g>
			<g>
				<path class="st14" d="M2262.3,1553.2c-113.3,0-209.2-59.5-284-143.2c-64-71.7-110-151-99.8-240.8
					c13.9-122.7,55.4-217.8,123.3-282.6c64.4-61.5,152-95.5,260.4-101c126.9-6.5,224.5,29.7,290.2,107.4
					c28.7,34,51.3,76.2,67.2,125.3c14.4,44.7,23.4,95.5,26.6,151c3.4,58.6-1.8,111.8-15.4,158.2c-13.9,47.4-36.7,88.1-67.8,121.1
					C2497.4,1518,2396.2,1553.2,2262.3,1553.2z M1880,1169.4l1.5,0.2c-10.1,88.8,38.5,168.2,101.9,239.2
					c74.2,83.1,166.4,141.4,278.9,141.4c133.1,0,233.4-34.9,298.3-103.6c30.8-32.6,53.4-72.9,67.1-119.8
					c13.5-46.1,18.7-99,15.3-157.2c-3.2-55.2-12.1-105.7-26.4-150.2c-15.7-48.8-38.1-90.6-66.6-124.3
					c-65-77-161.8-112.8-287.7-106.3c-107.7,5.5-194.7,39.2-258.5,100.2c-67.3,64.3-108.5,158.8-122.3,280.8L1880,1169.4z"/>
				<path class="st14" d="M2262.3,1555.3c-54.2,0-107.1-13.6-157.5-40.5c-45.3-24.2-88.4-59-128.1-103.4
					c-35.8-40.1-61.4-77.5-78.1-114.2c-19.8-43.6-27.1-85.5-22.3-128.3c14-123.2,55.7-218.7,123.9-283.9
					c64.7-61.8,152.8-96,261.8-101.6c127.6-6.5,225.8,29.9,291.9,108.2c28.9,34.2,51.6,76.6,67.6,126
					c14.5,44.9,23.4,95.9,26.7,151.5c3.4,58.8-1.8,112.3-15.5,159c-14,47.7-37,88.7-68.3,121.9
					C2498.5,1519.9,2396.8,1555.3,2262.3,1555.3z M1883.7,1169.8c-8.5,75.1,23.7,150.5,101.3,237.5
					c83.4,93.4,176.7,140.7,277.3,140.7c132.5,0,232.3-34.6,296.8-103c30.5-32.4,53-72.4,66.6-119c13.4-45.9,18.6-98.5,15.2-156.5
					c-3.2-55-12-105.4-26.3-149.7c-15.6-48.5-37.9-90.1-66.2-123.6c-64.6-76.4-160.8-112-286-105.6c-107.2,5.5-193.7,39-257.1,99.6
					C1938.4,954.3,1897.4,1048.3,1883.7,1169.8z M1904.5,1299.8c16.5,34.9,41.2,70.5,75.4,108.8c14.5,16.3,29.5,31.3,44.9,44.9
					c-14.6-13.1-29-27.6-43-43.3C1947.3,1371.5,1921.7,1335,1904.5,1299.8z"/>
			</g>
		</g>
	</g>
	<g>
		<path class="st8" d="M2187.2,1340.4c-0.2,0.3-0.4,0.7-0.6,1c-4.6,8-15.1,27.6-26.8,49c-5.5,10.2-11.3,20.8-16.7,30.7
			c-9.4,17.2-18,32.5-23,40.6c-5.1,8.2-8.8,14-10.3,16.3c0,0,0,0,0,0c-0.5,0.7-0.6,1.5-0.5,2.4c0.5,7.3,0.4,14.5-0.3,21.6
			c-7,69.7-54,107.1-54,107.1l-14,2.1c0,0,19.8-73.3,25.6-114.7c1-7,1.4-12.7,1.1-16.4c-1-10.8,0.9-26.6,4.5-44.8
			c6.5-32.3,18.3-72,28.6-103.8c0.7-2,20.3-73.1,20.3-73.1c16.5,14.4,76.7,20.4,76.7,20.4S2208,1303.4,2187.2,1340.4z"/>
		<path class="st5" d="M2011.7,1628.8h58.3c0,0,1.4-8.9-1.6-15.6c-2.9-6.5-7.1-6.7-0.5-16.8c-3.7,3.8-15.6,5.4-24.1,4.3
			c-1,1.7-6.7,12.9-10.1,15.4C2029.9,1618.7,2012.9,1617.7,2011.7,1628.8z"/>
		<path class="st4" d="M2187.2,1340.4c-0.2,0.3-0.4,0.7-0.6,1c-4.6,8-29.5,53.9-41.1,75.4c13.5-55.4,4.1-110.8,4.1-110.8
			L2187.2,1340.4z"/>
		<path class="st19" d="M1962,1066.8c0,0-2.3-25.2,25.8-25.2c0,0-8.5,2.3-12.9,6.9c0,0,17.9-10.5,37.5,5.7
			c19.5,16.2,7.4,56.8,13.3,64.5c5.9,7.7,29.1,9.2,26.2,34.2c-2.8,24.9-73.4,56.1-68.8,76.7c0,0-27.6-40.6-7.9-59.2
			c0,0-9.6,9.1-10.6,19.9c0,0-2.6-21.1,10.8-27.8c11.9-6,21.6-27.8,20.6-31.7C1994.9,1126.9,1962,1066.8,1962,1066.8z"/>
		<path class="st3" d="M2001.7,1172.5c0,0-40,101-48.6,97.2c-8.6-3.7-59.4-19.9-59.4-19.9s1.8,14.4,2.6,15
			c7.4,5.9,44.9,34.8,67.3,36.2c24.9,1.6,58.6-71.7,58.6-71.7L2001.7,1172.5z"/>
		<path class="st19" d="M1970,1063.2c-0.4-1.5,33.3,15.2,35,17.1c15.8,17.5,11.3,40.4,2.3,40.6c-5.8,0.1-4.7,9.8-4.7,9.8l-64.6-27.3
			C1938,1103.4,1945.8,1058.1,1970,1063.2z"/>
		<path class="st7" d="M1991.7,1174.6c0,0-8.6,8.9-8.6,35.6c0,0,11.9,18.7,42.6,23.5C2025.7,1233.6,1999.3,1174.6,1991.7,1174.6z"/>
		<path class="st8" d="M2141.7,1282.9l-0.2-10.9c21.7,2.7,75-26,75-26s22.7,15.1,25.9,58.3c1.5,21.1,11.1,110.3,12.2,136.9
			c0.4,9.7,0.5,16.5,0.6,19.3c0,0,0,0,0,0c0,0.8,0.4,1.6,0.9,2.2c4.5,5.7,8.4,11.8,11.8,18.1c33.2,61.7,15.8,145.6,15.8,145.6
			l-7.7-2c0,0-28.1-86.9-46.4-124.6c-3.1-6.4-5.9-11.3-8.3-14.2c-6.9-8.4-14.2-22.6-21.3-39.7
			C2186.4,1413.7,2141.7,1282.9,2141.7,1282.9z"/>
		<path class="st5" d="M2237.3,1628.8h58.3c0,0,1.4-8.9-1.6-15.6c-2.9-6.5-7.5-9.4-6.4-17.2c-3.7,3.8-9.7,8.1-18.2,7
			c-1,1.7-6.7,10.6-10.1,13.1C2255.4,1618.7,2238.4,1617.7,2237.3,1628.8z"/>
		<path class="st7" d="M2029.7,1246.1c7.8,1.3-1.3,7.6,9.5,8.7c15.3,1.7,31.2,2.8,39.5,6.1c3,1.2,5.1,2.7,5.7,4.6
			c3.6,10.8,19.4,27.5,19.4,27.5c101.6-4.6,112.7-47.1,112.7-47.1c-65.9-64-126.6-101.8-172.9-106.8c-7.9-0.9-17.9,4.2-25.1,7.3
			c-16.2,7.2-26.9,28-26.9,28S1999.9,1241.1,2029.7,1246.1z"/>
		<path class="st6" d="M2039.2,1254.9c15.3,1.7,31.2,2.8,39.5,6.1c3.4-50.7-20.5-88.8-20.5-88.8S2042.5,1235.7,2039.2,1254.9z"/>
		<path class="st3" d="M2025.9,1163.7c0,0,38.6-2.1,45.4,22.1c6.9,24.2-12.9,120.9-17.1,130.9c-7.7,18.2-45.4,70-45.4,70l-10.4-5.3
			c0,0,21.6-78.1,27.3-85.9C2034.5,1283.1,2014.4,1174.2,2025.9,1163.7z"/>
		<path class="st3" d="M2001.2,1374.1c0,0-3.2,11.4-9.5,17.7c-2.9,2.9-5.5,11.6-5.6,16.1c0,0-0.5,3.7,1.1,3.4c1.6-0.4,3.4-8.4,6.3-8
			c0,0-1.5,9-3.1,11.5c-1.5,2.5-2.4,10.4-0.3,11.3c5.3,2.3,13-7.6,17.7-13.8c4.6-6.2,0.1-31.5,0.1-31.5L2001.2,1374.1z"/>
		<path class="st7" d="M2079,1218.2c-0.1,0.6-36.5,6.7-59.3-4.9c0,0-19-59.6,8.2-56.7c27.2,2.9,43.3,11.4,44,24.4
			C2072.5,1194,2079,1218.2,2079,1218.2z"/>
		<path class="st3" d="M2018.6,1146.6c0,0-10.7,40-26.9,28c0.5-1.9-2.4-7.5-5.7-13.3c-4.2-7.3-9.3-14.7-9.3-14.7l21.8-19.1l1.3-1.1
			C2006.6,1138,2013.1,1142.6,2018.6,1146.6z"/>
		<path class="st20" d="M1976.7,1146.6c0,0,5,7.4,9.3,14.7c13.6-8.4,13.6-25.2,12.5-33.9L1976.7,1146.6z"/>
		<path class="st3" d="M1976.1,1156.2c0,0,33-18.3,21.2-38.7c-11.7-20.3-15.4-36.4-36.9-25.6s-21.1,20.9-18.8,28.7
			C1943.9,1128.4,1967.3,1160.4,1976.1,1156.2z"/>
		<path class="st19" d="M1936,1108.7c1.5-9,6.1-9.9,9.3-9.3c12.2-20.1,32.1-12.3,32.1-12.3c10.6,13.3,26,15.6,26,15.6
			s-3.8,7.1-19.6,11.5c-4.8,1.3-10.3,0.5-15.5-1.2c10.9,6.1,22.4,8.4,22.4,8.4c-20.8,1.9-40.5-17.1-42.6-19.1
			c-1,2.9-2.6,9.1-1.6,13.6c1.4,6.1,6.8,17.2,3.5,18.6C1949.9,1134.6,1933.8,1122.3,1936,1108.7z"/>
	</g>
	<path class="st3" d="M1900.8,1254.4c0,0-5.9,2.6-11.9-3.5c-3.1-3.1-8.5-4.8-5.7-6.5c2.8-1.7,10.4,1.8,12.2,2.4
		S1900.8,1254.4,1900.8,1254.4z"/>
	<g>
		<path class="st13" d="M2121.4,585.2c17.7-68.8,47.6-128.6,128.6-128.6c71,0,135.5,62.6,130.8,139.7
			c-4.3,70.9-65.9,131-141.2,122.5C2169,710.9,2101.1,664,2121.4,585.2z"/>
		<g class="st15">
			<path class="st0" d="M2230.9,672.7c0-2.5,0.4-4.8,1.3-7c0.8-2.1,2.1-4,3.6-5.6c1.6-1.6,3.5-2.9,5.8-3.8c2.3-0.9,4.9-1.3,7.8-1.3
				c2.9,0,5.6,0.4,7.8,1.3c2.3,0.9,4.2,2.1,5.8,3.8c1.6,1.6,2.8,3.5,3.6,5.6c0.8,2.1,1.3,4.5,1.3,7c0,4.9-1.6,9-4.8,12.3
				c-3.2,3.3-7.8,5-13.7,5c-5.9,0-10.4-1.7-13.7-5C2232.5,681.8,2230.9,677.6,2230.9,672.7z M2262.9,630.7h-28l-3.1-137.6h34.3
				L2262.9,630.7z"/>
		</g>
	</g>
	<g>
		<path class="st13" d="M1278.5,727.2c39.7-154.5,106.9-288.8,288.8-288.8c159.5,0,304.2,140.5,293.6,313.6
			c-9.7,159.2-147.9,294.1-317.2,275.1C1385.3,1009.4,1233,904.1,1278.5,727.2z"/>
		<g>
			<path class="st17" d="M1689.9,709.5c0.2,29.7-10.2,56.9-27.7,78.2c-15,18.3-23.5,41.1-23.5,64.8v34.1c0,9.7-3.5,18.5-9.4,25.4
				c-7.2,8.5-18,14-30,14h-63c-21.7,0-39.4-17.7-39.4-39.4v-34.1c0-23.6-8.3-46.5-23.4-64.7c-17.4-21.1-27.8-48.1-27.8-77.6
				c0-58.3,40.9-107,95.5-119.2c1.6-0.3,3.1-0.7,4.7-0.9c0.8-0.2,1.7-0.3,2.5-0.4c6.3-1,12.8-1.5,19.4-1.5
				C1635.1,588.1,1689.5,642.1,1689.9,709.5z"/>
			<path class="st4" d="M1599.1,926l-0.1,1l-1.7,13.3l-0.5,3.5v0l-0.5,3.5l-1.7,13.3l-0.5,3.5l0,0l-0.5,3.5l-0.3,1.9
				c-0.9,6.7-8.6,11.9-17.8,11.9h-20.7c-2.2,0-4.3-0.3-6.2-0.8h0c-1.8-0.5-3.4-1.2-4.8-2l-0.1-0.1c-1.2-0.7-2.2-1.5-3.1-2.4
				c-1.9-1.8-3.1-4-3.4-6.5l-0.7-5.1l-0.5-3.2v0l0-0.1v0l-0.5-3.2l-1.8-12.3l-0.5-3.2l0-0.1l-0.5-3.2l-1.9-13.3H1599.1z"/>
			<g>
				<path class="st8" d="M1590.9,926h-0.1h-11.6c-18.9,5.5-37.7,10.9-46.4,13.3l0.5,3.2l0,0.1l0.5,3.2c7-2,23.9-6.8,65.3-18.8l0.1-1
					H1590.9z"/>
				<path class="st8" d="M1535.9,961.3L1535.9,961.3L1535.9,961.3L1535.9,961.3l0.5,3.3c8.1-2.3,24.9-7.1,59.9-17.2l0.5-3.5v0
					l0.5-3.5c-22.1,6.4-48.9,14.1-61.8,17.8L1535.9,961.3z"/>
				<path class="st8" d="M1543.7,978.6l0.1,0.1c1.5,0.8,3.1,1.5,4.8,2h0c9.6-2.8,23.8-6.9,45-13l0.5-3.5l0,0l0.5-3.5
					c-18.9,5.5-40.6,11.7-54,15.6C1541.4,977.1,1542.5,977.9,1543.7,978.6z"/>
			</g>
			<g>
				<g>
					
						<rect x="1529.9" y="768.6" transform="matrix(0.986 -0.167 0.167 0.986 -120.0826 267.9017)" class="st4" width="5.5" height="158.4"/>
				</g>
				<g>
					
						<rect x="1523.1" y="846.3" transform="matrix(0.1799 -0.9837 0.9837 0.1799 477.9258 2271.4607)" class="st4" width="156.3" height="5.5"/>
				</g>
				<g>
					<path class="st4" d="M1582.4,798.1c-0.7,0-1.5-0.1-2.4-0.3c-1.5-0.3-2.4-1.4-2.7-3c-0.6-3.5,2.1-9.8,5.9-15.1
						c-2-3.5-4.6-6.3-7.4-7.2c-4.1-1.2-10.4,2.5-14.8,7.4c0.8,1.1,1.5,2.3,2.2,3.5c2.2,4.2,3.9,9.7,1.7,12.2
						c-0.8,0.9-2.5,1.8-5.8,0.5c-4.1-1.6-5.6-5.1-4.1-9.6c0.8-2.2,2.2-4.5,3.9-6.7c-3.4-4.4-7.9-7.8-12.4-7.2
						c-2.4,0.3-4.4,1.1-6.1,2.3c2.9,5.3,3.5,12.1,1.5,15.7c-1.3,2.5-3.7,3.2-6.6,2.2c-2.1-0.8-3.2-3.7-2.8-7.4
						c0.4-3.8,2.3-8,5.7-10.9c-0.9-1.4-2-2.6-3.2-3.6c-7.7-6-14.1,0.4-14.3,0.7l-1.2-1.2c0.1-0.1,7.7-7.8,16.6-0.9
						c1.3,1,2.5,2.4,3.5,3.9c1.9-1.3,4.1-2.2,6.8-2.5c5-0.6,10,2.9,13.7,7.6c4.8-5.2,11.6-9,16.3-7.6c3,0.9,5.8,3.8,8,7.4
						c2-2.6,4.2-4.9,6.4-6.3c3.5-2.3,5.8-1.8,7-0.9c1.3,0.9,2.5,2,3.4,3.4c1.1-0.8,2.2-1.5,3.2-2.1c4-2,7.8-1.9,10.4,0.4l-1.1,1.3
						c-2.9-2.5-6.7-1.2-8.6-0.2c-1.1,0.5-2.1,1.2-3.1,2c2.7,4.9,3.2,11.2,1.7,14.2c-1,1.9-2.7,2.6-4.7,1.9c-3.7-1.3-4.5-3.9-4.6-5.7
						c-0.2-3.6,2.3-7.7,5.5-10.7c-0.8-1.3-1.8-2.3-3-3.1c-1.6-1-3.7-0.1-5.2,0.9c-2.2,1.4-4.4,3.8-6.5,6.5
						c2.5,4.8,3.8,10.3,2.9,13.9C1587.5,795.5,1586.2,798.1,1582.4,798.1z M1584,781.3c-3.3,4.8-5.6,10.3-5.1,13.2
						c0.2,0.9,0.6,1.4,1.4,1.6c3.3,0.7,5.3-0.2,6-2.8C1587.1,790.3,1586.1,785.5,1584,781.3z M1559.9,781.2
						c-1.5,1.9-2.7,3.9-3.4,5.8c-1.3,3.7-0.2,6.3,3.1,7.5c1.3,0.5,3.1,0.9,4-0.1c1.3-1.5,0.5-5.7-1.9-10.3
						C1561.1,783.2,1560.5,782.2,1559.9,781.2z M1539,775.9c-2.9,2.6-4.6,6.3-4.9,9.6c-0.3,2.9,0.4,5.2,1.7,5.6
						c2.1,0.8,3.7,0.3,4.6-1.4C1542.1,786.6,1541.4,780.7,1539,775.9z M1600.6,777c-2.9,2.8-4.9,6.4-4.7,9.1c0.1,2,1.3,3.4,3.6,4.3
						c1.2,0.5,2.1,0.1,2.7-1C1603.4,786.7,1602.9,781.2,1600.6,777z"/>
				</g>
			</g>
			<path class="st21" d="M1630.8,635c10,9.5,8.8,26.9-4.1,30.7c-9.7,2.9-24.3-1-31.4-13.4c-7.2-12.4-3.9-22.6,4.9-27.7
				C1609,619.6,1620.4,625.2,1630.8,635z"/>
		</g>
		<g>
			<path class="st21" d="M1565.1,565.1h-1.2c-2.1,0-3.9-1.7-3.9-3.9v-48.1c0-2.1,1.7-3.9,3.9-3.9h1.2c2.1,0,3.9,1.7,3.9,3.9v48.1
				C1569,563.4,1567.2,565.1,1565.1,565.1z"/>
			<g>
				<path class="st21" d="M1710.7,621.1l-0.6-1.1c-1.1-1.8-0.4-4.2,1.4-5.2l23.6-13.6c1.8-1.1,4.2-0.4,5.2,1.4l0.6,1.1
					c1.1,1.8,0.4,4.2-1.4,5.2l-23.6,13.6C1714.1,623.5,1711.7,622.9,1710.7,621.1z"/>
				<path class="st21" d="M1726.8,688.4L1726.8,688.4c0-2.5,2-4.5,4.5-4.5h59.7c2.5,0,4.5,2,4.5,4.5l0,0c0,2.5-2,4.5-4.5,4.5h-59.7
					C1728.8,692.8,1726.8,690.8,1726.8,688.4z"/>
				<path class="st21" d="M1643.4,585.3L1643.4,585.3c-2.3-1-3.3-3.6-2.4-5.9l31.7-74.2c1-2.3,3.6-3.3,5.9-2.4l0,0
					c2.3,1,3.3,3.6,2.4,5.9l-31.7,74.2C1648.3,585.2,1645.7,586.3,1643.4,585.3z"/>
			</g>
			<g>
				<path class="st21" d="M1424.4,621.1l0.6-1.1c1.1-1.8,0.4-4.2-1.4-5.2l-23.6-13.6c-1.8-1.1-4.2-0.4-5.2,1.4l-0.6,1.1
					c-1.1,1.8-0.4,4.2,1.4,5.2l23.6,13.6C1421,623.5,1423.3,622.9,1424.4,621.1z"/>
				<path class="st21" d="M1408.3,688.4L1408.3,688.4c0-2.5-2-4.5-4.5-4.5h-59.7c-2.5,0-4.5,2-4.5,4.5l0,0c0,2.5,2,4.5,4.5,4.5h59.7
					C1406.2,692.8,1408.3,690.8,1408.3,688.4z"/>
				<path class="st21" d="M1491.6,585.3L1491.6,585.3c2.3-1,3.3-3.6,2.4-5.9l-31.7-74.2c-1-2.3-3.6-3.3-5.9-2.4l0,0
					c-2.3,1-3.3,3.6-2.4,5.9l31.7,74.2C1486.7,585.2,1489.4,586.3,1491.6,585.3z"/>
			</g>
		</g>
	</g>
	<g>
		<path class="st22" d="M1449.7,938.9c0.1-1.7,1.4-19.9,29.1-20.8c0,0-13.6,1.6-16,7.6c0,0,9.3-7.4,16.8-5c7.6,2.4,12,15.6,12,20
			c0,4.4-4.2,18.4-9,19.6c-1.8,0.5-3.9,0.3-5.8,0c1.3,2,2.5,4.2,3.7,6.6c11.1,22.7-0.3,44.9-9.7,42.5c-6-1.6-7.7,8.7-7.7,8.7
			l-58.4-47.2C1404.9,970.8,1426.4,926.4,1449.7,938.9z"/>
		<path class="st7" d="M1429.4,1608l12.4,4.6c0,0,53.8-74.7,60.5-140.4c1.2-11.7,0.8-23.1-1.8-33.6c0,0,0.5-3,1.4-8.3
			c0.4-2.5,1-5.5,1.5-8.9c1.8-10,4.2-23.8,6.9-39.4c6.3-36,14.5-81.9,20.9-115.7l-3.3-1.1l-36.1-11.7l-7.5-23.7l-26.9-7.1
			c0,0-6,11.8-11.4,67.3c-1,7.3-1.9,15.3-2.6,24c-2.1,26.6-2.2,59.6,2.6,97.3c1.2,9.7,2.8,19.6,4.7,29.9c1.4,7.5,1.6,17.7,1,29.5
			C1449.1,1524.5,1429.4,1608,1429.4,1608z"/>
		<path class="st6" d="M1443.5,1314.1l58.4,116.2c0.4-2.5,1-5.5,1.5-8.9c1.8-10,4.2-23.8,6.9-39.4c6.3-36,14.5-81.9,20.9-115.7
			l-3.3-1.1l-36.1-11.7l-7.5-23.7l-34.9-19.4c0,0,0,5.4-3,64.5C1445.4,1282.3,1444.2,1305.4,1443.5,1314.1z"/>
		<path class="st7" d="M1469.2,1237.7l1.4-11.6c22.7,6,85.8-22.1,85.8-22.1s19.3,24.6,16.4,70.9c-1.4,22.6-4,118.5-6.7,146.9
			c-1,10.3-1.8,17.6-2.2,20.5c0,0,0,0,0,0c-0.1,0.9,0.2,1.7,0.7,2.5c4,6.7,7.2,13.7,9.9,20.8c26.3,70.2-4.1,156.7-4.1,156.7
			l-7.9-3.2c0,0-17.3-96.2-31.4-138.7c-2.4-7.2-4.7-12.9-6.8-16.3c-6.1-9.9-11.8-26-16.9-45.2c-9.7-36.2-17.6-83.4-22.8-119.8
			C1480.4,1268.4,1469.2,1237.7,1469.2,1237.7z"/>
		<path class="st2" d="M1308.4,1195.8l-1.8,13.3c0,0,8-1.1,9.3-1.2c4.1-0.3,16.3-1.1,27.7-2.3c17.1-1.7,29.4-2.1,37.5-7.1
			c12.3-7.5,32.5-30.5,45.6-53.5c0.4-0.6,0.7-1.1,0.9-1.7c6.8-12.2,11.6-24.3,12-34c0.3-5.9-0.4-11-1.6-15.4
			c-1.6-5.8-4.2-10.4-6.9-13.9c-0.4-0.6-0.8-1.1-1.3-1.6c-4.5-5.3-8.9-7.6-8.9-7.6c-2.3-0.9-9.7,8.1-12.3,10.9l-2.1,6.3
			c-2.1,2.2-24.7,75-35,86.4c-4.4,4.9-24.9,12.5-43.7,17.7C1315.9,1195.7,1308.4,1195.8,1308.4,1195.8z"/>
		<path class="st3" d="M1425.9,1097c7.1,3.3,15.7,5.5,26.1,6.1c39,2.1,47.8-32,49.4-54.7c-5.6-2-10.5-1.8-13.4-1.7
			c-2.3,0.1-4.6,0.3-6.7,0.6c-1,0.1-2-0.2-2.7-0.8c-4.9-3.9-12.4-15.5-16.9-33.9l-1.7,0.8l-28.1,13.2c0,0,3,9.1,5.2,17.9
			c1,3.8,1.8,7.5,2.1,10.4c0.3,2.7-1.2,5.3-3.7,6.4c0,0,0,0,0,0s0,0,0,0C1435.3,1062.1,1429.2,1077.6,1425.9,1097z"/>
		<path class="st8" d="M1564.6,1216.6c-0.3,14.4-101.8,27.2-119.3,17.5c0,0-4.5-21.8-10.3-46.4c-1.7-7.4-3.6-15-5.5-22.4
			c-4.4-17.3-8.9-33-12.4-40.5c-0.4-0.8-0.7-1.5-1-2.3c-7.8-20.6,6.8-42.7-3.3-49.2c0,0,6-5.5,22.6-12c0,0,0,0,0,0
			c-0.3,1-1.7,14.7,1.1,20c5.6,10.6,27.7,5,37.7-8c5.9-7.6,10.5-15.4,12.5-22.6c0.5-1.6,1.2-4,1.2-4s18.6-2.5,29,1.7
			c0,0-4.1,9-5.6,18.8c-0.1,0.9-0.3,1.9-0.4,2.8c-0.2,2-0.3,4-0.1,5.9c0.1,2.6,1.5,4.8,3.6,7.1c1.9,2,4.5,4.1,7.5,6.2
			c1.9,1.4,4,2.9,6.1,4.5c0.2,11.6-0.6,30.8,1.5,51.2c0.5,5.2,2.3,10.1,5,14.5c1.1,1.8,2.3,3.4,3.7,5
			C1549.4,1176.8,1564.9,1214.9,1564.6,1216.6z"/>
		<path class="st20" d="M1432,1026.6c0,0,3,9.1,5.2,17.9c16.4-4.6,21.4-21.9,22.9-31.1L1432,1026.6z"/>
		<path class="st3" d="M1428.5,1036.3c0,0,39.3-9.1,33.3-33.5c-6-24.4-5-42-30.4-37.2c-25.4,4.8-27.9,15.3-27.9,23.9
			C1403.6,998.1,1418.2,1038,1428.5,1036.3z"/>
		<path class="st22" d="M1401.3,975.7c4.2-8.8,9.2-8.4,12.3-6.8c18.5-17.1,36.6-3.1,36.6-3.1c7,16.8,22.1,23.7,22.1,23.7
			s-6,6.2-23.5,6c-5.3,0-10.7-2.5-15.6-5.9c9.4,9.5,20.5,15.3,20.5,15.3c-21.9-4.2-36.6-29.6-38.1-32.3c-1.9,2.7-5.4,8.6-5.7,13.5
			c-0.4,6.7,1.9,19.7-1.9,20.2C1407.9,1006.4,1395,988.9,1401.3,975.7z"/>
		<path class="st8" d="M1412.9,1073.4c0,0-3.5,2-9.9,21.5c0,0,7.3,9.1,16.2,8.2C1419.3,1103.1,1420.5,1075.6,1412.9,1073.4z"/>
		<path class="st5" d="M1524.7,1628.8h62.4c0,0,1.5-9.5-1.8-16.7c-3.1-6.9-8-10.1-6.8-18.5c-4,4.1-10.4,8.7-19.5,7.4
			c-1.1,1.8-7.1,11.4-10.8,14C1544.1,1618,1525.9,1617,1524.7,1628.8z"/>
		<path class="st5" d="M1390.6,1628.8h62.4c0,0,2.3-10-1.8-16.7c-3.6-6-2.2-9.4,0.4-14.4c-2.8,1.2-6.5,2.2-10.5,2
			c-3.1-0.2-6.4-1.6-9.3-3.3c-2.7,3.1-14.2,16.1-17.8,18.7C1410.1,1618,1391.9,1617,1390.6,1628.8z"/>
		<path class="st3" d="M1334.2,1152c0,0-5.5-7.4-8.9-8.9c-3.4-1.5-6.7-11.1-8.6-8.2c-1.2,1.8,1.8,8.4,1,9.9
			c-0.7,1.5-8.3-1.7-9.6-3.8c-0.9-1.4-8.7-10.8-8.8-6.5c-0.2,4.3,6.6,20.9,10,23.1c3.4,2.1,16,5,16,5L1334.2,1152z"/>
		<path class="st4" d="M1504.4,1111.5c-14.1,34.5-68.5,77.3-68.5,77.3l-0.9-1.1c-1.7-7.4-3.6-15-5.5-22.4l57.9-53.9H1504.4z"/>
		<path class="st3" d="M1327.1,1152.7l-1.8,9.9c0,0,31.1,7.1,37.9,8.6l0.1,0c11.8,2.3,25.2,4.8,36.8,6c8.2,0.8,15.6,1,21,0.3
			c0.5-0.1,1-0.2,1.6-0.3c13.3-2.7,35-18.5,54.7-37.1c2.7-2.6,5.4-5.2,8-7.7c9.5-9.5,18.1-19.1,24.6-27.9c3.9-5.2,7.2-10.1,9.4-14.4
			c0.8-1.5,1.5-2.9,2.1-4.3c11.2-24.8,0.5-33.8,0.5-33.8c-0.2-0.2-0.4-0.4-0.7-0.6c-2-1.3-4.9-0.9-8.5,0.9
			c-4.5,2.2-10.2,6.5-16.5,11.9c-9.9,8.8-69.4,81.2-83.3,83.9C1400.9,1150.3,1327.1,1152.7,1327.1,1152.7z"/>
		<path class="st8" d="M1515.7,1047.9c0,0,12.1,3.4,13.2,16.1c1.1,12.7-0.6,52-0.6,52s-39.6-11.4-55.8-35.6
			C1472.5,1080.4,1501.6,1048.2,1515.7,1047.9z"/>
	</g>
	<path class="st23" d="M3051.9,1640.7H165c-2.3,0-4.1-1.8-4.1-4.1v-3.8c0-2.3,1.8-4.1,4.1-4.1h2886.9c2.3,0,4.1,1.8,4.1,4.1v3.8
		C3055.9,1638.9,3054.1,1640.7,3051.9,1640.7z"/>
</g>
</svg>
