<?xml version="1.0" encoding="utf-8"?>
<!-- Generator: Adobe Illustrator 24.3.0, SVG Export Plug-In . SVG Version: 6.00 Build 0)  -->
<svg version="1.1" id="Слой_1" xmlns="http://www.w3.org/2000/svg" xmlns:xlink="http://www.w3.org/1999/xlink" x="0px" y="0px"
	 viewBox="0 0 3200 2000" style="enable-background:new 0 0 3200 2000;" xml:space="preserve">
<style type="text/css">
	.st0{fill:#FFFFFF;}
	.st1{fill:#F8FBFF;}
	.st2{fill:#E7F1FB;}
	.st3{fill:#DEEDFF;}
	.st4{fill:#F99746;}
	.st5{fill:#FFB278;}
	.st6{fill:#82B378;}
	.st7{fill:#A8D29F;}
	.st8{fill:#F1A34F;}
	.st9{fill:#FFB973;}
	.st10{fill:#D86713;}
	.st11{fill:#D1A586;}
	.st12{fill:#E5BD9E;}
	.st13{fill:#DFB697;}
	.st14{fill:#A0795F;}
	.st15{fill:#6BB7BF;}
	.st16{fill:#8AD8DB;}
	.st17{fill:#ED9F4A;}
	.st18{fill:#FFB27D;}
	.st19{fill:#C45446;}
	.st20{fill:#E37970;}
	.st21{fill:#1C468A;}
	.st22{fill:#C65447;}
	.st23{fill:#163560;}
	.st24{fill:#F4A269;}
	.st25{fill:#599DAD;}
	.st26{fill:#E2915A;}
	.st27{fill:#233862;}
	.st28{fill:#2B478B;}
	.st29{fill:#E9F3FE;}
	.st30{fill:#22407A;}
	.st31{fill:#D9E9F9;}
	.st32{fill:#BA4C43;}
	.st33{fill:#AA413E;}
	.st34{fill:#B5453C;}
	.st35{fill:#ED975D;}
	.st36{fill:#699DEE;}
	.st37{fill:#4A75CB;}
	.st38{fill:#E7F1FD;}
	.st39{fill:#ED7D2B;}
	.st40{fill:#C69D7F;}
	.st41{fill:#E0B594;}
	.st42{fill:#2E3552;}
</style>
<rect class="st0" width="3200" height="2000"/>
<g>
	<g>
		<path class="st1" d="M2885.3,1513.4H303.6c0,0-2.2-21.3-2.9-55.7c-0.4-20.1-0.2-44.6,1.2-71.9c0.1-2.2,0.2-4.5,0.4-6.8
			c0.8-12.5,1.8-25.6,3.1-39.1c0.1-1.2,0.2-2.4,0.4-3.6c1.5-14.1,3.3-28.8,5.7-43.8c1.9-12.2,4.1-24.8,6.6-37.5
			c0.2-0.9,0.4-1.8,0.5-2.7c1.3-6.5,2.7-13,4.2-19.6c0.6-2.6,1.2-5.2,1.8-7.7c1.2-5,2.5-10.1,3.8-15.2c3.2-12.5,6.8-25,10.8-37.6
			c0.4-1.3,0.8-2.6,1.2-3.9c1.8-5.6,3.7-11.2,5.7-16.9c3-8.6,6.2-17.1,9.6-25.7c2.1-5.4,4.3-10.7,6.6-16.1
			c21.7-50.6,50.7-100.2,89.4-144.6C540.3,863.5,680,789.1,899.3,791.3c44.1,0.4,85-0.7,123.3-3.3h0.1c11.6-0.8,23-1.7,34.1-2.7
			l0.1,0c253.2-23.3,380.1-110.1,495.5-194.8c4.1-3,8.3-6.1,12.4-9.1c40.3-29.7,79.8-58.9,123.3-84.6c11.1-6.6,22.5-13,34.3-19.1
			c72.1-37.4,157.5-64.5,275.4-70.4c11.5-0.6,22.7-0.5,33.6,0.2c4.2,0.3,8.3,0.6,12.4,1.1c45.9,5,86.4,21.4,120.4,47.2
			c88.4,67.2,132.4,198.6,109.4,362.7c-15.6,111.1,19.6,171.4,79.9,210.8C2520.1,1138.3,2879,1087.5,2885.3,1513.4z"/>
		<polygon class="st2" points="1637.1,1088.2 1637.1,1037.5 1625.2,1037.5 1625.2,950.2 1561.5,950.2 1561.5,1037.5 1501.8,1037.5 
			1501.8,895.3 1436.1,895.3 1436.1,987.6 1421.1,987.6 1421.1,877.4 1355.3,877.4 1355.3,1084 1272,1084 1272,1204.4 1241,1204.4 
			1241,1150.8 1169.5,1150.8 1169.5,1182.5 1128.5,1182.5 1128.5,1040.6 1077.9,1040.6 1077.9,1145.6 1027.2,1145.6 1027.2,1530.7 
			1077.9,1530.7 1121.3,1530.7 1128.5,1530.7 1169.5,1530.7 1192.7,1530.7 1229.8,1530.7 1241,1530.7 1272,1530.7 1301.3,1530.7 
			1355.3,1530.7 1371.8,1530.7 1404.7,1530.7 1421.1,1530.7 1436.1,1530.7 1470.5,1530.7 1493.9,1530.7 1501.8,1530.7 
			1561.5,1530.7 1624.2,1530.7 1625.2,1530.7 1637.1,1530.7 1688,1530.7 1688,1088.2 		"/>
		<polygon class="st2" points="2351.2,1262.6 2351.2,1530.7 1712.8,1530.7 1712.8,1297.4 1761.7,1297.4 1761.7,1233.7 
			1810.6,1233.7 1810.6,1319.7 1850.3,1319.7 1850.3,1300.5 1919.3,1300.5 1919.3,1333 1949.3,1333 1949.3,1260 2029.7,1260 
			2029.7,1134.9 2093.3,1134.9 2093.3,1201.6 2107.8,1201.6 2107.8,1145.7 2171.4,1145.7 2171.4,1231.8 2229,1231.8 2229,1179 
			2290.6,1179 2290.6,1231.8 2302.1,1231.8 2302.1,1262.6 		"/>
		<polygon class="st2" points="1033.7,1157.5 1033.7,1529.3 451.6,1529.3 451.6,1205.8 496.2,1205.8 496.2,1117.4 540.9,1117.4 
			540.9,1236.8 577,1236.8 577,1210.1 639.9,1210.1 639.9,1255.2 667.3,1255.2 667.3,1153.9 740.6,1153.9 740.6,980.4 798.6,980.4 
			798.6,1072.9 811.8,1072.9 811.8,995.4 869.8,995.4 869.8,1114.8 922.3,1114.8 922.3,1041.5 978.5,1041.5 978.5,1114.8 
			989,1114.8 989,1157.5 		"/>
		<path class="st3" d="M1722.3,477.7v1050.5H1688V496.8C1699.1,490.2,1710.5,483.8,1722.3,477.7z"/>
		<polygon class="st3" points="1056.8,785.3 1056.8,1513.4 1056.8,1528.3 1022.5,1528.3 1022.5,1513.4 1022.5,788 		"/>
	</g>
	<g>
		<path class="st4" d="M1564.7,581.4v81.7c0,10.3-2.6,18.7-5.8,18.7h-0.8c-3.2,0-5.8-8.4-5.8-18.7v-72.6
			C1556.4,587.5,1560.5,584.4,1564.7,581.4z"/>
		<path class="st4" d="M1555.2,648.8c-45.1,0-81.7,38.7-81.7,86.4H1637C1637,687.5,1600.4,648.8,1555.2,648.8z"/>
		<path class="st5" d="M1561.8,649.8c-2.3-0.5-4.7-0.8-7.2-0.8c-29.4,0-53.3,38.6-53.3,86.2h14.4
			C1515.7,691.6,1535.7,655.5,1561.8,649.8z"/>
	</g>
	<g>
		<path class="st4" d="M2043.7,408.6v234.7c0,2.1,0,4.1-0.1,6c-0.4,18.3-2.8,32.4-5.7,32.4h-0.8c-2.7,0-4.9-12.1-5.6-28.5
			c-0.1-1.3-0.1-2.7-0.1-4.1c0-0.1,0-0.2,0-0.3c0-1.8-0.1-3.6-0.1-5.5V407.6C2035.5,407.8,2039.6,408.2,2043.7,408.6z"/>
		<path class="st4" d="M2034.3,648.8c-45.1,0-81.7,38.7-81.7,86.4H2116C2116,687.5,2079.5,648.8,2034.3,648.8z"/>
		<path class="st5" d="M2040.8,649.8c-2.3-0.5-4.7-0.8-7.2-0.8c-29.4,0-53.3,38.6-53.3,86.2h14.4
			C1994.7,691.6,2014.8,655.5,2040.8,649.8z"/>
	</g>
	<path class="st3" d="M2885.3,1529.6h-534v0.2h-187.1V455.8c88.4,68.2,132.4,201.6,109.4,368.2c-15.6,112.8,19.6,174,79.9,214
		C2520.1,1148.7,2879,1097.2,2885.3,1529.6z"/>
	<g>
		<g>
			<path class="st6" d="M2555.5,1402.7c0,0-20.6-24-1.3-39.3c0,0,14.1-8.6,25.6-7.9c0,0-16.3,27.4-11,30.1c5.3,2.7,16-31.8,16-31.8
				s32.1-3.1,42.5,1.9c0,0-27.5,22.5-21.7,23.8s35.5-20.7,35.5-20.7s29.9,5.1,28.3,23.3c-1.6,18.3-11.9,23.9-16.4,23.4
				c-4.5-0.5-31-10.6-31.6-6.9c-0.6,3.7,15.4,15.8,26.5,16.4c0,0-21.1,23.3-35.1,16.5c-14-6.7-15.2-17.4-24-21.3
				c-8.7-4-16.2-4-12.6,0.1c3.6,4.1,19.4,8,24.4,16.9c5,8.8,9.5,14.8-5,12.6c-14.5-2.2-38.1-12.8-39.1-24.9
				S2555.5,1402.7,2555.5,1402.7z"/>
			<g>
				<path class="st6" d="M2654.7,1382.6c0,0-81.3-3.1-99.2,20.1c0,0-4,11.9-16.2,22.7l-1.9,5.2c0,0,14.1-14.8,19.1-15.7
					C2556.5,1414.9,2548.6,1386.1,2654.7,1382.6z"/>
				<path class="st6" d="M2539.3,1425.4c0,0-17.4,12.9-18.7,35.9l3.2,0.3c0,0,5.6-23.8,15.6-33.1
					C2549.5,1419.2,2539.3,1425.4,2539.3,1425.4z"/>
			</g>
		</g>
		<g>
			<path class="st7" d="M2483.4,1372.5c0,0,32.8-18.4,17.5-43.3c0,0-12.2-15.3-25.4-19.2c0,0,7,37.2,0,38c-7,0.9-4.8-42-4.8-42
				s-34.5-16.6-48.1-15.3c0,0,21.4,36.3,14.4,35.4c-7-0.9-31-37.6-31-37.6s-35.4-6.6-41.1,14.4c-5.7,21,3.5,31.5,8.7,32.8
				c5.2,1.3,38.9,0.9,38,5.2c-0.9,4.4-23.6,11.4-36.3,7.4c0,0,14,34.5,32.3,32.8c18.4-1.7,24-13.1,35.4-14c11.4-0.9,19.7,2.2,14,5.2
				c-5.7,3.1-24.9,1-34.1,8.8c-9.2,7.8-16.6,12.6,0.4,16.1s47.6,1.3,53.8-11.8C2483.4,1372.5,2483.4,1372.5,2483.4,1372.5z"/>
			<g>
				<path class="st6" d="M2381.1,1309.5c0,0,91.8,29.7,102.3,62.9c0,0-0.4,14.9,8.7,31.9v6.6c0,0-9.6-22.3-14.9-25.4
					C2477.3,1385.6,2497.9,1356.7,2381.1,1309.5z"/>
				<path class="st6" d="M2492.2,1404.4c0,0,14.2,21.5,6.1,47.7l-3.6-1c0,0,3.5-28.8-3.9-43.3
					C2483.3,1393.3,2492.2,1404.4,2492.2,1404.4z"/>
			</g>
		</g>
		<g>
			<path class="st7" d="M2535.6,1347.1c0,0-43.2-24.2-23-57c0,0,16.1-20.2,33.4-25.4c0,0-9.2,49,0,50.1c9.2,1.2,6.3-55.3,6.3-55.3
				s45.5-21.9,63.4-20.2c0,0-28.2,47.8-19,46.7c9.2-1.2,40.9-49.6,40.9-49.6s46.7-8.6,54.2,19s-4.6,41.5-11.5,43.2
				c-6.9,1.7-51.3,1.2-50.1,6.9s31.1,15,47.8,9.8c0,0-18.4,45.5-42.6,43.2s-31.7-17.3-46.7-18.4c-15-1.2-25.9,2.9-18.4,6.9
				s32.8,1.3,44.9,11.6c12.1,10.3,21.9,16.6-0.6,21.2s-62.8,1.7-70.9-15.6C2535.6,1347.1,2535.6,1347.1,2535.6,1347.1z"/>
			<g>
				<path class="st6" d="M2670.4,1264.2c0,0-121,39.2-134.8,83c0,0,0.6,19.6-11.5,42.1v8.6c0,0,12.7-29.4,19.6-33.4
					C2543.7,1364.4,2516.6,1326.4,2670.4,1264.2z"/>
				<path class="st6" d="M2524.1,1389.2c0,0-18.7,28.3-8,62.8l4.8-1.3c0,0-4.7-38,5.1-57.1S2524.1,1389.2,2524.1,1389.2z"/>
			</g>
		</g>
		<path class="st8" d="M2534.1,1526.8c46.8,0,84.6-37.9,84.6-84.7h-169.3C2449.5,1488.9,2487.4,1526.8,2534.1,1526.8z"/>
		<path class="st9" d="M2555,1526.2c-3.4,0.4-7,0.6-10.5,0.6c-46.8,0-84.6-37.9-84.6-84.7h21C2480.8,1485.4,2513.2,1521,2555,1526.2
			z"/>
		<path class="st8" d="M2619.9,1531.1h-171.6l0,0c0-5.8,4.7-10.4,10.4-10.4h150.8C2615.3,1520.7,2619.9,1525.4,2619.9,1531.1
			L2619.9,1531.1z"/>
		<rect x="2446.7" y="1442.2" class="st10" width="174" height="2.6"/>
	</g>
	<g>
		<path class="st11" d="M2178.3,1265.9c1.5-37.3,4.9-69.8,8.8-92.4c6.3-36.1,12-56.8,12.1-57c0.8-3.2,12.9-16,39.6-15.6
			c26.8,0.4,24.2,17.2,24.2,17.2l0,0c0,0.6-0.1,1.1-0.2,1.5c-0.3,0.9-24.8,88.7-23.8,202.1c0,1.6,0.2,4.3,0.1,6.2c0,0-62,1.6-62,0
			C2175,1318,2176,1290.5,2178.3,1265.9z"/>
		<path class="st12" d="M2170.5,1321.2c0,1.6,0.9,2.8,1.9,2.8h0c1,0,1.9-1.3,1.9-2.8h53.1c0,1.6,0.9,2.8,1.9,2.8h0
			c1,0,1.9-1.3,1.9-2.9c-0.3-32.5,1.6-62.8,4.4-89.5c7.1-66.7,20.1-111.3,20.3-112c0.1-0.4,0.2-0.9,0.2-1.5c0,0,2.5-16.8-24.2-17.2
			c-26.8-0.4-38.8,12.4-39.6,15.6c0,0.2-3.3,11.9-7.6,33c-1.4,7-3,15-4.5,24c-4,22.6-7.3,55.1-8.8,92.4
			C2169.1,1290.5,2168.3,1311.2,2170.5,1321.2z"/>
		<path class="st13" d="M2170.5,1321.2c0,1.6,0.9,2.8,1.9,2.8h0c1,0,1.9-1.3,1.9-2.8h53.1c0,1.6,0.9,2.8,1.9,2.8h0
			c1,0,1.9-1.3,1.9-2.9c-0.3-32.5,1.6-62.8,4.4-89.5c-8.8-42.3-42.7-74.7-50.9-82c-1.4,7-3,15-4.5,24c-4,22.6-7.3,55.1-8.8,92.4
			C2169.1,1290.5,2168.3,1311.2,2170.5,1321.2z"/>
		<g>
			<path class="st11" d="M2224.1,1320.6l-0.1-0.1c0,0-0.1-0.1-0.1-0.3l0,0c0-0.4-0.1-0.8-0.4-1.1c-1.7-1.7-8.1-1.6-16.3-1.5
				c-8.9,0.1-20,0.2-31-1.7c-5.7-1-1.9-44.3,2.2-84.9c0.7-6.9,1.2-12.3,1.5-15.5c2.6-34.5,17.9-95.7,18-96.2
				c0.7-2.6,9.9-12.1,29.8-11.8c7.5,0.1,12.9,2,15.9,5.5c3,3.6,2.5,7.5,2.4,7.7c0,0.4,0,0.8-0.2,1.2c-0.1,0.3-13.8,79.5-16.1,98.5
				c-3.7,31.3-5.2,96.1-5.2,99.8c0,0,0,0.1,0,0.1l0,0.2L2224.1,1320.6z M2212.2,1317c6,0,10.1,0.3,11.6,1.8c0,0,0,0,0,0
				c0-1.5,0.1-4.3,0.3-9.6c0.2-6.2,0.5-15.9,0.9-26.8c0.8-19.1,2.1-45.4,4.1-62.1c2.3-19.5,16-98.4,16.1-98.6c0.1-0.3,0.1-0.7,0.1-1
				c0-0.1,0.5-3.9-2.3-7.2c-2.9-3.4-8.1-5.2-15.4-5.3c-19.6-0.3-28.5,8.9-29.2,11.4c-0.2,0.6-15.4,61.5-18,96.1
				c-0.2,3.2-0.8,8.6-1.5,15.5c-2.7,27-8.3,83.2-2.7,84.2c11,1.9,22,1.8,30.9,1.7C2208.9,1317,2210.6,1317,2212.2,1317z"/>
		</g>
		<path class="st12" d="M2235.1,1324h-208.3c0,0,4.9-19.4,125.5-16.5C2237.7,1309.6,2235.1,1324,2235.1,1324z"/>
		<g>
			<path class="st11" d="M2252.1,1526.3c-24.2-120.6-17.9-194.6-17.9-195.6c0.1-1.9-3.4-3.5-5.3-3.6c-1.9,0-10.2-0.5-11.2,1
				c-1.3,2.1-6.1,93.3,29.9,198.1H2252.1z"/>
		</g>
		<g>
			<path class="st11" d="M2057.6,1526.3c24.2-120.6,17.9-194.6,17.9-195.6c-0.1-1.9,3.4-3.5,5.3-3.6c1.9,0,10.2-0.5,11.2,1
				c1.3,2.1,6.1,93.3-29.9,198.1H2057.6z"/>
		</g>
		<g>
			<path class="st14" d="M2019,1526.3c24.2-120.6,17.9-194.6,17.9-195.6c-0.1-1.9,3.4-3.5,5.3-3.6c1.9,0,10.2-0.5,11.2,1
				c1.3,2.1,6.1,93.3-29.9,198.1H2019z"/>
		</g>
		<g>
			<path class="st14" d="M2213.3,1526.3c-24.2-120.6-17.9-194.6-17.9-195.6c0.1-1.9-3.4-3.5-5.3-3.6c-1.9,0-10.2-0.5-11.2,1
				c-1.3,2.1-6.1,93.3,29.9,198.1H2213.3z"/>
		</g>
		<path class="st11" d="M2026.6,1330.2h208.4c2.3,0,4.2-1.9,4.2-4.2v-2.7c0-2.3-1.9-4.2-4.2-4.2h-208.4c-2.3,0-4.2,1.9-4.2,4.2v2.7
			C2022.4,1328.3,2024.3,1330.2,2026.6,1330.2z"/>
	</g>
	<g>
		<path class="st11" d="M1389.8,1262.3c1.5-37.8,4.9-70.7,8.8-93.7c6.3-36.6,12-57.6,12.1-57.8c0.8-3.2,12.9-16.2,39.6-15.8
			c26.8,0.4,24.2,17.5,24.2,17.5l0,0c0,0.6-0.1,1.1-0.2,1.5c-0.3,0.9-24.8,89.9-23.8,204.9c0,1.6,0.2,4.4,0.1,6.3c0,0-62,1.6-62,0
			C1386.5,1315.1,1387.6,1287.2,1389.8,1262.3z"/>
		<path class="st12" d="M1382,1318.3c0,1.6,0.9,2.9,1.9,2.9h0c1,0,1.9-1.3,1.9-2.9h53.1c0,1.6,0.9,2.9,1.9,2.9h0c1,0,1.9-1.3,1.9-3
			c-0.3-32.9,1.6-63.7,4.4-90.8c7.1-67.7,20.1-112.9,20.3-113.5c0.1-0.4,0.2-0.9,0.2-1.5c0,0,2.5-17.1-24.2-17.5
			c-26.8-0.4-38.8,12.6-39.6,15.8c0,0.2-3.3,12.1-7.6,33.5c-1.4,7.1-3,15.2-4.5,24.3c-4,22.9-7.3,55.8-8.8,93.7
			C1380.6,1287.2,1379.8,1308.3,1382,1318.3z"/>
		<path class="st13" d="M1382,1318.3c0,1.6,0.9,2.9,1.9,2.9h0c1,0,1.9-1.3,1.9-2.9h53.1c0,1.6,0.9,2.9,1.9,2.9h0c1,0,1.9-1.3,1.9-3
			c-0.3-32.9,1.6-63.7,4.4-90.8c-8.8-42.9-42.7-75.8-50.9-83.2c-1.4,7.1-3,15.2-4.5,24.3c-4,22.9-7.3,55.8-8.8,93.7
			C1380.6,1287.2,1379.8,1308.3,1382,1318.3z"/>
		<g>
			<path class="st11" d="M1435.6,1317.8l-0.1-0.1c0,0-0.1-0.1-0.1-0.3l0,0c0-0.5-0.1-0.8-0.4-1.1c-1.7-1.7-8.1-1.7-16.3-1.6
				c-8.9,0.1-20,0.2-31-1.7c-5.7-1-1.9-44.9,2.2-86c0.7-7,1.2-12.5,1.5-15.8c2.6-34.8,17.9-97,18-97.5c0.7-2.6,9.9-12.3,29.8-12
				c7.5,0.1,12.8,2,15.8,5.5c3.1,3.6,2.5,7.7,2.5,7.8c0,0.4,0,0.8-0.2,1.2c-0.1,0.3-13.8,80.6-16.1,99.9
				c-3.7,31.7-5.2,97.5-5.2,101.1c0,0,0,0.1,0,0.1l0,0.2L1435.6,1317.8z M1423.7,1314c5.9,0,10.1,0.3,11.6,1.8c0,0,0,0,0,0
				c0-1.5,0.1-4.3,0.3-9.7c0.2-6.3,0.5-16.1,0.9-27.2c0.8-19.4,2.1-46,4.1-63c2.3-19.7,16-99.7,16.1-100c0.1-0.3,0.1-0.7,0.1-1
				c0-0.1,0.5-4-2.4-7.4c-2.9-3.4-8-5.2-15.3-5.3c-0.3,0-0.6,0-0.9,0c-18.9,0-27.6,9.1-28.3,11.5c-0.2,0.6-15.4,62.4-18,97.4l-0.3,0
				l0.3,0c-0.2,3.3-0.8,8.8-1.5,15.8c-2.7,27.4-8.3,84.4-2.7,85.4c11,1.9,22,1.8,30.9,1.7C1420.4,1314.1,1422.1,1314,1423.7,1314z"
				/>
		</g>
		<path class="st12" d="M1446.7,1321.2h-208.3c0,0,4.9-19.6,125.5-16.7C1449.2,1306.5,1446.7,1321.2,1446.7,1321.2z"/>
		<g>
			<path class="st11" d="M1463.6,1526.3c-24.2-122.3-17.9-197.3-17.9-198.3c0.1-1.9-3.4-3.6-5.3-3.7c-1.9,0-10.2-0.6-11.2,1.1
				c-1.3,2.1-6.1,94.6,29.9,200.9H1463.6z"/>
		</g>
		<g>
			<path class="st11" d="M1269.1,1526.3c24.2-122.3,17.9-197.3,17.9-198.3c-0.1-1.9,3.4-3.6,5.3-3.7c1.9,0,10.2-0.6,11.2,1.1
				c1.3,2.1,6.1,94.6-29.9,200.9H1269.1z"/>
		</g>
		<g>
			<path class="st14" d="M1230.5,1526.3c24.2-122.3,17.9-197.3,17.9-198.3c-0.1-1.9,3.4-3.6,5.3-3.7c1.9,0,10.2-0.6,11.2,1.1
				c1.3,2.1,6.1,94.6-29.9,200.9H1230.5z"/>
		</g>
		<g>
			<path class="st14" d="M1424.8,1526.3c-24.2-122.3-17.9-197.3-17.9-198.3c0.1-1.9-3.4-3.6-5.3-3.7c-1.9,0-10.2-0.6-11.2,1.1
				c-1.3,2.1-6.1,94.6,29.9,200.9H1424.8z"/>
		</g>
		<path class="st11" d="M1238.2,1327.5h208.3c2.3,0,4.3-1.9,4.3-4.3v-2.8c0-2.3-1.9-4.3-4.3-4.3h-208.3c-2.3,0-4.3,1.9-4.3,4.3v2.8
			C1233.9,1325.5,1235.8,1327.5,1238.2,1327.5z"/>
	</g>
	<g>
		<g>
			<path class="st15" d="M1525.8,1163c0,0,17.2,7,29.5-10.6C1555.2,1152.5,1535.4,1149.1,1525.8,1163z"/>
			<path class="st15" d="M1524.6,1155.8c0,0-1.2-6.2-8.4-6.4C1516.2,1149.5,1518.9,1155.7,1524.6,1155.8z"/>
			<path class="st15" d="M1528.2,1119.8c0,0,8.3,0.9,11.5-8.3C1539.7,1111.6,1530.6,1112.6,1528.2,1119.8z"/>
			<g>
				<path class="st15" d="M1548,998.9c-16.8-3.6-17.1-17.4-17.1-17.4C1550.7,987.8,1548,998.9,1548,998.9z"/>
				<path class="st15" d="M1549.2,995.7c0,0,10.5,4.3,18-6.5C1567.1,989.3,1555,987.2,1549.2,995.7z"/>
				<g>
					<path class="st15" d="M1526.1,1203.4l-2.2,2.5c-0.3,0.4-1,0.1-1-0.4c0.1-70.9,9.1-133.9,16.7-171.1
						c8.3-40.6,16.6-64.6,16.7-64.8l0,0c-0.1,0.2-7.6,24.6-15.9,65.1c-7.6,37.2-16.2,85.9-14,167.7
						C1526.5,1202.8,1526.3,1203.2,1526.1,1203.4z"/>
				</g>
				<path class="st4" d="M1556.2,960c-2.7,2.2-13,11.4-3,18.5c0,0,7.6,2.4,10.2-3.5c1.9-4.5,2.5-9.5,2.6-11.6c0-0.6-0.4-1-0.9-1.1
					c-0.6-0.1-1.4-0.2-2.2-0.5c-0.9-0.4-1.4-1.8-2.7-2.1c-0.8-0.2-1.6-0.4-2.5-0.3C1557.1,959.5,1556.6,959.7,1556.2,960z"/>
				<path class="st15" d="M1550.5,975.9c0,0,3,2.4,1.9,6.3l0,1.4c0,0,0.8-3.6,4.5-4.7C1557,979,1553.6,979.4,1550.5,975.9z"/>
				<path class="st16" d="M1548,998.9c-16.8-3.6-17.1-17.4-17.1-17.4S1544.2,988.8,1548,998.9z"/>
			</g>
			<g>
				<path class="st15" d="M1531.8,989.4c0,0-10.6,4.1-17.8-6.8C1514,982.6,1526.2,980.8,1531.8,989.4z"/>
				<g>
					<path class="st15" d="M1550.7,1197.6l2.1,2.5c0.3,0.4,1,0.2,1-0.3c1.3-70.9-6.4-134.1-13.3-171.4
						c-7.4-40.7-15.3-64.9-15.4-65.1l0,0c0.1,0.2,7.1,24.8,14.6,65.4c6.8,37.4,14.5,86.2,10.7,168
						C1550.4,1196.9,1550.5,1197.3,1550.7,1197.6z"/>
				</g>
				<path class="st4" d="M1525.5,953.6c2.6,2.2,12.7,11.6,2.6,18.5c0,0-7.7,2.3-10.1-3.7c-1.8-4.5-2.3-9.6-2.4-11.7
					c0-0.6,0.4-1,1-1.1c0.6,0,1.4-0.2,2.2-0.4c1-0.3,1.5-1.8,2.7-2.1c0.8-0.2,1.6-0.3,2.6-0.2C1524.6,953,1525.1,953.3,1525.5,953.6
					z"/>
				<path class="st15" d="M1530.9,969.6c0,0-3.1,2.4-2,6.3l0,1.4c0,0-0.7-3.6-4.5-4.8C1524.4,972.5,1527.7,973,1530.9,969.6z"/>
			</g>
			<g>
				<path class="st15" d="M1536.3,977c0,0,11.2,1.9,16.1-10.2C1552.5,966.8,1540.2,967.4,1536.3,977z"/>
				<g>
					<path class="st15" d="M1559.1,1184.7l-1.6,2.9c-0.2,0.4-0.9,0.3-1-0.1c-15.3-69.2-20.3-132.7-21-170.6
						c-0.8-41.4,2.1-66.6,2.2-66.9l0,0c0,0.2-2.1,25.7-1.3,67c0.7,38,2.9,87.4,22.9,166.7
						C1559.3,1184.1,1559.3,1184.4,1559.1,1184.7z"/>
				</g>
				<path class="st4" d="M1535.4,940.6c-2.2,2.7-10.2,13.9,1.1,18.7c0,0,8,0.7,9.2-5.6c0.9-4.8,0.3-9.8,0-11.9
					c-0.1-0.5-0.6-0.9-1.1-0.8c-0.6,0.1-1.4,0.1-2.2,0c-1-0.2-1.8-1.4-3.1-1.5c-0.8,0-1.7,0-2.5,0.3
					C1536.2,939.9,1535.8,940.2,1535.4,940.6z"/>
				<path class="st15" d="M1533.3,957.4c0,0,3.5,1.7,3.3,5.8l0.3,1.4c0,0,0-3.7,3.4-5.6C1540.3,959,1537.1,960.1,1533.3,957.4z"/>
			</g>
			<path class="st15" d="M1545.6,964.6c0,0,0-8.9,7.6-11.6C1553.2,952.9,1554.9,960.3,1545.6,964.6z"/>
			<path class="st17" d="M1527.6,950.3c0,0,0.2-6.8-6-8.7C1521.6,941.6,1520.1,947.9,1527.6,950.3z"/>
			<path class="st17" d="M1548.1,991c0.2,0.2,3.3-6.6-2.9-12C1545.2,979,1542.6,986.2,1548.1,991z"/>
			<path class="st15" d="M1552.5,990.5c-0.2,0,0-3.4,3.2-3.9C1555.6,986.6,1556.2,989.5,1552.5,990.5z"/>
			<path class="st15" d="M1520.5,979c0,0-2.7-5.6-11.4-4.6C1509.1,974.4,1510.4,980.4,1520.5,979z"/>
		</g>
		<path class="st4" d="M1568.4,1211.7h-55.5c-3.7,0-6.6-3.3-6.1-7l25.8-178.1c0.2-1.7,1.7-2.9,3.3-2.9h8.3c1.8,0,3.3,1.3,3.6,3.1
			l26.5,178.1C1574.8,1208.5,1572,1211.7,1568.4,1211.7z"/>
		<g>
			<path class="st5" d="M1525.1,1206.3l13.7-182.6c-1.5,0.2-2.7,1.3-2.9,2.9l-25.8,178.1c-0.5,3.7,2.3,7,6.1,7h11.1
				C1525.8,1210.4,1525,1208.5,1525.1,1206.3z"/>
		</g>
	</g>
	<g>
		<path class="st18" d="M2069.6,1192.3c0,0-38.1,43.5-45.9,42.8c-8-0.7-12.8-3.2-19.8,0c-5,2.3-20.7,15-16.5,14.1
			c4.2-0.8,11.9-1.8,13.9-2c2.8-0.3,7.2-0.3,10.3-0.9c1.9-0.3,8.8-0.5,11.1-0.6c10-0.3,57.4-28,57.4-28L2069.6,1192.3z"/>
		<g>
			<path class="st19" d="M2007,1145.8c-1.5-0.9-4.5-0.6-6.6-0.1v-3.1c0-0.7,0-1.4-0.1-2h-32c-0.1,0.7-0.1,1.3-0.1,2v6.3
				c0,8.9,7.3,16.1,16.1,16.1c4.8,0,9.1-2.1,12.1-5.5l0,0c0,0,7.6-1.9,10-4.7S2009.5,1147.4,2007,1145.8z M2005.3,1151.6
				c-0.8,2.1-4.4,3.2-6.2,3.6c0.7-1.6,1.2-3.4,1.3-5.3c1.1-1.5,2.9-2.4,4.1-2.2C2005.6,1148,2006.3,1149,2005.3,1151.6z"/>
			<path class="st20" d="M1970.7,1142.6v6.3c0,8.9,7.3,16.1,16.1,16.1c0.7,0,1.5-0.1,2.2-0.2c-7.9-1.1-14-7.8-14-16v-6.3
				c0-0.7,0-1.4,0.1-2h-4.3C1970.8,1141.3,1970.7,1141.9,1970.7,1142.6z"/>
			<rect x="1977.6" y="1163.6" class="st19" width="13.2" height="2"/>
		</g>
		<path class="st21" d="M2096.1,971.4c0,0,1.7-21.8,33.1-16.2c8.3,1.5,14-13.3,27.6-8c29.3,11.4,31-3.6,39.5,17.4
			c3.5,8.8,26.1,19.1,19.2,34.3c-6.9,15.2,4.6,25.5-3.5,37.4c-4.2,6.2-2.5,17.2-22.2,17.6c-9.8,0.2-25.2,18.4-36.2,21.7
			s-44.2-1.5-42.9-16.6c1-11.8-12.8-10.8-21.3-24.4c-7.4-11.9,5.8-14.9-1.3-34.1C2083,986.5,2096.5,983.1,2096.1,971.4z"/>
		<g>
			<path class="st18" d="M1923.3,1508.9c0.7,7.3-9.5,9.1-21.3,9.7c-11.8,0.6-8.2,3-24.4,5.9c-16.2,2.9-22.6-1.5-23.8-3.7
				c-1-1.9,6.5-5,14.5-8.4c1-0.4,2-0.9,3-1.3c9-4,14.1-12,21.1-19.5c6.7-7.1,13-29.8,13-29.8l21.9-4.7c0,0-6.2,20.4-8.3,29.2
				c-1.3,5.1,0.6,10.9,2.2,15.2C1922.2,1503.9,1923.1,1506.3,1923.3,1508.9z"/>
			<path class="st22" d="M1902,1518.6c-11.8,0.6-8.2,3-24.4,5.9c-16.2,2.9-22.6-1.5-23.8-3.7c-1-1.9,6.5-5,14.5-8.4l0.1,0.1
				c0,0,11.4,3.9,24.5,0.3c10.7-2.9,21-9.3,28.4-11.3c0.9,2.4,1.8,4.8,2,7.4C1924,1516.2,1913.8,1518,1902,1518.6z"/>
		</g>
		<path class="st23" d="M2117.6,1232.2c0,0-121.6,5.5-149.1,22.8s-71.5,219.2-71.5,219.2s2.7,2.2,8.8,2.8c5.6,0.6,18.1-2.7,18.1-2.7
			s63.3-90.3,67.7-113.1c4.5-22.8,3.4-43,13.5-43.6c10.2-0.5,136.7,15.4,155.8-18.3S2117.6,1232.2,2117.6,1232.2z"/>
		<g>
			<path class="st18" d="M1973.5,1509.7c0.7,7.3-9.5,9.1-21.3,9.7s-8.2,3-24.4,5.9c-16.1,2.9-22.6-1.5-23.8-3.7
				c-1-1.9,6.5-5,14.5-8.4c1-0.4,2-0.9,3-1.3c9-4,14.1-12,21.1-19.5c6.7-7.1,13-29.8,13-29.8l21.9-4.7c0,0-6.2,20.4-8.3,29.2
				c-1.3,5.1,0.6,10.9,2.2,15.2C1972.3,1504.7,1973.2,1507.1,1973.5,1509.7z"/>
			<path class="st22" d="M1952.2,1519.4c-11.8,0.6-8.2,3-24.4,5.9c-16.1,2.9-22.6-1.5-23.8-3.7c-1-1.9,6.5-5,14.5-8.4l0.1,0.1
				c0,0,11.4,3.9,24.5,0.3c10.7-2.9,21-9.3,28.4-11.3c0.9,2.4,1.8,4.8,2,7.4C1974.1,1517,1964,1518.8,1952.2,1519.4z"/>
		</g>
		<path class="st21" d="M2164.8,1235.1c0,0-129.5,6.1-156.3,24.5c-26.8,18.4-62.9,221.8-62.9,221.8s2.8,2.1,8.9,2.5
			c5.7,0.4,18-3.4,18-3.4s59.7-92.7,63.3-115.6c3.6-22.9,1.7-43.1,11.8-44.1s137.2,10,155-24.4
			C2220.3,1261.9,2164.8,1235.1,2164.8,1235.1z"/>
		<path class="st18" d="M2203.6,1069.5c0-0.1-0.1-0.1-0.2-0.2c-1-1.2-2.3-2.2-3.6-3.2l0,0c0,0,0,0,0,0c-10.6-7.4-29.5-9-29.5-9v0v0
			c0,0,0,0,0,0c0,0-2.1-0.2-5.3-0.3c-2.5-6.4-5.3-15.9-6.2-29.8l-1.9,0.5l-31.5,8.5c0,0,1.4,10,2,19.5c0.1,2.1,0.3,4.1,0.3,6
			c-0.9,0.3-20.5,3.1-24.8,7.7c-4.3,4.6-12.8,35.1-14.9,40.5l121.4,2C2209.3,1111.6,2212.3,1079.9,2203.6,1069.5z"/>
		<path class="st15" d="M2208,1286.6c-14.4,1.4-62.8-27.9-78.9-37.4c-0.3-0.2-0.6-0.3-0.8-0.5c-6.7-3.9-16.2-5.8-25.2-7.3
			c-11.5-1.9-22.1-3.1-25.6-7.2c-4.1-4.9,7.9-10.3,17.5-15.9c4.8-2.8,9.1-5.7,10.4-8.6c1-2.3,0.9-7.2,0.3-13.6v0
			c-0.1-1.2-0.3-2.4-0.4-3.7c-0.8,1.6-1.8,3.3-2.9,5c-2.8,4.2-6.6,8.5-10.3,12c-4.6,4.3-9.1,7.6-11.9,8.2c-1.9,0.5-3.8,0.2-5.7-0.5
			c-5-2-9.9-7.5-13.8-12.9c-0.9-1.3-1.8-2.5-2.6-3.7c-2.6-4-4.5-7.3-5.2-8.1c-2.2-2.4,8.7-7.1,13.1-10.6
			c4.4-3.5,21.8-72.2,21.8-72.2c2.2-5.4,10.7-35.9,14.9-40.5c0,0,16.6,20.3,38.2,19.1c21.4-1.1,58.1-21.8,58.7-22.1
			c1.9,0.8,3.8,3.4,3.8,3.4c8.8,10.4,5.7,42.1,5.7,42.1s-16.8,74-16.8,81.4c0,13.7,11.3,45.2,16.7,67.8
			C2212.6,1275.3,2213.7,1286.1,2208,1286.6z"/>
		<path class="st24" d="M2125.3,1035.9c0,0,1.4,10,2,19.5c17.8-1.7,26.2-18.6,29.5-27.9L2125.3,1035.9z"/>
		<path class="st18" d="M2119.9,1045.3c0,0,42.3-2.1,40.6-28.5c-1.7-26.3,2.6-44.4-24.5-44.1c-27.1,0.2-31.7,10.6-33.3,19.6
			C2101.2,1001.2,2108.9,1045.2,2119.9,1045.3z"/>
		<path class="st21" d="M2118.2,982.1c0,0,10.1-2.4,13.4,2.6c3.3,4.9,0.9,7.7,8.3,9.7c7.4,2.1,9.9,1.9,9.2,7.1s7.4,9,7.8,13.1
			c0.3,4.1,3.7,6.2,7,6.5c3.2,0.3,1.8-53.3-10.8-55.7s-24.7,0.4-28.3,3.4C2121,971.8,2118.2,982.1,2118.2,982.1z"/>
		<path class="st21" d="M2118.2,982.1c0,0-9.8-0.7-11.6,4.9c-1.8,5.6,0.6,6.9-1.9,10.3c-2.5,3.4-1.1,9.4-1.1,9.4
			s-19.5-35.8,1.1-38.2C2125.1,966.2,2124.6,970.4,2118.2,982.1z"/>
		<path class="st25" d="M2105.3,1184c-2.8,8.4-7.8,17.7-13.1,25.5c-4.6,4.3-9.1,7.6-11.9,8.2c-1.9,0.5-3.8,0.2-5.7-0.5
			c-5-2-9.9-7.5-13.8-12.9c-0.9-1.3-1.8-2.5-2.6-3.7c13.4-10.8,38.9-35.5,41.6-69.3C2103.4,1085.2,2105.5,1186.1,2105.3,1184z"/>
		<path class="st25" d="M2074.5,1217.2c4.7-7.2,14.2-14.2,27.9-19.8c-6.3,9.4-17.1,19-22.2,20.3
			C2078.3,1218.2,2076.4,1217.9,2074.5,1217.2z"/>
		<path class="st25" d="M2186.5,1128.4c0,0-10.6,106.2-57.4,120.8c-0.3-0.2-0.6-0.3-0.8-0.5c-6.7-3.9-16.2-5.8-25.2-7.3
			c-11.5-1.9-22.1-3.1-25.6-7.2c-4.1-4.9,7.9-10.3,17.5-15.9c4.8-2.8,9.1-5.7,10.4-8.6c1-2.3,0.9-7.2,0.3-13.6v0
			C2151.2,1179.4,2186.5,1128.4,2186.5,1128.4z"/>
		<path class="st18" d="M2198.4,1096.9c-4.9-22.1-27.1-9.4-27.1-9.4c-7.7-1.8-64.3,89.9-68.8,92c-3.8,1.8-56-13.4-71.8-18
			c-4.1-3.2-18.4-14.4-21-14.5c-2.9-0.2-22.6,4.8-22.4,7.9c0.1,3.1,4.7,7.7,12,8.8c5.5,0.9,14.8,4.5,20.7,5.4l0,0
			c0,0,57.5,39.2,82,44C2124,1217.4,2203.3,1119,2198.4,1096.9z"/>
		<path class="st15" d="M2067.9,1171.9c0,0-13.3,34.1,2.6,47c15.9,13,50.4,8.6,88.2-44.1c37.8-52.7,53.1-81.4,33.5-89.7
			c-19.6-8.4-35.8,4.8-45.9,25.3c-10.5,21.3-29.7,50.8-41.3,51.9C2093.5,1163.4,2067.9,1171.9,2067.9,1171.9z"/>
	</g>
	<g>
		<path class="st18" d="M1735.4,851.5l0,5.1c0,0-1.4,16.1,18.4,18.4c19.8,2.4,36.1,2,35.5-10.4c-1.8-9.6-5-24.5-5.1-32.5
			c0-3,0.2-6.1,0.7-9.6l-38.4-0.8l-11.3,1.8L1735.4,851.5z"/>
		<path class="st26" d="M1735.2,823.7l0.1,27.8c4.1,1.9,8.7,3.1,13.8,3.1c17.6,0,29.1-12.9,35-22.3c0-3,0.2-6.1,0.7-9.6l-38.4-0.8
			L1735.2,823.7z"/>
		<path class="st18" d="M1787.9,816.4c-4.5,24-35.4,23.2-48.8,21.7c-3.8-0.4-6.1-0.9-6.1-0.9c-4.2-1.1-6.6-7.8-7.7-16.6
			c-2.2-17.3,0.6-42.7,3.5-49.3c4.4-9.8,12.7-20.4,43.9-12.7C1803.8,766.3,1793.6,785.7,1787.9,816.4z"/>
		<path class="st27" d="M1813.2,1526.3h-43.8c0.3-2.3,1.4-9.3,3.5-15.7c0.7-2.2,1.5-4.4,2.5-6.3c4.3-8.5,31.3-3.1,31.3-3.1
			s2.5,2.2,4.5,10.4C1812,1515.1,1812.8,1520,1813.2,1526.3z"/>
		<path class="st27" d="M1680.7,1512.4c-0.1,6-0.9,11.6-3,13.8H1591c1.1-3.1,4.2-7.9,13.1-9.3c10.1-1.6,25.9-6.5,35.1-16.2
			c3.3-3.5,5.7-7.5,6.8-12.3c4.1-18.2,33.7,5.6,33.7,5.6S1680.9,1503.6,1680.7,1512.4z"/>
		<path class="st28" d="M1738.4,1316.1c-1.2,6.7-2,12.1-2.2,16c-2.8,53.8-45.3,176.7-52.9,179.6c-11.8,4.4-30.3-5-40-8.1
			c-4-1.3-6.7-5.3-5.8-9.4c21-96.8,28.8-236.1,31.6-318.6c1.4-41.6,8.6-70.3,8.6-70.3s103.7-27.7,104.3,7.3
			C1782.5,1143.6,1747.6,1265,1738.4,1316.1z"/>
		<path class="st27" d="M1738.4,1316.1l-69.3-140.5c1.4-41.6,8.6-70.3,8.6-70.3s103.7-27.7,104.3,7.3
			C1782.5,1143.6,1747.6,1265,1738.4,1316.1z"/>
		<path class="st28" d="M1715.3,1112.8l54.8,397.2c0,0,24.1,5.8,42.8,1.2c0,0,16-211.2,14.7-262.3s11.5-136.7-2.9-146.1
			C1810.2,1093.3,1715.3,1112.8,1715.3,1112.8z"/>
		<path class="st27" d="M1719.2,748.6c0,0,13.7-1.1,29.9-8.1c13.1-5.7,29.7,0.6,35.1,3.4c-0.1-0.9-0.5-2-1.3-3.2
			c0,0,2.4,1.7,2.8,4.1c0.2,0.2,0.4,0.3,0.3,0.4c0,0,2.7-0.5,4.5,0.3c0,0-1.2-0.2-1.7,0.6c0,0.1-0.1,0.2-0.2,0.2
			c20.5,9.9,22.4,42.3,15.8,49.7c-7.9,9-17.4,29.3-17.4,29.3s-3.5-4.8-2-12.7c1.4-7.9-5.4-7.9-14.1-11.5c-8.6-3.6-1.4-13.7-9-19.8
			c-7.6-6.1-35.3-2.5-35-7.2C1716.5,770.2,1719.2,749.6,1719.2,748.6z"/>
		<path class="st29" d="M1794,871.6l-12.6,270.7c0,0-105.3,1.7-102.3-22.1c3-23.8,38-240.3,38-240.3L1794,871.6z"/>
		<path class="st30" d="M1831.6,1025.1c-6.3,18.8,5.5,81.9,9.8,103.2c0.9,4.5,1.5,7.2,1.5,7.2c-14.6,23.7-68,23.4-68,23.4
			c-10.3-45.4-15.6-117.7-15.6-117.7l41-179.6l51.6,47.7c0,0-3.9,29.1-8.7,58.6C1839.3,991.3,1835,1015.1,1831.6,1025.1z"/>
		<path class="st0" d="M1744,820.4c0,0-1,3.1-8.8,2c0,0-6.6-0.9-6.1-4.4C1729.1,817.9,1735.7,816,1744,820.4z"/>
		<path class="st30" d="M1684.8,875.5c0,0,0,0,0,0.1c-2.5,2.4-72.8,70.7-86.4,97.4c-13.9,27.1,63.4,81.1,63.4,81.1s5,2,8.4,1.2
			c-3.6,30-7.7,57.7-5.3,69.5c4.4,21.3,24.1,28.5,24.1,26.9c0-0.5,7.2-77.6,11.1-117.8c8.4-86.2,29.5-171.8,29.5-171.8
			C1706.6,864.5,1684.8,875.5,1684.8,875.5z M1642.9,984.7c-0.1-0.1-0.1-0.3-0.1-0.4c0-3.9,14.9-12.5,31-22.7
			c0.2-0.2,0.3-0.3,0.3-0.3c0,0,0,0,0,0c-0.3,8.3-0.3,16.5,0.2,24c0.9,14.1-0.1,30.9-1.8,48
			C1664.9,1021.4,1644.4,989.1,1642.9,984.7z"/>
		<g>
			<path class="st31" d="M1797,861.2c0.1-2.6-12.1-6.2-12.1-6.2s-14,19.4-37.1,19.8c0,0,6.6,12.8,14.3,16.1
				C1762.1,891,1796.2,876.6,1797,861.2z"/>
			<path class="st31" d="M1747.8,874.4c0,0-12.2-7.2-12.3-15.1c0,0-7.9-1-11.3,2.8c0,0-2.9,13.5,0.9,21.3
				C1725.1,883.4,1742.7,880.7,1747.8,874.4z"/>
			<path class="st32" d="M1756.1,873.2l-16.6-4c0,0-2.2,0.2-2.1,2.9c0.1,2.7,4.7,10.6,6.7,11.2C1746.2,884,1760,878.7,1756.1,873.2z
				"/>
			<path class="st29" d="M1795.1,859.9c0.1-2.6-8.2-7.9-8.2-7.9s-16,18.7-39.1,19.1c0,0,6.6,12.8,14.3,16.1
				C1762.1,887.2,1794.3,875.3,1795.1,859.9z"/>
			<path class="st29" d="M1747.8,871.1c0,0-12.4-6.6-12.4-14.4c0,0-7.5,3.3-10.9,7.1c0,0-3.2,8.5,0.7,16.3
				C1725.1,880.1,1742.7,877.4,1747.8,871.1z"/>
			<g>
				<path class="st22" d="M1715.4,1057.8c0.6,6.3,3.5,12.2,8.1,16.5l7.3,6.8c1.8,1.7,4.7,1.5,6.3-0.5l9.1-11.6
					c2.4-3.1,3.6-7,3.2-10.9c-0.9-8.7-2.4-25.6-3.7-41.8c-1-13.2-1.9-26-1.9-33.7c-0.2-24.9,4.7-104.1,4.7-104.1l-6,0.3
					c0,0-14.8,30.8-22.5,72.6c-1.9,10.3-3.4,21.3-4.1,32.6C1716,984,1712.9,1029.2,1715.4,1057.8z"/>
				<path class="st32" d="M1715.4,1057.8c0.6,6.3,3.5,12.2,8.1,16.5l7.3,6.8c1.8,1.7,4.7,1.5,6.3-0.5l9.1-11.6
					c2.4-3.1,3.6-7,3.2-10.9c-0.9-8.7-2.4-25.6-3.7-41.8c-16.5-18.5-23.1-44.1-25.7-64.9c-1.9,10.3-3.4,21.3-4.1,32.6
					C1716,984,1712.9,1029.2,1715.4,1057.8z"/>
			</g>
		</g>
		<path class="st18" d="M1656.8,1058.6c0-6.9,6.1-12.4,12.9-11.4c1.9,0.3,3.6,1.1,4.8,2.6c4.7,6.3,9.2,24.4,0.8,25.3
			c-3.4,0.3-7.7-2-11.1-4.6c-3.4-2.6-7.4-6.6-7.4-10.9V1058.6z"/>
		<path class="st27" d="M1841.4,1128.3c-15.1-15.7-41.2-46.6-40.3-72c1.2-35.5,42-88.4,42-88.4c-3.8,23.4-8.1,47.2-11.5,57.2
			C1825.3,1043.9,1837.2,1107,1841.4,1128.3z"/>
		<path class="st18" d="M1840.9,1066.5c0,0-10.9,5.4-17.4,2.7c-6.6-2.7-14.3-4.8-21.7,3.6c-7.4,8.4-8.9,14.2-7.4,17.3
			c1.6,3.1,18.7,1.9,21.6,0c2.8-1.9,7.4-6.7,10.2-5.9c7.9,2.3,14.5-3.7,18.2-8.5C1846.7,1072.9,1840.6,1071.5,1840.9,1066.5z"/>
		<path class="st30" d="M1800.3,861.6c0,0,43.2,4.8,53.4,23.6c10.2,18.8,63.2,95.1,61.5,126.8c-1.7,31.7-72.3,67.3-72.3,67.3
			s-15.6-6.6-15.9-13.7s48.8-49.6,45.8-57.5c-3-7.9-57-70.6-62.2-91.3S1800.3,861.6,1800.3,861.6z"/>
		<path class="st27" d="M1674.2,961.3c0,0-0.1,0.1-0.3,0.3c-16.1,10.2-31,18.8-31,22.7c-2.2-6.9,18.8-35.6,25.6-41.5
			C1675.3,936.9,1674.2,961.3,1674.2,961.3z"/>
		<path class="st27" d="M1786.9,852c0,0-32.8,137.5-27.6,189.2c0,0,12.1-55.3,41.1-100.7c0,0-10.6-9.3-10-12.8c0,0,7.9-2.3,15.5-0.8
			c0,0-0.8-59.3-5.6-65.5C1795.5,855.3,1786.9,852,1786.9,852z"/>
		<path class="st27" d="M1735.4,856.7c0.7-0.4-32.5,134.3-35.3,177.3c0,0,3.3-76.6,3-98.7c0,0,13.6-7.2,13.6-9.7
			c0-2.5-14.5-9.4-14.5-9.4s9.2-47.2,14.2-52.4C1721.4,858.5,1735.4,856.7,1735.4,856.7z"/>
	</g>
	<g>
		<g>
			<path class="st18" d="M1308.5,1452.1c1.7,2,2,4.2,1.1,6.6c0,0,0,0,0,0c-1.6,4.4-6.8,9.3-12.9,14.2c-0.8,0.6-1.5,1.2-2.1,1.7
				c-0.2,0.1-0.3,0.3-0.5,0.4c-0.1,0.1-0.2,0.2-0.4,0.3c-5.7,5.2-3.5,6.4-13.7,17.1c-11.6,12.1-19.7,12.3-21.9,11.2
				c-1.9-0.9,2-7.4,6.3-14.6c0.2-0.3,0.4-0.7,0.6-1.1c0.6-1,1.2-1.9,1.7-2.9c5.1-8.7,3.8-12.8,2.6-25.7c-1-10.5-16.3-58.7-16.3-58.7
				l22.3-3.8c0,0,6.7,38.4,14.1,44.3c4,3.1,8.4,3.2,12.2,5.5c0.3,0.2,0.5,0.3,0.8,0.5C1304.5,1448.6,1306.7,1450.1,1308.5,1452.1z"
				/>
			<path class="st22" d="M1308.5,1452.1c1.7,2,2,4.2,1.1,6.6c0,0,0,0,0,0c-1.9,4.4-7.1,9.3-12.9,14.1c-0.8,0.6-1.4,1.2-2.1,1.8
				c-0.2,0.1-0.3,0.3-0.5,0.4c-0.1,0.1-0.2,0.2-0.4,0.3c-5.7,5.2-3.5,6.4-13.7,17.1c-11.6,12.1-19.7,12.3-21.9,11.2
				c-1.9-0.9,2-7.4,6.3-14.6c2.3-0.8,12.8-5.1,20.7-15.3c7-8.9,11.7-20.4,16.5-27.1c0.3,0.2,0.5,0.3,0.8,0.5
				C1304.5,1448.6,1306.7,1450.1,1308.5,1452.1z"/>
			<path class="st18" d="M1128.6,1438.2c-1.4,6.9-11.2,5.7-22.2,3.1s-8.4,0.5-24-1.2c-15.6-1.7-20.3-7.5-20.8-9.9
				c-0.4-2.1,7.3-2.8,15.6-3.7c1-0.1,2.1-0.2,3.1-0.4c9.3-1.2,16.2-7.2,24.7-12.1c8-4.7,20-23.8,20-23.8l21.4,1.7
				c0,0-11.2,17.1-15.6,24.5c-2.6,4.4-2.4,10.1-2.1,14.6C1129,1433.3,1129.1,1435.8,1128.6,1438.2z"/>
			<path class="st22" d="M1106.5,1441.2c-11-2.7-8.4,0.5-24-1.2c-15.6-1.7-20.3-7.5-20.8-9.9c-0.4-2.1,7.3-2.8,15.6-3.7l0.1,0.2
				c0,0,9.4,6.6,22.3,6.9c10.6,0.3,21.8-2.8,29.1-2.7c0.2,2.4,0.3,4.9-0.2,7.3C1127.3,1445.1,1117.4,1443.9,1106.5,1441.2z"/>
			<path class="st18" d="M1176.2,1123.9c0,0-5.1-12.5-10.7-13c-5.6-0.5-23.5-3.3-24.7-0.8s0,11.7,3.8,15s27.5,8.7,27.5,8.7
				L1176.2,1123.9z"/>
			<path class="st33" d="M1210.6,1301.4l46.1,124.1c0,0,7.1,0.7,13.9-1.3c6.3-1.8,13.4-6.5,13.4-6.5s-11.4-119.2-32.4-144
				S1210.6,1301.4,1210.6,1301.4z"/>
			<path class="st22" d="M1393,1251.1c0,0-132.5-44.8-162.1-35.3c-29.6,9.5-118.3,186.1-118.3,186.1s2,2.7,7.5,4.7
				c5.1,1.9,17.4,1.8,17.4,1.8s80.1-68.6,89.6-88.7c9.5-20,13.3-39.1,22.9-37.2c9.5,1.9,123,46.7,148.7,20
				c25.7-26.7,19-61.4,19-61.4L1393,1251.1z"/>
			<path class="st34" d="M1312.1,1042.7c-2.1-4.4-4.5-12.1-5.6-26c0.2,1.4,2.6,18.8,9.3,28.7c27.6,18.1,80.4,78.5,79.3,90
				c0,0,18.6-31.6,18.9-31.7c0,0,34.3-43.6-6.4-68.6c-20.7-12.7-20.6-29-19.7-43.2c0.9-14.2-5.6-75.1-47.1-59.2c0,0-6.6-3-9.6-2.5
				c0,0,2.4,0.5,3.7,1.7c-4.8-0.3-11.7,0.1-17.4,3.3C1302.3,943.8,1288.7,1021.2,1312.1,1042.7z"/>
			<path class="st18" d="M1317.3,1046.3c-0.1,0.1,13.3,7,23.4,4.3c9.5-2.6,15.7-14.9,15.6-15c-4-0.8-5.2-6.3-5.1-30.1l-1.8,0.4
				l-30.6,6.1c0,0,0.7,9.6,0.7,18.7C1319.5,1038.3,1319.1,1045.5,1317.3,1046.3z"/>
			<path class="st35" d="M1318.8,1011.9c0,0,0.7,9.6,0.7,18.7c17.1-0.5,26.2-16.1,29.9-24.8L1318.8,1011.9z"/>
			<path class="st34" d="M1352.6,1002.6c0,0,9-14.2,11.1-26.3c1.5-8.7-2.9-40.8-35.1-36.1c0,0-9.4,0.9-18.2,6.9
				c-7,4.7-17.1,14.9-5.8,43l2.9,9.5L1352.6,1002.6z"/>
			<path class="st18" d="M1313.1,1020.5c0,0,40.5,0.7,40.6-24.6c0-25.3,5.3-42.2-20.6-43.7c-25.9-1.5-30.9,8.1-33,16.6
				C1298,977.3,1302.5,1019.7,1313.1,1020.5z"/>
			<path class="st34" d="M1314.6,951.7c0,0,11.1,29.6,28.1,34c17,4.4,24.4-0.2,24.4-0.2s-13.1-10.4-15.8-28.5
				C1351.4,957,1322.9,937.6,1314.6,951.7z"/>
			<path class="st34" d="M1317.3,954.1c0,0-8.3,6.6-10.3,13c-2,6.4-2.9,19.7-6.8,19.2c0,0-8.4-20.1,1-31.5
				C1311.2,942.7,1317.3,954.1,1317.3,954.1z"/>
			<path class="st36" d="M1424.1,1251.8c-2.2,6.1-8.9,7.6-17.9,6.6c-17.1-2-42.6-13.5-60.9-21.5c-28-12.1-40.7-0.7-49.6-8.4
				c-8.9-7.7,10.2-24.9-6.4-104.5c-5.6-27,29.9-84.9,29.9-84.9s3.1,16.8,37-3.4c1.2-0.7,14.6,19.1,27.5,43.5
				c14.2,26.9,27.8,59.5,23.8,76.2C1400,1187.4,1430.5,1234.2,1424.1,1251.8z"/>
			<path class="st36" d="M1319.3,1039l-20.9,85.9c0,0-2.6,4.6-6.7,11.2c-9.6,15.5-27.3,41.9-38.7,44.5c-5.6,1.3-17.5-3.3-30.7-10
				c-24.9-12.6-54.4-32.4-54.4-32.4c-1.9-11.4,8-20.8,8-20.8s59.7,22.5,65.7,22.9c12.9,0.9,26.1-61.5,38.2-82.3
				C1288.4,1043.1,1319.3,1039,1319.3,1039z"/>
			<path class="st0" d="M1322.1,1005.2c0,0-0.8,3.2-8.7,2.7c0,0-6.7-0.4-6.5-3.9C1306.9,1004,1313.4,1001.5,1322.1,1005.2z"/>
			<path class="st37" d="M1424.1,1251.8c-2.2,6.1-8.9,7.6-17.9,6.6c-11.9-5.2-63.1-25-62.5-38.5c0.9-19.9,9.9-20.5,3.5-45.1
				c-5.1-19.7,42.2-56.4,49.8-64.4c14.2,26.9,14.6,28.2,10.6,45C1400,1187.4,1430.5,1234.2,1424.1,1251.8z"/>
			<path class="st37" d="M1291.7,1136.2c-9.6,15.5-27.3,41.9-38.7,44.5c-5.6,1.3-17.5-3.3-30.7-10c9.6,2.5,19,2.4,28.1,1.5
				c9.9-1,12.7-13,28.3-31.1C1288.7,1129.4,1291.2,1132.3,1291.7,1136.2z"/>
			<path class="st18" d="M1339.1,1174.3c0,0-8.6-6.7-16.7-5.1s-12.1,7.2-11.8,9.7c0.3,2.5,4.6,9.7,10.8,10.3
				c6.2,0.6,23.8-3.8,23.8-3.8L1339.1,1174.3z"/>
			<path class="st36" d="M1356.3,1035.6c0,0,33,2,44.5,18c16.1,22.5,44.1,114.1,36.4,135.1l-100.5-0.4c0,0-2.4-11.4,1-16.9
				s58.5-14.4,61-16.9c2.5-2.5-31.8-49.6-31.8-57.2S1356.3,1035.6,1356.3,1035.6z"/>
		</g>
		<g>
			<g>
				<polygon class="st21" points="1330.5,1211.9 1208.8,1211.9 1186.8,1135.4 1308.4,1135.4 				"/>
				<rect x="1209.2" y="1208.9" class="st23" width="159.1" height="3"/>
			</g>
			<path class="st23" d="M1247.4,1172.4c-0.8-2.7,0.8-4.9,3.5-4.9s5.5,2.2,6.3,4.9c0.8,2.7-0.8,4.9-3.5,4.9
				S1248.2,1175.1,1247.4,1172.4z"/>
		</g>
	</g>
	<g>
		<path class="st18" d="M948.1,1038.3c0,0,13.3-10.9,18.1-10.9c4.8-0.1,13.9-2.4,13.5-0.9c-0.4,1.6-8,3.6-6.7,4.3
			c1.3,0.7,12.4-2.3,15.5-0.5c3.1,1.8,10.4,9.2,4.5,12.4c-5.9,3.2-23.4,8.4-28,7.8c-4.5-0.6-14.8-1.3-14.8-1.3L948.1,1038.3z"/>
		<polygon class="st18" points="778.2,1442.5 789.3,1489.5 806,1489.4 806.7,1442.5 		"/>
		<polygon class="st18" points="918.7,1444.5 950.5,1489.5 962.9,1473.6 943.8,1438.4 		"/>
		<path class="st23" d="M853.7,876.4C853.7,876.4,853.7,876.4,853.7,876.4c0-0.1,0-0.2,0-0.4c-0.2-2.3-0.5-4.7-0.8-7c0,0,0,0,0,0
			c-1-7-2.3-13.8-4-19.9c-1-3.5-2-6.7-3.2-9.6c-0.2-0.4-0.3-0.9-0.5-1.3l0,0c-2.7-6.6-5.8-11.4-9-13.2c-5.8-3.3-12.7-3.6-17.5-3.4
			c1.2-1.3,3.7-1.7,3.7-1.7c-3-0.4-9.7,2.5-9.7,2.5c-41.7-16.1-48.3,45.3-47.4,59.6c0.9,14.3-14,18.9-35.7,30.2
			c-41.4,21.4-45,50.2-45,50.2c0.3,0.2,0.7,0.4,1,0.7c2.1-3.5,6.3-10,9.9-11c-0.1,0.3-4.2,9-5.7,14c5.2,4,12.4,10,20.1,16.8
			c0,0,0,0,0,0c10.4,9,21.7,19.3,30.9,27.7c-0.1-2.9,0-6.9,1.1-9l1.7,10.5l0.2,1.4c5.8,5.3,10.4,9.6,12.7,11.8
			c0.2,0.2,0.4,0.4,0.6,0.6c0.7,0.6,1,1,1,1c-0.3-3.7,4.8-12.3,12.9-23c0.6-0.7,1.1-1.5,1.7-2.3c2.6-3.4,5.4-6.9,8.5-10.5
			c1.1-1.3,2.2-2.6,3.4-3.9c0,0,0,0,0,0c0.9-1.1,1.8-2.1,2.8-3.2l0,0c2.3-2.6,4.6-5.1,6.9-7.7c6.1-6.7,12.5-13.2,18.8-19.2
			c9.1-8.7,17.8-16.1,24.9-20.8c0.3-0.4,0.5-0.8,0.8-1.2c1.3-2.1,2.4-4.5,3.4-7c0.3-0.7,0.6-1.5,0.8-2.3c2.8-8,4-16.1,4.3-18.1
			c-0.7,8-1.8,14-3,18.4c-0.3,1-0.5,1.9-0.8,2.7v0c-0.6,1.9-1.2,3.4-1.9,4.7c1.2-1.1,2.3-2.4,3.3-3.8c0.7-0.9,1.3-1.9,1.9-2.9
			C853.9,914.5,855.4,895.1,853.7,876.4z"/>
		<path class="st18" d="M836.4,937c0.1,0.1-13.4,7.1-23.6,4.3c-9.6-2.6-15.8-15-15.7-15.1c4.1-0.8,5.2-6.4,5.1-30.3l1.8,0.4
			l30.8,6.1c0,0-0.7,9.7-0.7,18.8C834.2,928.9,834.6,936.2,836.4,937z"/>
		<path class="st20" d="M801.5,835.1c0,0,15.2-16.2,34.3-0.8C835.8,834.3,824.7,832.4,801.5,835.1z"/>
		<path class="st35" d="M834.9,902.4c0,0-0.7,9.7-0.7,18.8c-17.3-0.5-26.4-16.2-30.1-25L834.9,902.4z"/>
		<path class="st23" d="M800.9,892.9c0,0-9-14.3-11.2-26.5c-1.5-8.7,2.9-41.1,35.4-36.4c0,0,9.4,0.9,18.3,6.9
			c7.1,4.8,17.2,15.1,5.9,43.3l-3,9.5L800.9,892.9z"/>
		<path class="st28" d="M957.8,1461.3l-16.3,0.5l-17.7,0.5c0,0-40.9-45.5-63.8-118.5c-0.5-1.7-1.1-3.4-1.7-5.1
			c-12.5-36.6-38.6-82.5-52.3-124.1c-2.2-6.6-4.1-12.9-5.9-18.8c-0.6-1.9-1.1-3.7-1.6-5.6c-10.1-35.1-13-58.1-15.7-82.8l99,0.8
			C881.7,1108.4,897.7,1276.5,957.8,1461.3z"/>
		<path class="st38" d="M867.9,1051.5c-0.2,47.1,6.9,67.3,6.9,67.3s-42.4,21.5-92.8,5.7c-0.6-0.2-41.7-9.6-41.7-9.6
			c0.8-1.9,8.3-33.7,9.2-35.4c10.6-22.8,18.7-32.9,20-39.9c2.3-13.1,2.4-26.7,1.2-39.5c-3.1-33.9-12.2-62-12.2-62
			c13.7-3.1,26.6-8.6,40.9-14c3.3,4.1,13.3,8.4,22,8.2c10-0.2,13.3-4.5,12.8-9.2c10.7,5.9,19.2,11.6,19.2,11.6
			c9.1,15.8,27.5,31.1,28.9,55.3C882.6,996.1,867.9,1050.2,867.9,1051.5z"/>
		<path class="st18" d="M840.7,911c0,0-40.8,0.7-40.9-24.8c0-25.4-5.3-42.5,20.8-44c26.1-1.5,31.1,8.2,33.2,16.7
			C855.9,867.5,851.3,910.2,840.7,911z"/>
		<path class="st23" d="M839.2,841.7c0,0-11.2,29.8-28.3,34.3c-17.2,4.4-24.6-0.2-24.6-0.2s13.2-10.5,15.9-28.7
			C802.1,847,830.7,827.5,839.2,841.7z"/>
		<path class="st23" d="M836.4,844.1c0,0,8.3,6.7,10.4,13.1c2,6.5,3,19.8,6.8,19.4c0,0,8.4-20.3-1-31.8
			C842.5,832.7,836.4,844.1,836.4,844.1z"/>
		<path class="st18" d="M788.8,1486.9c0,0,1.3,9.3-2.1,19.3c0,0-2.7,12.5,9.5,12.7c12.3,0.2,15.3-0.9,13.9-8.6
			c-1.4-7.6-4-20.9-4-20.9L788.8,1486.9z"/>
		<path class="st19" d="M811.7,1526.3h-26.9c-1.1-5.5,1.3-17.3,1.7-19.6c0-0.2,0.1-0.3,0.1-0.4c0-0.1,0-0.1,0-0.1
			c13.9,12.7,22.6-0.3,22.6-0.3c0,0,0,0,0,0.1C811.3,1510.9,811.7,1524.3,811.7,1526.3z"/>
		<path class="st18" d="M992.4,1511.5c0,0-22.6-25.1-29.6-37.9l-16.8,8.6l37.6,35.3l8.8-1.2L992.4,1511.5z"/>
		<path class="st19" d="M1006.8,1526.3c0,0-28,0-28.5,0c-4.2,0-7.5-6.9-12.1-16c-1.8-3.7-6-5.7-10.2-6.8l0.1,22.8h-6.6l-6-24.1
			c-4-7.4-0.3-14,2.5-19.9c3.3,0,12.1,2.2,28.8,21.1c5.5,6.2,11.6,8.4,17.6,8.2c0.1,0.1,0.2,0.1,0.3,0.1
			C1006.6,1517.9,1006.8,1526.3,1006.8,1526.3z"/>
		<path class="st27" d="M941.5,1461.8l-17.7,0.5c0,0-40.9-45.5-63.8-118.5c-0.5-1.7-1.1-3.4-1.7-5.1
			c-12.5-36.6-38.6-82.5-52.3-124.1c-2.2-6.6-4.1-12.9-5.9-18.8c-0.6-1.9-1.1-3.7-1.6-5.6l14.6-11.1c0,0,43.8,70.9,57.3,137.6
			C882.1,1374.8,929.3,1444.5,941.5,1461.8z"/>
		<path class="st28" d="M814.6,1323.1c0.3,32.4-1.4,107-5.6,137.9h-15.7c-8.7,0-13-0.1-13-0.1c-10.6-53.7-18.1-98.1-23.6-136.3
			c-4.5-31.4-8.5-58.3-11.6-81.5c-3.1-23.3-5.3-42.9-6-59.4c-0.1-2.6-0.2-5.1-0.3-7.6c0-2.5-0.1-4.9,0-7.2l85.5-8.3
			C823.2,1217.3,814.4,1304.2,814.6,1323.1z"/>
		<path class="st27" d="M793.3,1460.9c-8.7,0-13-0.1-13-0.1c-10.6-53.7-18.1-98.1-23.6-136.3c-4.5-31.4-8.5-58.3-11.6-81.5
			c-3.1-23.3-5.3-42.9-6-59.4l31.4,18.5c0,0-20,7.1-12.4,60.6C765.7,1316.1,782.7,1453.3,793.3,1460.9z"/>
		<path class="st4" d="M797.3,1183.1c0,0-6,21.8-26.9,19c-20.8-2.8-50.5-15.3-50.5-15.3s8.9-28.1,20-65.1
			c13.4-44.8,16.7-107.7,24.6-144.1c2.2-10.2,17-13.5,17.5-19.6l17.3-33.5c0,0,25.8,57.9,27.2,72.5
			C827.9,1011.5,797.3,1183.1,797.3,1183.1z"/>
		<path class="st39" d="M782.8,1039.8c-0.9,23.6-9.2,63.9-42.4,81.6c-0.1,0.1-0.3,0.1-0.4,0.2c13.4-44.8,13.2-87.7,21.1-124.1
			C778.9,993.8,783.3,1026.8,782.8,1039.8z"/>
		<g>
			<path class="st19" d="M998.4,1025.7h-32c0,0.2,0,0.8-0.1,1.6c-0.1,2.9-0.3,8.6-0.3,9.1c0.4,6.8,5.2,10.5,9.7,12.3h0
				c0,0,0,0,0.1,0c1.1,0.4,2.2,0.7,3.2,0.9c0.8,0.2,1.5,0.3,2.2,0.3c0.4,0,0.9,0.1,1.2,0.1c2.3,0,4.6-0.5,6.6-1.4
				c5.6-2.5,9.6-8.2,9.6-14.7v-6.3C998.5,1027,998.5,1026.4,998.4,1025.7z"/>
			<path class="st20" d="M995.8,1025.7h-4.3c0.1,0.7,0.1,1.3,0.1,2v6.3c0,4.4-1.8,8.4-4.6,11.3c-1.4,1.4-3.1,2.6-5,3.4
				c-1,0.4-2,0.8-3,1c-0.4,0.1-0.9,0.2-1.4,0.2c0.7,0.1,1.4,0.2,2.2,0.2c0.5,0,0.9,0,1.4-0.1c1.8-0.1,3.6-0.6,5.2-1.3
				c3-1.3,5.5-3.6,7.2-6.4c0,0,0,0,0,0c0.7-1.1,1.2-2.3,1.6-3.6c0.5-1.5,0.7-3.1,0.7-4.8v-6.3C995.9,1027,995.9,1026.4,995.8,1025.7
				z"/>
			
				<rect x="975.8" y="1048.7" transform="matrix(-1 -1.224647e-16 1.224647e-16 -1 1964.8408 2099.4512)" class="st19" width="13.2" height="2"/>
		</g>
		<path class="st18" d="M746.3,1092.3c0,0,14.9-3.2,18.7,1c3.8,4.3,6,11,2.2,13.4c-3.8,2.4-14.9-4.1-18.9-1.5
			c-2.9,1.9-3.8,6.7-6.6,5c-2.9-1.7-5.9-12.6-5.9-12.6L746.3,1092.3z"/>
		<path class="st4" d="M799.3,924.4c0,0-40.2,1.8-49.8,10.7c-9.7,9-67.5,78.3-68.4,96.4c-1,18.2,50.7,69.8,50.7,69.8
			s14.3-3.5,20.6-12.5c0,0-32-57.1-30.1-59.6c1.9-2.5,56.2-46.9,60.6-37.1C786.6,1000.7,799.3,924.4,799.3,924.4z"/>
		<path class="st4" d="M952.2,1032.4c0,0-45.9,15.3-51.6,14c-5.7-1.3-13.9-63.4-18.4-84.8c-5.7-27.4-27.4-32.9-27.4-32.9l-20.6-5.5
			c0,0,23.6,58.4,24.3,70.2c0.7,11.8,2.8,193.1,2.8,193.1s-1.4,8.3,14.6,4.9c16-3.5,20.1-6.9,20.1-6.9s-6.9-50.7-10.2-95.7
			c16.3-2.8,68.6-29.3,68.6-29.3C962.6,1046.7,952.2,1032.4,952.2,1032.4z"/>
	</g>
	<g>
		<g>
			<path class="st40" d="M1080.4,1228.1l-8.4,47.3v0l-23.1,130.8l-20.6,116.9c-0.3,1.8-1.9,3.1-3.7,3.1c-1.6,0-2.9-1.4-2.7-3
				l17.8-132.5l19-141.8l2.9-21.4L1080.4,1228.1z"/>
		</g>
		<g>
			<path class="st40" d="M1171.8,1228.1l-8.4,47.3v0l-23.1,130.8l-20.6,116.9c-0.3,1.8-1.9,3.1-3.7,3.1c-1.6,0-2.9-1.4-2.7-3
				l17.8-132.5l19-141.8l2.9-21.4L1171.8,1228.1z"/>
		</g>
		<path class="st14" d="M1072.1,1275.5c1.1-20.3-13.3-26.5-13.3-26.5l2.9-21.4l18.8,0.5L1072.1,1275.5z"/>
		<g>
			<g>
				<path class="st40" d="M1868.5,1526.3c-1.8,0-3.4-1.3-3.7-3.1l-18.3-103.9l-26.4-149.4l-7.4-41.8l18.8-0.5l3.3,24.3l22.9,170.4
					l13.6,101C1871.4,1524.9,1870.2,1526.3,1868.5,1526.3z"/>
			</g>
			<path class="st14" d="M1834.8,1251.9c-12.2,5.4-14.7,18.1-14.7,18.1l-7.4-41.8l18.8-0.5L1834.8,1251.9z"/>
		</g>
		<g>
			<g>
				<path class="st40" d="M1973.8,1526.3c-1.8,0-3.4-1.3-3.7-3.1l-18.3-103.9l-26.4-149.4l-7.4-41.8l18.8-0.5l3.3,24.3l22.9,170.4
					l13.6,101C1976.7,1524.9,1975.4,1526.3,1973.8,1526.3z"/>
			</g>
			<path class="st14" d="M1940,1251.9c-12.2,5.4-14.7,18.1-14.7,18.1l-7.4-41.8l18.8-0.5L1940,1251.9z"/>
		</g>
		<path class="st41" d="M1971.3,1244.5H991.5c-8.9,0-16.2-7.3-16.2-16.2v-0.3c0-8.9,7.3-16.2,16.2-16.2h979.7
			c8.9,0,16.2,7.3,16.2,16.2v0.3C1987.5,1237.2,1980.2,1244.5,1971.3,1244.5z"/>
	</g>
	<g>
		<path class="st19" d="M1186.2,1192c-1.5-0.9-4.5-0.6-6.6-0.1v-3.1c0-0.7,0-1.4-0.1-2h-32c-0.1,0.7-0.1,1.3-0.1,2v6.3
			c0,8.9,7.3,16.1,16.1,16.1c4.8,0,9.1-2.1,12.1-5.5l0,0c0,0,7.6-1.9,10-4.7C1187.9,1198.2,1188.7,1193.6,1186.2,1192z
			 M1184.5,1197.8c-0.8,2.1-4.4,3.2-6.2,3.6c0.7-1.6,1.2-3.4,1.3-5.3c1.1-1.5,2.9-2.4,4.1-2.2
			C1184.8,1194.2,1185.5,1195.2,1184.5,1197.8z"/>
		<path class="st20" d="M1149.9,1188.8v6.3c0,8.9,7.3,16.1,16.1,16.1c0.7,0,1.5-0.1,2.2-0.2c-7.9-1.1-14-7.8-14-16v-6.3
			c0-0.7,0-1.4,0.1-2h-4.3C1150,1187.4,1149.9,1188.1,1149.9,1188.8z"/>
		<rect x="1156.9" y="1209.8" class="st19" width="13.2" height="2"/>
	</g>
	<g>
		<path class="st19" d="M1641.1,1192c-1.5-0.9-4.5-0.6-6.6-0.1v-3.1c0-0.7,0-1.4-0.1-2h-32c-0.1,0.7-0.1,1.3-0.1,2v6.3
			c0,8.9,7.3,16.1,16.1,16.1c4.8,0,9.1-2.1,12.1-5.5l0,0c0,0,7.6-1.9,10-4.7C1642.9,1198.2,1643.6,1193.6,1641.1,1192z
			 M1639.4,1197.8c-0.8,2.1-4.4,3.2-6.2,3.6c0.7-1.6,1.2-3.4,1.3-5.3c1.1-1.5,2.9-2.4,4.1-2.2
			C1639.7,1194.2,1640.4,1195.2,1639.4,1197.8z"/>
		<path class="st20" d="M1604.9,1188.8v6.3c0,8.9,7.3,16.1,16.1,16.1c0.7,0,1.5-0.1,2.2-0.2c-7.9-1.1-14-7.8-14-16v-6.3
			c0-0.7,0-1.4,0.1-2h-4.3C1604.9,1187.4,1604.9,1188.1,1604.9,1188.8z"/>
		<rect x="1611.8" y="1209.8" class="st19" width="13.2" height="2"/>
	</g>
	<path class="st3" d="M451.6,965.2v561.1h-148c0,0-2.2-21.8-2.9-57.1c-0.4-20.5-0.2-45.6,1.2-73.6c0.1-2.3,0.2-4.6,0.4-6.9
		c0.8-12.8,1.8-26.2,3.1-40c0.1-1.2,0.2-2.5,0.4-3.7c1.5-14.4,3.3-29.4,5.7-44.9c1.9-12.5,4.1-25.3,6.6-38.3
		c0.2-0.9,0.4-1.8,0.5-2.7c1.3-6.6,2.7-13.3,4.2-20c0.6-2.6,1.2-5.3,1.8-7.9c1.2-5.2,2.5-10.4,3.8-15.6c3.2-12.7,6.8-25.6,10.8-38.5
		c0.4-1.3,0.8-2.6,1.2-4c1.8-5.7,3.7-11.5,5.7-17.2c3-8.8,6.2-17.5,9.6-26.3c2.1-5.5,4.3-11,6.6-16.4
		C383.9,1061.3,412.9,1010.6,451.6,965.2z"/>
	<path class="st42" d="M2952.2,1535.6H232.7c-2,0-3.6-1.6-3.6-3.6v-2.6c0-2,1.6-3.6,3.6-3.6h2719.5c2,0,3.6,1.6,3.6,3.6v2.6
		C2955.8,1534,2954.2,1535.6,2952.2,1535.6z"/>
</g>
</svg>
