<?xml version="1.0" encoding="utf-8"?>
<!-- Generator: Adobe Illustrator 24.3.0, SVG Export Plug-In . SVG Version: 6.00 Build 0)  -->
<svg version="1.1" xmlns="http://www.w3.org/2000/svg" xmlns:xlink="http://www.w3.org/1999/xlink" x="0px" y="0px"
	 viewBox="0 0 750 500" style="enable-background:new 0 0 750 500;" xml:space="preserve">
<style type="text/css">
	.st0{fill:#DEEDFF;}
	.st1{fill:#F8FBFF;}
	.st2{fill:#5DA6F4;}
	.st3{display:none;}
	.st4{display:inline;fill:#EBEBEB;}
	.st5{fill:#263238;}
	.st6{fill:#455A64;}
	.st7{fill:#FAFAFA;}
	.st8{fill:#FFFFFF;}
	.st9{fill:#F5F5F5;}
	.st10{fill:#EBEBEB;}
	.st11{fill:#E0E0E0;}
	.st12{fill:#233862;}
	.st13{fill:#466FC1;}
	.st14{opacity:0.2;}
	.st15{opacity:0.5;}
	.st16{opacity:0.4;}
	.st17{fill:#FFBE9D;}
	.st18{fill:#EB996E;}
	.st19{fill:#F99746;}
	.st20{fill:#FFB278;}
</style>
<g id="Background_Complete">
	<g>
		<rect x="609.9" y="57.3" class="st0" width="100.3" height="137.1"/>
		<rect x="613.4" y="61.1" class="st1" width="93.3" height="129.8"/>
		<rect x="644.8" y="91.4" class="st0" width="30.4" height="74.3"/>
	</g>
	<g>
		<g>
			<g>
				<path class="st2" d="M107.8,440.8c23.6-11.4,32.7-38.2,35.8-63c0.5-4.1,1.7-8.4,0.3-12.4c-1.4-3.9-5.6-7.1-9.5-6
					c-3.3,1-5.2,4.3-7.4,7c-2.9,3.6-6.8,6.3-11.1,7.7c-2.8,0.9-6.2,1.3-8.6-0.6c-3.2-2.5-2.9-7.5-2.2-11.6
					c1.3-7.6,2.5-15.3,3.8-22.9c0.7-4.1,1.4-8.3,0.7-12.4c-0.7-4.1-2.9-8.2-6.6-9.9c-3.7-1.7-8.9-0.2-10.4,3.7
					c-0.6,1.6-0.5,3.4-0.9,5.1c-0.4,1.7-1.5,3.4-3.2,3.7c-1.7,0.2-3.2-1.2-4.2-2.6c-3.6-4.8-5.6-10.6-7.4-16.3
					c-1.8-5.7-3.6-11.6-6.7-16.7c-3.1-5.1-7.9-9.6-13.7-10.8c-5.8-1.3-12.7,1.4-15.1,6.9c-2.4,5.5,0,12,3,17.2
					c4.3,7.8,9.8,15,16.2,21.2c1.1,1.1,2.4,2.3,2.6,3.9c0.5,2.9-2.6,5.2-5.4,5.7c-3.2,0.5-6.5-0.3-9.7-0.4c-3.3-0.1-6.9,0.7-8.6,3.6
					c-2.3,3.9,0.5,8.9,3.5,12.3c6,6.9,13.2,12.7,21.1,17.1c2.8,1.6,5.9,3.1,8,5.6c2.1,2.5,3,6.4,1,9.1c-1.9,2.7-5.9,3-8.9,1.9
					c-3.1-1.1-5.6-3.3-8.5-4.9c-5.3-3-12.6-3.8-17,0.5c-2.9,2.8-3.8,7.3-3.2,11.3c0.6,4,2.5,7.7,4.6,11.1c7.3,12,17.6,22.4,29.9,29
					C82.1,440.3,94.1,443.5,107.8,440.8"/>
			</g>
		</g>
		<g>
			<g>
				<g>
					<path class="st0" d="M104.5,442.1c0.7-9.9,1.1-4.8-0.6-17.8c-1.7-13.1-4.7-27.2-8.3-41.9c-0.9-3.7-1.8-7.3-2.7-10.9
						c-0.9-3.6-1.8-7.1-2.9-10.5c-2.2-6.8-4.8-13.2-7.4-19.2c-2.7-6-5.4-11.6-8-16.8c-2.6-5.2-5.1-10-7.6-14.3
						c-4.9-8.6-9.7-15-13.2-19.3c-1.7-2.2-3.1-3.8-4.1-4.9c-0.5-0.5-0.8-0.9-1.1-1.2c-0.3-0.3-0.4-0.4-0.4-0.4c0,0,0.1,0.2,0.3,0.5
						c0.3,0.3,0.6,0.7,1,1.3c0.9,1.1,2.3,2.8,4,5c3.4,4.3,8.1,10.8,13,19.4c2.4,4.3,4.9,9.1,7.5,14.3c2.6,5.2,5.3,10.8,7.9,16.8
						c2.6,6,5.2,12.4,7.3,19.1c1.1,3.4,2,6.9,2.9,10.5c0.9,3.6,1.8,7.2,2.7,10.9c3.6,14.7,6.7,28.8,8.3,41.8
						c1.7,13,1.3,7.8,0.7,17.7"/>
				</g>
			</g>
		</g>
		<g>
			<g>
				<g>
					<path class="st0" d="M89.8,360.9c0,0,0.3-0.6,0.7-1.7c0.4-1.1,0.9-2.7,1.5-4.7c1.2-4,2.7-9.6,4.4-15.7
						c1.6-6.2,3.2-11.7,4.5-15.6c0.6-2,1.2-3.6,1.6-4.7c0.4-1.1,0.6-1.7,0.5-1.7c0,0-0.3,0.6-0.8,1.6c-0.5,1.1-1.1,2.6-1.8,4.6
						c-1.4,3.9-3.1,9.5-4.7,15.6c-1.6,6.1-3.1,11.6-4.2,15.8c-0.5,1.9-0.9,3.5-1.3,4.8C89.8,360.3,89.7,360.9,89.8,360.9z"/>
				</g>
			</g>
		</g>
		<g>
			<g>
				<g>
					<path class="st0" d="M38.6,342.7c0,0.1,0.7,0.3,2.1,0.6c1.3,0.3,3.3,0.8,5.6,1.5c4.7,1.3,11.2,3.3,18.3,5.8
						c7.1,2.5,13.4,5.1,17.9,7.1c2.3,1,4.1,1.8,5.3,2.4c1.3,0.6,2,0.9,2,0.8c0,0-0.6-0.4-1.8-1.1c-1.2-0.7-3-1.6-5.2-2.6
						c-4.5-2.1-10.7-4.8-17.8-7.4c-7.1-2.5-13.6-4.5-18.4-5.6c-2.4-0.6-4.4-1-5.7-1.2C39.3,342.7,38.6,342.6,38.6,342.7z"/>
				</g>
			</g>
		</g>
		<g>
			<g>
				<g>
					<path class="st0" d="M103.4,423.2c0,0,0.2-0.2,0.5-0.6c0.3-0.5,0.7-1.1,1.2-1.8c1-1.5,2.5-3.8,4.2-6.6
						c3.5-5.6,8.1-13.6,13.1-22.4c5-8.8,9.5-16.8,12.9-22.5c1.7-2.8,3-5,4-6.7c0.4-0.7,0.8-1.3,1.1-1.8c0.2-0.4,0.4-0.7,0.3-0.7
						c0,0-0.2,0.2-0.5,0.6c-0.3,0.5-0.7,1.1-1.2,1.8c-1,1.5-2.5,3.8-4.2,6.6c-3.5,5.6-8.1,13.6-13.1,22.4c-5,8.8-9.5,16.8-12.9,22.5
						c-1.7,2.8-3,5-4,6.7c-0.4,0.7-0.8,1.3-1.1,1.8C103.5,423,103.4,423.2,103.4,423.2z"/>
				</g>
			</g>
		</g>
		<g>
			<g>
				<g>
					<path class="st0" d="M36.9,389.5c0,0,0.2,0.2,0.7,0.4c0.5,0.3,1.2,0.6,1.9,1c1.8,0.9,4.2,2.1,7.1,3.6c6,3.1,14.3,7.4,23.4,12.2
						c9.1,4.8,17.4,9.1,23.5,12c3,1.5,5.5,2.6,7.2,3.4c0.8,0.4,1.5,0.6,2,0.9c0.5,0.2,0.7,0.3,0.7,0.3c0,0-0.2-0.2-0.6-0.4
						c-0.5-0.3-1.2-0.6-1.9-1c-1.8-0.9-4.2-2.1-7.1-3.6c-6-3.1-14.3-7.4-23.4-12.2c-9.1-4.8-17.4-9-23.5-12c-3-1.5-5.5-2.6-7.2-3.4
						c-0.8-0.4-1.5-0.6-2-0.9C37.2,389.5,36.9,389.4,36.9,389.5z"/>
				</g>
			</g>
		</g>
	</g>
	<g>
		<rect x="51.1" y="142" class="st0" width="79.2" height="77.9"/>
		<rect x="53.9" y="144.1" class="st1" width="73.7" height="73.7"/>
		<rect x="78.7" y="169" class="st0" width="24" height="24"/>
	</g>
</g>
<g id="Background_Simple" class="st3">
	<path class="st4" d="M80.5,261.5C51.1,200.7,55.1,148,79.1,98.7S157,16.2,211.8,17c41.5,0.6,80.8,19,115.8,41.4
		c35,22.4,67.2,49.1,103.3,69.6c36.2,20.4,77.9,34.5,119,28.3c21.5-3.2,42.6-11.9,64.2-9.8c30.8,3,56.4,28.8,64.9,58.5
		c8.5,29.7,2.2,62.2-11.5,90c-26.8,54.5-80.1,92.8-137.8,111.4C472,425,409.9,425.8,349.4,420.1c-55.9-5.3-96.9-8.9-146.6-35.1
		C153.1,358.8,109.8,307.3,80.5,261.5"/>
</g>
<g id="Floor">
	<g>
		<g>
			<path class="st5" d="M686.7,441.9c0,0.1-139.5,0.3-311.6,0.3c-172.2,0-311.7-0.1-311.7-0.3c0-0.1,139.5-0.3,311.7-0.3
				C547.1,441.6,686.7,441.7,686.7,441.9z"/>
		</g>
	</g>
</g>
<g id="Device">
	<g>
		<g>
			<g>
				<g>
					<g>
						<g>
							<g>
								<path class="st6" d="M577.3,84.7H172.7c-7,0-12.6,5.7-12.6,12.6v285.8c0,7,5.7,12.6,12.6,12.6H328c0,0,9.9,30.5-20.7,46.4
									h145.2c0,0-34.6-11.9-25.7-46.4h150.5c7,0,12.6-5.7,12.6-12.6V97.3C589.9,90.4,584.3,84.7,577.3,84.7z"/>
							</g>
						</g>
					</g>
					<g>
						<g>
							<g>
								<path class="st5" d="M380.4,365.7c5.5,7.9-3.1,16.5-11,11c-0.3-0.2-0.5-0.4-0.7-0.7c-5.5-7.9,3.1-16.5,11-11
									C380,365.2,380.2,365.4,380.4,365.7z"/>
							</g>
						</g>
					</g>
				</g>
				<g>
					<g>
						<g>
							<g>
								<g>
									<path class="st7" d="M576.7,345.5H172.5c-1.8,0-3.3-1.5-3.3-3.3V105.1c0-1.8,1.5-3.3,3.3-3.3h404.2c1.8,0,3.3,1.5,3.3,3.3
										v237.1C580,344,578.5,345.5,576.7,345.5z"/>
									<path class="st8" d="M576.7,346H172.5c-2.1,0-3.8-1.7-3.8-3.8V105.1c0-2.1,1.7-3.8,3.8-3.8h404.2c2.1,0,3.8,1.7,3.8,3.8
										v237.1C580.5,344.3,578.8,346,576.7,346z M172.5,102.3c-1.5,0-2.8,1.2-2.8,2.8v237.1c0,1.5,1.2,2.8,2.8,2.8h404.2
										c1.5,0,2.8-1.2,2.8-2.8V105.1c0-1.5-1.2-2.8-2.8-2.8H172.5z"/>
								</g>
							</g>
						</g>
						<g>
							<g>
								<g>
									<path class="st6" d="M202.9,111.3c0,1.8-1.5,3.3-3.3,3.3c-1.8,0-3.3-1.5-3.3-3.3c0-1.8,1.5-3.3,3.3-3.3
										C201.4,108,202.9,109.4,202.9,111.3z"/>
								</g>
							</g>
						</g>
						<g>
							<g>
								<g>
									<path class="st6" d="M183,111.3c0,1.8-1.5,3.3-3.3,3.3c-1.8,0-3.3-1.5-3.3-3.3c0-1.8,1.5-3.3,3.3-3.3
										C181.5,108,183,109.4,183,111.3z"/>
								</g>
							</g>
						</g>
						<g>
							<g>
								<g>
									<path class="st6" d="M192.5,111.3c0,1.8-1.5,3.3-3.3,3.3c-1.8,0-3.3-1.5-3.3-3.3c0-1.8,1.5-3.3,3.3-3.3
										C191.1,108,192.5,109.4,192.5,111.3z"/>
								</g>
							</g>
						</g>
					</g>
				</g>
			</g>
			<g>
				<g>
					<path class="st5" d="M580.3,121.1c0,0.1-92.1,0.3-205.7,0.3c-113.6,0-205.7-0.1-205.7-0.3c0-0.1,92.1-0.3,205.7-0.3
						C488.2,120.8,580.3,121,580.3,121.1z"/>
				</g>
			</g>
		</g>
		<g>
			<g>
				<g>
					<g>
						<g>
							<g>
								
									<rect x="483.6" y="143.1" transform="matrix(1 -1.838830e-03 1.838830e-03 1 -0.3167 0.9577)" class="st9" width="74.2" height="59.3"/>
							</g>
						</g>
					</g>
				</g>
				<g>
					
						<rect x="486.1" y="146.8" transform="matrix(1 -1.837705e-03 1.837705e-03 1 -0.3165 0.957)" class="st10" width="69" height="51.9"/>
				</g>
				<g>
					<polygon class="st11" points="486.2,198.7 510.2,166.4 525.2,186.6 535.3,175.8 555.2,198.6 					"/>
				</g>
				<g>
					<g>
						<g>
							<path class="st11" d="M531.5,162.5c0,3-2.4,5.4-5.4,5.4c-3,0-5.4-2.4-5.4-5.4c0-3,2.4-5.4,5.4-5.4
								C529,157,531.5,159.5,531.5,162.5z"/>
						</g>
					</g>
				</g>
			</g>
			<g>
				<g>
					<g>
						<g>
							<g>
								
									<rect x="483.6" y="270.1" transform="matrix(1 -1.838833e-03 1.838833e-03 1 -0.5503 0.9579)" class="st9" width="74.2" height="59.3"/>
							</g>
						</g>
					</g>
				</g>
				<g>
					
						<rect x="486.1" y="273.8" transform="matrix(1 -1.837705e-03 1.837705e-03 1 -0.55 0.9573)" class="st10" width="69" height="51.9"/>
				</g>
				<g>
					<polygon class="st11" points="486.2,325.8 510.2,293.5 525.2,313.6 535.3,302.8 555.2,325.6 					"/>
				</g>
				<g>
					<g>
						<g>
							<path class="st11" d="M531.5,289.5c0,3-2.4,5.4-5.4,5.4c-3,0-5.4-2.4-5.4-5.4c0-3,2.4-5.4,5.4-5.4
								C529,284.1,531.5,286.5,531.5,289.5z"/>
						</g>
					</g>
				</g>
			</g>
			<g>
				<g>
					<g>
						<g>
							<g>
								
									<rect x="186" y="143.1" transform="matrix(1 -1.838908e-03 1.838908e-03 1 -0.3173 0.4106)" class="st9" width="74.2" height="59.3"/>
							</g>
						</g>
					</g>
				</g>
				<g>
					
						<rect x="188.6" y="146.8" transform="matrix(1 -1.837707e-03 1.837707e-03 1 -0.3171 0.4103)" class="st10" width="69" height="51.9"/>
				</g>
				<g>
					<polygon class="st11" points="188.6,198.7 212.7,166.4 227.6,186.6 237.8,175.8 257.6,198.6 					"/>
				</g>
				<g>
					<g>
						<g>
							<path class="st11" d="M233.9,162.5c0,3-2.4,5.4-5.4,5.4c-3,0-5.4-2.4-5.4-5.4c0-3,2.4-5.4,5.4-5.4
								C231.5,157,233.9,159.5,233.9,162.5z"/>
						</g>
					</g>
				</g>
			</g>
			<g>
				<g>
					<g>
						<g>
							<g>
								
									<rect x="186" y="207" transform="matrix(1 -1.838911e-03 1.838911e-03 1 -0.4348 0.4107)" class="st9" width="74.2" height="59.3"/>
							</g>
						</g>
					</g>
				</g>
				<g>
					
						<rect x="188.6" y="210.7" transform="matrix(1 -1.839157e-03 1.839157e-03 1 -0.4349 0.4107)" class="st10" width="69" height="51.9"/>
				</g>
				<g>
					<polygon class="st11" points="188.6,262.7 212.7,230.4 227.6,250.5 237.8,239.7 257.6,262.5 					"/>
				</g>
				<g>
					<g>
						<g>
							<path class="st11" d="M233.9,226.4c0,3-2.4,5.4-5.4,5.4c-3,0-5.4-2.4-5.4-5.4c0-3,2.4-5.4,5.4-5.4
								C231.5,221,233.9,223.4,233.9,226.4z"/>
						</g>
					</g>
				</g>
			</g>
			<g>
				<g>
					<g>
						<g>
							<g>
								
									<rect x="186" y="271.5" transform="matrix(1 -1.838911e-03 1.838911e-03 1 -0.5535 0.4109)" class="st9" width="74.2" height="59.3"/>
							</g>
						</g>
					</g>
				</g>
				<g>
					
						<rect x="188.6" y="275.3" transform="matrix(1 -1.839157e-03 1.839157e-03 1 -0.5536 0.4108)" class="st10" width="69" height="51.9"/>
				</g>
				<g>
					<polygon class="st11" points="188.6,327.2 212.7,294.9 227.6,315 237.8,304.2 257.6,327.1 					"/>
				</g>
				<g>
					<g>
						<g>
							<path class="st11" d="M233.9,290.9c0,3-2.4,5.4-5.4,5.4c-3,0-5.4-2.4-5.4-5.4c0-3,2.4-5.4,5.4-5.4
								C231.5,285.5,233.9,287.9,233.9,290.9z"/>
						</g>
					</g>
				</g>
			</g>
		</g>
	</g>
</g>
<g id="Character">
	<g>
		<g>
			<g>
				<path class="st12" d="M568.9,201.3c0,0-6.9-1.6-12.9,4.4c-5.2,5.2-27,24.4-27,24.4l-31.6-6.3L493,238c0,0,37.3,11.6,40,10.6
					c2.7-1,22.9-14.7,22.9-14.7L568.9,201.3z"/>
			</g>
			<g>
				<g>
					<g>
						<g>
							<g>
								<g>
									
										<rect x="392.6" y="162.4" transform="matrix(0.9909 -0.1346 0.1346 0.9909 -25.8446 65.201)" class="st10" width="153.4" height="122.7"/>
								</g>
							</g>
							<g>
								<g>
									<g>
										<path class="st5" d="M537.1,152.7c0,0-0.2,0-0.7,0.1c-0.5,0.1-1.2,0.2-2.1,0.3c-1.9,0.3-4.6,0.6-8.2,1.2
											c-7.2,1-17.7,2.5-31.1,4.3c-26.7,3.7-64.7,8.9-109.8,15l0.2-0.3c4.9,36.2,10.6,77.6,16.5,121.5l0,0l-0.3-0.3
											c56.3-7.6,108.6-14.7,152-20.6l-0.2,0.3c-4.9-36.6-9-67-11.9-88.2c-1.4-10.6-2.5-18.9-3.3-24.6c-0.4-2.8-0.7-5-0.9-6.5
											C537.2,153.4,537.1,152.7,537.1,152.7s0.1,0.7,0.3,2.2c0.2,1.5,0.5,3.6,0.9,6.4c0.8,5.7,1.9,14,3.4,24.6
											c2.9,21.2,7.1,51.6,12.1,88.3l0,0.2l-0.2,0c-43.4,5.9-95.7,13-152,20.7l-0.3,0l0-0.3l0,0c-5.9-43.9-11.6-85.4-16.5-121.5
											l0-0.3l0.3,0c45.2-6.1,83.3-11.2,110-14.8c13.3-1.8,23.9-3.2,31.1-4.1c3.6-0.5,6.3-0.8,8.2-1.1c0.9-0.1,1.6-0.2,2.1-0.3
											C536.9,152.7,537.1,152.7,537.1,152.7z"/>
									</g>
								</g>
							</g>
						</g>
					</g>
				</g>
				<g>
					<g>
						
							<rect x="397.9" y="170.2" transform="matrix(0.9909 -0.1346 0.1346 0.9909 -25.8473 65.1876)" class="st12" width="142.6" height="107.2"/>
					</g>
				</g>
				<g>
					<g>
						<polygon class="st13" points="405.8,286.5 446.2,213.7 482.4,250.9 500.1,226 547.1,267.3 						"/>
					</g>
				</g>
				<g>
					<g>
						<g>
							<g>
								<path class="st13" d="M488.6,199.7c0.8,6.1-3.5,11.8-9.6,12.6c-6.1,0.8-11.8-3.5-12.6-9.6c-0.8-6.1,3.5-11.8,9.6-12.6
									C482.1,189.3,487.8,193.6,488.6,199.7z"/>
							</g>
						</g>
					</g>
				</g>
				<g class="st14">
					<g>
						<polygon points="405.8,286.5 446.2,213.7 482.4,250.9 500.1,226 547.1,267.3 						"/>
					</g>
				</g>
				<g class="st14">
					<g>
						<g>
							<g>
								<path d="M488.6,199.7c0.8,6.1-3.5,11.8-9.6,12.6c-6.1,0.8-11.8-3.5-12.6-9.6c-0.8-6.1,3.5-11.8,9.6-12.6
									C482.1,189.3,487.8,193.6,488.6,199.7z"/>
							</g>
						</g>
					</g>
				</g>
			</g>
			<g>
				<path class="st12" d="M604.7,217.1c1.4-9.9-3.2-13-10.4-15.9c-9-3.7-26.2-1.9-32,3.4l-6.6,19.5c-2.8,3.2-2.3,8.2-0.7,12.1
					c1.6,3.9,4.2,7.5,5.4,11.6c2.3,7.9,0.7,14.9,0.1,23.1c-0.1,1.9-1.6,5.4-0.2,6.7c1.3,1.2,3.2,1.2,5,1.2
					c13.7-0.6,27.4-4,39.7-10.1c-4.7-9.5-9.9-20.5-6.9-27.8C600.9,234.4,603.4,226,604.7,217.1z"/>
			</g>
			<g>
				<g>
					<g>
						<g>
							<g>
								<path class="st12" d="M542.5,237.3l-4.4,15.2c0,0,23.3,8.5,35.9,8.3c11.8-0.1,15.2-1.5,19.4-11c4.2-9.5,8.9-20.5,9.9-26.8
									c0,0,1-2.8,1.5-6.4c1.7-13-14-16.4-16.3-3.5l-1.9,6.9c0,0-4.3,9.7-4.5,10.2c-1.9,5-5.2,13.1-7.6,14S542.5,237.3,542.5,237.3
									z"/>
							</g>
						</g>
					</g>
				</g>
			</g>
			<g>
				<g>
					<path class="st5" d="M599.3,238c0,0,0,0.1-0.1,0.4c-0.1,0.3-0.2,0.6-0.4,1c-0.4,0.9-0.9,2.2-1.7,3.9c-0.8,1.7-1.8,3.7-3.3,6
						c-1.4,2.2-3.2,4.7-5.7,7c-0.6,0.6-1.3,1.1-2,1.6c-0.7,0.5-1.5,1-2.3,1.4c-0.4,0.2-0.8,0.4-1.3,0.6c-0.2,0.1-0.4,0.2-0.6,0.3
						l-0.7,0.2c-0.5,0.1-0.9,0.3-1.4,0.4c-0.5,0.1-1,0.1-1.5,0.2c-4,0.4-8.2-0.2-12.5-0.9c-8.7-1.5-18.2-4.1-27.9-7.3l-0.2-0.1
						l0.1-0.2c0.2-0.6,0.4-1.3,0.6-1.9c1.3-4.5,2.6-9,3.9-13.3l0.1-0.2l0.2,0.1c8.5,2.3,16.6,4.3,23.9,5.6c1.8,0.3,3.6,0.6,5.4,0.7
						c0.9,0.1,1.7,0.1,2.5,0c0.2,0,0.4-0.1,0.6-0.1c0.2-0.1,0.3-0.1,0.4-0.3c0.2-0.3,0.5-0.6,0.7-1c1.6-2.8,2.9-5.6,4.1-8.1
						c2.3-5,4.1-9.1,5.4-11.9c0.6-1.4,1.1-2.4,1.4-3.2c0.2-0.3,0.3-0.6,0.4-0.8c0.1-0.2,0.1-0.3,0.1-0.3c0,0,0,0.1-0.1,0.3
						c-0.1,0.2-0.2,0.5-0.3,0.8c-0.3,0.8-0.8,1.8-1.3,3.2c-1.2,2.8-2.9,6.9-5.2,11.9c-1.2,2.5-2.4,5.3-4,8.2
						c-0.2,0.4-0.4,0.7-0.7,1.1c-0.1,0.2-0.4,0.4-0.6,0.4c-0.2,0.1-0.4,0.1-0.7,0.2c-0.9,0.1-1.8,0.1-2.6,0
						c-1.8-0.1-3.6-0.4-5.4-0.7c-7.4-1.3-15.4-3.3-24-5.6l0.3-0.2c-1.3,4.3-2.6,8.7-3.9,13.3c-0.2,0.7-0.4,1.3-0.6,1.9l-0.2-0.3
						c9.7,3.2,19.1,5.8,27.8,7.3c4.3,0.7,8.5,1.3,12.4,0.9c0.5-0.1,1-0.1,1.4-0.2c0.5-0.1,0.9-0.2,1.4-0.4l0.7-0.2
						c0.2-0.1,0.4-0.2,0.6-0.3c0.4-0.2,0.8-0.4,1.2-0.6c0.8-0.5,1.5-0.9,2.2-1.4c0.7-0.6,1.4-1,2-1.6c2.4-2.2,4.2-4.7,5.7-6.9
						c1.4-2.2,2.5-4.2,3.3-5.9c0.8-1.7,1.4-3,1.8-3.9c0.2-0.4,0.3-0.8,0.5-1C599.3,238.1,599.3,238,599.3,238z"/>
				</g>
			</g>
			<g>
				<g>
					<path class="st5" d="M559.3,220.3c0.1,0-0.6,1.1-1.6,2.8c-1,1.7-2.4,4.1-2.9,7c-0.5,2.9,0.5,5.6,1.2,7.4
						c0.8,1.8,1.3,2.9,1.3,2.9c0,0-0.2-0.2-0.5-0.7c-0.3-0.5-0.7-1.2-1.1-2.1c-0.4-0.9-0.9-2-1.2-3.3c-0.3-1.3-0.4-2.8-0.2-4.3
						c0.5-3.1,2-5.5,3.1-7.1C558.5,221.2,559.2,220.3,559.3,220.3z"/>
				</g>
			</g>
			<g class="st14">
				<g>
					<path d="M561.3,259c-0.1,1.7,0.7,3.4,2,4.6c1.3,1.2,2.9,1.9,4.5,2.4c5.2,1.5,11.1,0.7,15.7-2.1c4.6-2.8,7.8-8,9.1-13.3
						c0,0-2.9,3.7-4.9,5.6c-2.6,2.6-5.4,3.8-9,4.3c-5.9,0.8-11.8-0.4-17.6-1.5"/>
				</g>
			</g>
			<g>
				<g>
					<path class="st7" d="M559.5,206.1c0,0,0.6,0.3,1.6,0.8c1.2,0.6,2.5,1.3,4.1,2.1l0.4,0.2l-0.4,0.2c-0.9,0.6-1.8,1.2-2.8,1.8
						c-0.9,0.6-1.8,1.2-2.6,1.7l-0.4,0.2l0-0.4c0-1.9,0-3.6,0-4.8C559.4,206.8,559.5,206.1,559.5,206.1c0.1,0,0.1,0.7,0.2,1.9
						c0.1,1.2,0.1,2.8,0.2,4.8l-0.4-0.2c0.8-0.5,1.7-1.1,2.6-1.7c1-0.6,2-1.3,2.9-1.8l0,0.4C561.7,207.6,559.4,206.2,559.5,206.1z"
						/>
				</g>
			</g>
			<g>
				<g>
					<path class="st7" d="M548.4,216c0,0,0.6,0.3,1.6,0.8c1.2,0.6,2.5,1.3,4.1,2.1l0.4,0.2l-0.4,0.2c-0.9,0.6-1.8,1.2-2.8,1.8
						c-0.9,0.6-1.8,1.2-2.6,1.7l-0.4,0.2l0-0.4c0-1.9,0-3.6,0-4.8C548.3,216.7,548.3,216,548.4,216c0.1,0,0.1,0.7,0.2,1.9
						c0.1,1.2,0.1,2.8,0.2,4.8l-0.4-0.2c0.8-0.5,1.7-1.1,2.6-1.7c1-0.6,2-1.3,2.9-1.8l0,0.4C550.6,217.5,548.3,216.1,548.4,216z"/>
				</g>
			</g>
			<g>
				<g>
					<path class="st7" d="M578.2,219.4c0,0,0-0.7,0.1-1.8c0.1-1.3,0.3-2.8,0.5-4.6l0-0.4l0.3,0.2c0.9,0.6,1.8,1.3,2.8,1.9
						c0.9,0.6,1.7,1.2,2.5,1.8l0.4,0.3l-0.4,0.2c-1.8,0.7-3.3,1.4-4.5,1.8C578.8,219.2,578.2,219.4,578.2,219.4
						c0-0.1,0.6-0.4,1.7-0.9c1.1-0.5,2.6-1.2,4.4-2l0,0.4c-0.8-0.6-1.7-1.2-2.6-1.8c-1-0.7-1.9-1.4-2.8-2l0.4-0.2
						C578.8,216.8,578.3,219.4,578.2,219.4z"/>
				</g>
			</g>
			<g>
				<g>
					<path class="st7" d="M558.5,231.1c0,0,0.4-0.5,1.1-1.4c0.9-1,1.9-2.1,3.1-3.5l0.3-0.3l0.1,0.4c0.4,1,0.7,2.1,1.1,3.2
						c0.4,1,0.7,2,1,3l0.1,0.4l-0.4-0.1c-1.9-0.4-3.5-0.8-4.7-1.1S558.5,231.1,558.5,231.1c0-0.1,0.7,0,1.9,0.3
						c1.2,0.2,2.8,0.6,4.7,1l-0.3,0.3c-0.3-0.9-0.7-1.9-1-3c-0.4-1.1-0.8-2.2-1.1-3.2l0.4,0.1C560.5,229.3,558.6,231.2,558.5,231.1z
						"/>
				</g>
			</g>
			<g>
				<g>
					<path class="st7" d="M573.9,232.6c0,0,0-0.7,0.1-1.8c0.1-1.3,0.3-2.8,0.5-4.6l0-0.4l0.3,0.2c0.9,0.6,1.8,1.3,2.8,1.9
						c0.9,0.6,1.7,1.2,2.5,1.8l0.4,0.3l-0.4,0.2c-1.8,0.7-3.3,1.4-4.5,1.8C574.6,232.5,573.9,232.7,573.9,232.6
						c0-0.1,0.6-0.4,1.7-0.9c1.1-0.5,2.6-1.2,4.4-2l0,0.4c-0.8-0.6-1.7-1.2-2.6-1.8c-1-0.7-1.9-1.4-2.8-2l0.4-0.2
						C574.5,230,574,232.7,573.9,232.6z"/>
				</g>
			</g>
			<g>
				<g>
					<path class="st7" d="M568.4,242c0,0,0-0.7,0.1-1.8c0.1-1.3,0.3-2.8,0.5-4.6l0-0.4l0.3,0.2c0.9,0.6,1.8,1.3,2.8,1.9
						c0.9,0.6,1.7,1.2,2.5,1.8l0.4,0.3l-0.4,0.2c-1.8,0.7-3.3,1.4-4.5,1.8C569.1,241.8,568.4,242.1,568.4,242c0-0.1,0.6-0.4,1.7-0.9
						c1.1-0.5,2.6-1.2,4.4-2l0,0.4c-0.8-0.6-1.7-1.2-2.6-1.8c-1-0.7-1.9-1.4-2.8-2l0.4-0.2C569,239.4,568.6,242,568.4,242z"/>
				</g>
			</g>
			<g>
				<g>
					<path class="st7" d="M579.7,273.5c0,0,0-0.7,0.1-1.8c0.1-1.3,0.3-2.8,0.5-4.6l0-0.4l0.3,0.2c0.9,0.6,1.8,1.3,2.8,1.9
						c0.9,0.6,1.7,1.2,2.5,1.8l0.4,0.3l-0.4,0.2c-1.8,0.7-3.3,1.4-4.5,1.8C580.4,273.3,579.8,273.6,579.7,273.5
						c0-0.1,0.6-0.4,1.7-0.9c1.1-0.5,2.6-1.2,4.4-2l0,0.4c-0.8-0.6-1.7-1.2-2.6-1.8c-1-0.7-1.9-1.4-2.8-2l0.4-0.2
						C580.3,270.9,579.9,273.5,579.7,273.5z"/>
				</g>
			</g>
			<g>
				<g>
					<path class="st7" d="M589.6,211.3c0,0,0-0.7,0.1-1.8c0.1-1.3,0.3-2.8,0.5-4.6l0-0.4l0.3,0.2c0.9,0.6,1.8,1.3,2.8,1.9
						c0.9,0.6,1.7,1.2,2.5,1.8l0.4,0.3l-0.4,0.2c-1.8,0.7-3.3,1.4-4.5,1.8S589.6,211.3,589.6,211.3c0-0.1,0.6-0.4,1.7-0.9
						c1.1-0.5,2.6-1.2,4.4-2l0,0.4c-0.8-0.6-1.7-1.2-2.6-1.8c-1-0.7-1.9-1.4-2.8-2l0.4-0.2C590.2,208.7,589.8,211.3,589.6,211.3z"/>
				</g>
			</g>
			<g>
				<g>
					<path class="st7" d="M565,222.3c0,0,0-0.7,0.1-1.8c0.1-1.3,0.3-2.8,0.5-4.6l0-0.4l0.3,0.2c0.9,0.6,1.8,1.3,2.8,1.9
						c0.9,0.6,1.7,1.2,2.5,1.8l0.4,0.3l-0.4,0.2c-1.8,0.7-3.3,1.4-4.5,1.8C565.7,222.1,565,222.4,565,222.3c0-0.1,0.6-0.4,1.7-0.9
						c1.1-0.5,2.6-1.2,4.4-2l0,0.4c-0.8-0.6-1.7-1.2-2.6-1.8c-1-0.7-1.9-1.4-2.8-2l0.4-0.2C565.6,219.7,565.2,222.3,565,222.3z"/>
				</g>
			</g>
			<g>
				<g>
					<path class="st7" d="M566.4,270.9c0,0,0-0.7,0.1-1.8c0.1-1.3,0.3-2.8,0.5-4.6l0-0.4l0.3,0.2c0.9,0.6,1.8,1.3,2.8,1.9
						c0.9,0.6,1.7,1.2,2.5,1.8l0.4,0.3l-0.4,0.2c-1.8,0.7-3.3,1.4-4.5,1.8C567.1,270.7,566.4,271,566.4,270.9c0-0.1,0.6-0.4,1.7-0.9
						c1.1-0.5,2.6-1.2,4.4-2l0,0.4c-0.8-0.6-1.7-1.2-2.6-1.8c-1-0.7-1.9-1.4-2.8-2l0.4-0.2C567,268.3,566.6,270.9,566.4,270.9z"/>
				</g>
			</g>
			<g>
				<g>
					<path class="st7" d="M592.8,230.3c0,0,0-0.7,0.1-1.8c0.1-1.3,0.3-2.8,0.5-4.6l0-0.4l0.3,0.2c0.9,0.6,1.8,1.3,2.8,1.9
						c0.9,0.6,1.7,1.2,2.5,1.8l0.4,0.3l-0.4,0.2c-1.8,0.7-3.3,1.4-4.5,1.8C593.4,230.1,592.8,230.3,592.8,230.3
						c0-0.1,0.6-0.4,1.7-0.9c1.1-0.5,2.6-1.2,4.4-2l0,0.4c-0.8-0.6-1.7-1.2-2.6-1.8c-1-0.7-1.9-1.4-2.8-2l0.4-0.2
						C593.4,227.7,592.9,230.3,592.8,230.3z"/>
				</g>
			</g>
			<g>
				<g>
					<path class="st7" d="M581.3,252.9c0,0,0-0.7,0.1-1.8c0.1-1.3,0.3-2.8,0.5-4.6l0-0.4l0.3,0.2c0.9,0.6,1.8,1.3,2.8,1.9
						c0.9,0.6,1.7,1.2,2.5,1.8l0.4,0.3l-0.4,0.2c-1.8,0.7-3.3,1.4-4.5,1.8C582,252.8,581.4,253,581.3,252.9c0-0.1,0.6-0.4,1.7-0.9
						c1.1-0.5,2.6-1.2,4.4-2l0,0.4c-0.8-0.6-1.7-1.2-2.6-1.8c-1-0.7-1.9-1.4-2.8-2l0.4-0.2C581.9,250.3,581.5,253,581.3,252.9z"/>
				</g>
			</g>
			<g>
				<g>
					<path class="st7" d="M590.9,263.4c0,0,0-0.7,0.1-1.8c0.1-1.3,0.3-2.8,0.5-4.6l0-0.4l0.3,0.2c0.9,0.6,1.8,1.3,2.8,1.9
						c0.9,0.6,1.7,1.2,2.5,1.8l0.4,0.3l-0.4,0.2c-1.8,0.7-3.3,1.4-4.5,1.8C591.5,263.2,590.9,263.5,590.9,263.4
						c0-0.1,0.6-0.4,1.7-0.9c1.1-0.5,2.6-1.2,4.4-2l0,0.4c-0.8-0.6-1.7-1.2-2.6-1.8c-1-0.7-1.9-1.4-2.8-2l0.4-0.2
						C591.5,260.8,591,263.4,590.9,263.4z"/>
				</g>
			</g>
			<g>
				<g>
					<path class="st7" d="M584.4,241.4c0,0,0-0.7,0.1-1.8c0.1-1.3,0.3-2.8,0.5-4.6l0-0.4l0.3,0.2c0.9,0.6,1.8,1.3,2.8,1.9
						c0.9,0.6,1.7,1.2,2.5,1.8l0.4,0.3l-0.4,0.2c-1.8,0.7-3.3,1.4-4.5,1.8C585,241.2,584.4,241.5,584.4,241.4c0-0.1,0.6-0.4,1.7-0.9
						c1.1-0.5,2.6-1.2,4.4-2l0,0.4c-0.8-0.6-1.7-1.2-2.6-1.8c-1-0.7-1.9-1.4-2.8-2l0.4-0.2C584.9,238.8,584.5,241.4,584.4,241.4z"/>
				</g>
			</g>
			<g>
				<g>
					<path class="st7" d="M553.8,254.9c0,0,0-0.7,0.1-1.8c0.1-1.3,0.3-2.8,0.5-4.6l0-0.4l0.3,0.2c0.9,0.6,1.8,1.3,2.8,1.9
						c0.9,0.6,1.7,1.2,2.5,1.8l0.4,0.3l-0.4,0.2c-1.8,0.7-3.3,1.4-4.5,1.8S553.9,255,553.8,254.9c0-0.1,0.6-0.4,1.7-0.9
						c1.1-0.5,2.6-1.2,4.4-2l0,0.4c-0.8-0.6-1.7-1.2-2.6-1.8c-1-0.7-1.9-1.4-2.8-2l0.4-0.2C554.4,252.3,554,254.9,553.8,254.9z"/>
				</g>
			</g>
			<g>
				<g>
					<path class="st7" d="M568.9,251.7c0,0,0-0.7,0.1-1.8c0.1-1.3,0.3-2.8,0.5-4.6l0-0.4l0.3,0.2c0.9,0.6,1.8,1.3,2.8,1.9
						c0.9,0.6,1.7,1.2,2.5,1.8l0.4,0.3l-0.4,0.2c-1.8,0.7-3.3,1.4-4.5,1.8C569.6,251.6,568.9,251.8,568.9,251.7
						c0-0.1,0.6-0.4,1.7-0.9c1.1-0.5,2.6-1.2,4.4-2l0,0.4c-0.8-0.6-1.7-1.2-2.6-1.8c-1-0.7-1.9-1.4-2.8-2l0.4-0.2
						C569.5,249.1,569,251.8,568.9,251.7z"/>
				</g>
			</g>
			<g>
				<g>
					<path class="st7" d="M542.7,248.2c0,0,0-0.7,0.1-1.8c0.1-1.3,0.3-2.8,0.5-4.6l0-0.4l0.3,0.2c0.9,0.6,1.8,1.3,2.8,1.9
						c0.9,0.6,1.7,1.2,2.5,1.8l0.4,0.3l-0.4,0.2c-1.8,0.7-3.3,1.4-4.5,1.8C543.4,248,542.7,248.2,542.7,248.2c0-0.1,0.6-0.4,1.7-0.9
						c1.1-0.5,2.6-1.2,4.4-2l0,0.4c-0.8-0.6-1.7-1.2-2.6-1.8c-1-0.7-1.9-1.4-2.8-2l0.4-0.2C543.3,245.5,542.9,248.2,542.7,248.2z"/>
				</g>
			</g>
			<g>
				<g>
					<path class="st7" d="M601.7,219.1c0,0-0.7-0.1-1.7-0.5c-1.2-0.4-2.7-0.8-4.4-1.3l-0.4-0.1l0.3-0.3c0.8-0.7,1.6-1.5,2.4-2.4
						c0.8-0.8,1.5-1.5,2.3-2.2l0.3-0.3l0.1,0.4c0.4,1.9,0.7,3.5,0.9,4.7C601.7,218.4,601.7,219.1,601.7,219.1
						c-0.1,0-0.3-0.7-0.5-1.8c-0.3-1.1-0.7-2.8-1.1-4.7l0.4,0.1c-0.7,0.7-1.5,1.4-2.2,2.2c-0.9,0.8-1.7,1.6-2.5,2.3l-0.1-0.4
						C599.2,218.1,601.7,219,601.7,219.1z"/>
				</g>
			</g>
		</g>
		<g>
			<g>
				<g>
					<g>
						<g>
							<path class="st13" d="M506.7,429.8l4.4-8.5l16,8.1l-6.3,12.5l-1-0.4c-4.5-2-22.9-10.5-25.4-12.9
								C491.6,425.9,506.7,429.8,506.7,429.8z"/>
						</g>
					</g>
					<g class="st15">
						<g>
							<path class="st8" d="M515,438.8c0.9-1.2,2.3-2.1,3.8-2.4c1.5-0.3,3-0.1,4.3,0.7l-2.3,4.5L515,438.8z"/>
						</g>
					</g>
				</g>
				<g class="st16">
					<g>
						<path class="st8" d="M499.2,428.1c0,0-5.4-1-5.3,0c0.2,1.1,18.4,10.3,26.8,13.7l0.2-0.4l-21.3-10.6
							C499.6,430.9,500.1,428.6,499.2,428.1z"/>
					</g>
				</g>
				<g>
					<g>
						<g>
							<path class="st5" d="M521.2,441.6c0,0-0.1,0-0.3-0.1c-0.2-0.1-0.5-0.2-0.8-0.4c-0.8-0.4-1.8-0.8-3-1.3
								c-2.5-1.2-5.9-2.8-9.7-4.7c-3.7-1.9-7.1-3.7-9.5-5c-1.1-0.6-2.1-1.2-2.8-1.6c-0.3-0.2-0.5-0.3-0.8-0.4
								c-0.2-0.1-0.3-0.2-0.3-0.2s0.1,0,0.3,0.1c0.2,0.1,0.5,0.3,0.8,0.4c0.8,0.4,1.7,0.9,2.9,1.5c2.4,1.3,5.8,3.1,9.5,5
								c3.7,1.9,7.2,3.6,9.6,4.8c1.2,0.6,2.1,1,2.9,1.4c0.3,0.1,0.6,0.3,0.8,0.4C521.1,441.6,521.2,441.6,521.2,441.6z"/>
						</g>
					</g>
				</g>
				<g>
					<g>
						<g>
							<path class="st5" d="M499.4,431.1c-0.1,0,0.2-0.7,0.2-1.7c-0.1-0.9-0.5-1.6-0.4-1.6c0,0,0.6,0.6,0.6,1.6
								C499.9,430.4,499.5,431.2,499.4,431.1z"/>
						</g>
					</g>
				</g>
				<g>
					<g>
						<g>
							<path class="st5" d="M505.4,431.1c-0.1,0-0.1-0.4-0.2-0.9c0-0.5,0-0.9,0-0.9c0.1,0,0.1,0.4,0.2,0.9
								C505.4,430.7,505.4,431.1,505.4,431.1z"/>
						</g>
					</g>
				</g>
				<g>
					<g>
						<g>
							<path class="st5" d="M507,431.1c-0.1,0-0.2-0.3-0.4-0.7c-0.1-0.4-0.2-0.7-0.2-0.7c0.1,0,0.2,0.3,0.4,0.7
								C507,430.8,507.1,431.1,507,431.1z"/>
						</g>
					</g>
				</g>
				<g>
					<g>
						<g>
							<path class="st5" d="M508.6,430c0,0.1-0.4-0.1-0.9-0.3s-0.8-0.5-0.8-0.5c0-0.1,0.4,0.1,0.9,0.3
								C508.3,429.7,508.6,430,508.6,430z"/>
						</g>
					</g>
				</g>
				<g>
					<g>
						<g>
							<path class="st5" d="M509.4,429.1c0,0.1-0.5,0-1.1-0.2c-0.6-0.2-0.9-0.6-0.9-0.6c0-0.1,0.4,0.2,1,0.4
								C509,428.9,509.4,429,509.4,429.1z"/>
						</g>
					</g>
				</g>
				<g>
					<g>
						<g>
							<path class="st5" d="M505.5,429.5c0,0-0.4-0.1-1-0.5c-0.3-0.2-0.6-0.5-1-0.8c-0.2-0.2-0.3-0.3-0.5-0.6
								c-0.1-0.1-0.1-0.3-0.1-0.4c0-0.2,0.2-0.3,0.4-0.3c1.2,0,1.9,1,2,1.7c0.1,0.4,0,0.7,0,0.9c0,0.2-0.1,0.3-0.1,0.3
								c0,0,0.1-0.4,0-1.1c-0.1-0.3-0.3-0.7-0.6-1c-0.3-0.3-0.8-0.6-1.3-0.5c-0.2,0-0.3,0.3-0.1,0.5c0.1,0.2,0.3,0.4,0.5,0.5
								c0.3,0.3,0.6,0.6,0.9,0.8C505.2,429.2,505.5,429.4,505.5,429.5z"/>
						</g>
					</g>
				</g>
				<g>
					<g>
						<g>
							<path class="st5" d="M505.2,429.4c0,0,0-0.3,0.2-0.8c0.1-0.2,0.4-0.4,0.7-0.6c0.3-0.1,0.7-0.3,1.1-0.1
								c0.2,0.2,0.2,0.5,0.1,0.6c-0.1,0.2-0.3,0.3-0.4,0.4c-0.3,0.2-0.6,0.3-0.8,0.4C505.6,429.5,505.3,429.4,505.2,429.4
								c0.1,0,0.4-0.1,0.8-0.2c0.2-0.1,0.5-0.2,0.7-0.4c0.3-0.1,0.5-0.5,0.3-0.7c-0.2-0.2-0.6,0-0.9,0.1c-0.3,0.1-0.5,0.3-0.6,0.5
								C505.3,429.1,505.3,429.4,505.2,429.4z"/>
						</g>
					</g>
				</g>
				<g>
					<g>
						<g>
							<path class="st5" d="M523.1,437.1c0,0-0.4-0.3-1.2-0.6c-0.8-0.3-1.9-0.5-3.1-0.2c-1.2,0.3-2.2,0.9-2.8,1.5
								c-0.6,0.6-0.8,1-0.9,1c0,0,0-0.1,0.2-0.3c0.1-0.2,0.3-0.5,0.6-0.8c0.6-0.6,1.6-1.3,2.8-1.6c1.3-0.3,2.5,0,3.2,0.3
								c0.4,0.2,0.7,0.3,0.9,0.5C523,437,523.1,437.1,523.1,437.1z"/>
						</g>
					</g>
				</g>
				<g>
					<g>
						<g>
							<path class="st5" d="M524.8,429.6c0.1,0-0.6,1.5-1.5,3.3c-0.9,1.8-1.7,3.3-1.7,3.3c-0.1,0,0.6-1.5,1.5-3.3
								C523.9,431,524.7,429.6,524.8,429.6z"/>
						</g>
					</g>
				</g>
				<g>
					<g>
						<g>
							<path class="st5" d="M513.8,436.2c0,0.1-1.1-0.3-2.4-1c-1.3-0.6-2.3-1.3-2.2-1.4c0-0.1,1,0.5,2.3,1.2
								C512.7,435.7,513.8,436.2,513.8,436.2z"/>
						</g>
					</g>
				</g>
				<g>
					<g>
						<g>
							<path class="st5" d="M516.9,437.8c0,0.1-0.2,0.2-0.4,0.4c-0.2,0.2-0.4,0.4-0.4,0.3c-0.1,0,0-0.3,0.3-0.5
								C516.6,437.8,516.9,437.8,516.9,437.8z"/>
						</g>
					</g>
				</g>
				<g>
					<g>
						<g>
							<path class="st5" d="M518.9,436.9c0,0.1-0.2,0.2-0.4,0.3c-0.3,0.1-0.5,0.1-0.5,0c0-0.1,0.2-0.2,0.4-0.3
								C518.6,436.9,518.8,436.9,518.9,436.9z"/>
						</g>
					</g>
				</g>
				<g>
					<g>
						<g>
							<path class="st5" d="M520.9,437.1c0,0-0.2-0.1-0.5-0.1c-0.3,0-0.5,0-0.5-0.1c0-0.1,0.2-0.2,0.6-0.2
								C520.7,436.9,520.9,437.1,520.9,437.1z"/>
						</g>
					</g>
				</g>
				<g>
					<g>
						<g>
							<path class="st5" d="M522.3,437.4c0,0.1-0.1,0.1-0.3,0.1c-0.2,0-0.3-0.1-0.3-0.1c0-0.1,0.1-0.1,0.3-0.1
								C522.1,437.3,522.3,437.4,522.3,437.4z"/>
						</g>
					</g>
				</g>
			</g>
		</g>
		<g>
			<g>
				<g>
					<g>
						<g>
							<path class="st13" d="M611.4,433.2l-3.8-8.8l16.4-7.2l5.7,12.8l-1,0.5c-4.4,2.2-22.6,11.1-26,11.5
								C598.9,442.4,611.4,433.2,611.4,433.2z"/>
						</g>
					</g>
					<g class="st15">
						<g>
							<path class="st8" d="M623.7,432.4c-0.4-1.5-0.2-3.1,0.5-4.4c0.7-1.3,1.9-2.4,3.3-2.9l2,4.6L623.7,432.4z"/>
						</g>
					</g>
				</g>
				<g class="st16">
					<g>
						<path class="st8" d="M605.4,437.9c0,0-4.3,3.6-3.3,4.1c1,0.5,19.7-7.7,27.6-12.1l-0.2-0.4l-21.7,9.8
							C607.8,439.4,606.4,437.6,605.4,437.9z"/>
					</g>
				</g>
				<g>
					<g>
						<g>
							<path class="st5" d="M629.8,429.5c0,0-0.1,0.1-0.3,0.2c-0.2,0.1-0.5,0.3-0.8,0.4c-0.8,0.4-1.8,0.9-2.9,1.4
								c-2.5,1.2-5.9,2.8-9.7,4.5c-3.8,1.7-7.3,3.2-9.9,4.2c-1.2,0.5-2.2,0.9-3,1.2c-0.3,0.1-0.6,0.2-0.8,0.3
								c-0.2,0.1-0.3,0.1-0.3,0.1c0,0,0.1-0.1,0.3-0.1c0.2-0.1,0.5-0.2,0.8-0.3c0.8-0.3,1.8-0.8,3-1.3c2.5-1.1,6-2.5,9.9-4.2
								c3.8-1.7,7.3-3.3,9.8-4.5c1.2-0.5,2.1-1,2.9-1.4c0.3-0.1,0.6-0.3,0.8-0.4C629.7,429.5,629.8,429.4,629.8,429.5z"/>
						</g>
					</g>
				</g>
				<g>
					<g>
						<g>
							<path class="st5" d="M607.9,439.7c-0.1,0-0.4-0.7-1.2-1.2c-0.8-0.5-1.5-0.6-1.5-0.7c0-0.1,0.8-0.1,1.6,0.5
								C607.7,438.9,608,439.6,607.9,439.7z"/>
						</g>
					</g>
				</g>
				<g>
					<g>
						<g>
							<path class="st5" d="M611.7,435.1c0,0-0.4-0.1-0.8-0.4c-0.4-0.3-0.7-0.5-0.7-0.6c0-0.1,0.4,0.1,0.8,0.4
								C611.4,434.8,611.7,435,611.7,435.1z"/>
						</g>
					</g>
				</g>
				<g>
					<g>
						<g>
							<path class="st5" d="M612.7,433.8c0,0.1-0.4,0-0.7-0.1c-0.4-0.1-0.7-0.3-0.7-0.3c0-0.1,0.4,0,0.7,0.1
								C612.4,433.6,612.7,433.7,612.7,433.8z"/>
						</g>
					</g>
				</g>
				<g>
					<g>
						<g>
							<path class="st5" d="M612.8,431.9c0,0.1-0.3,0.3-0.8,0.5c-0.5,0.2-0.9,0.3-0.9,0.3c0-0.1,0.3-0.3,0.8-0.5
								C612.4,431.9,612.8,431.8,612.8,431.9z"/>
						</g>
					</g>
				</g>
				<g>
					<g>
						<g>
							<path class="st5" d="M612.6,430.7c0,0-0.3,0.4-0.8,0.7c-0.5,0.3-1,0.4-1,0.3c0-0.1,0.4-0.2,0.9-0.5
								C612.2,430.9,612.6,430.6,612.6,430.7z"/>
						</g>
					</g>
				</g>
				<g>
					<g>
						<g>
							<path class="st5" d="M610.5,433.9c0,0-0.4,0.2-1.1,0.5c-0.3,0.1-0.8,0.2-1.2,0.2c-0.2,0-0.5,0.1-0.8,0
								c-0.1,0-0.3-0.1-0.4-0.2c-0.1-0.1-0.1-0.4,0-0.5c0.8-1,2-0.8,2.6-0.5c0.3,0.2,0.5,0.4,0.7,0.6c0.1,0.2,0.2,0.3,0.2,0.3
								c0,0-0.3-0.4-0.9-0.7c-0.3-0.1-0.7-0.2-1.2-0.2c-0.4,0.1-1,0.3-1.2,0.6c-0.1,0.2,0,0.4,0.3,0.4c0.2,0,0.5,0,0.7,0
								c0.5,0,0.9-0.1,1.2-0.2C610.1,434,610.5,433.9,610.5,433.9z"/>
						</g>
					</g>
				</g>
				<g>
					<g>
						<g>
							<path class="st5" d="M610.2,434.1c0,0-0.3-0.2-0.4-0.7c-0.1-0.2-0.1-0.6-0.1-0.9c0.1-0.3,0.2-0.7,0.6-0.9
								c0.3-0.1,0.5,0.1,0.5,0.3c0.1,0.2,0,0.4,0,0.5c0,0.3-0.1,0.6-0.2,0.9C610.5,433.8,610.3,434,610.2,434.1
								c0.1-0.1,0.2-0.3,0.3-0.8c0.1-0.2,0.1-0.5,0.2-0.8c0-0.3,0-0.7-0.3-0.7c-0.3,0.1-0.4,0.5-0.5,0.8c-0.1,0.3,0,0.6,0,0.8
								C610,433.8,610.3,434,610.2,434.1z"/>
						</g>
					</g>
				</g>
				<g>
					<g>
						<g>
							<path class="st5" d="M627.5,425.1c0,0-0.5,0.2-1.2,0.6c-0.7,0.4-1.6,1.2-2.2,2.3c-0.6,1.1-0.7,2.3-0.6,3.1
								c0.1,0.8,0.2,1.3,0.2,1.3c0,0-0.1-0.1-0.1-0.3c-0.1-0.2-0.2-0.5-0.2-1c-0.1-0.8,0-2,0.6-3.2c0.6-1.1,1.5-1.9,2.3-2.3
								c0.4-0.2,0.7-0.3,0.9-0.4C627.3,425.1,627.5,425.1,627.5,425.1z"/>
						</g>
					</g>
				</g>
				<g>
					<g>
						<g>
							<path class="st5" d="M622.7,419.1c0.1,0,0.8,1.5,1.6,3.3c0.8,1.8,1.5,3.4,1.4,3.4c-0.1,0-0.8-1.5-1.6-3.3
								C623.3,420.6,622.7,419.1,622.7,419.1z"/>
						</g>
					</g>
				</g>
				<g>
					<g>
						<g>
							<path class="st5" d="M620.9,431.7c0,0-1,0.7-2.3,1.3c-1.3,0.6-2.5,0.9-2.5,0.9c0-0.1,1.1-0.5,2.4-1.1
								C619.9,432.2,620.9,431.7,620.9,431.7z"/>
						</g>
					</g>
				</g>
				<g>
					<g>
						<g>
							<path class="st5" d="M624.2,430.3c0.1,0,0,0.3,0,0.6c0,0.3,0,0.5,0,0.6c-0.1,0-0.2-0.2-0.2-0.6
								C623.9,430.5,624.1,430.3,624.2,430.3z"/>
						</g>
					</g>
				</g>
				<g>
					<g>
						<g>
							<path class="st5" d="M624.7,428.3c0.1,0,0,0.2-0.1,0.5c-0.1,0.2-0.2,0.4-0.3,0.4c-0.1,0,0-0.2,0.1-0.5
								C624.5,428.4,624.6,428.3,624.7,428.3z"/>
						</g>
					</g>
				</g>
				<g>
					<g>
						<g>
							<path class="st5" d="M626.1,426.8c0,0.1-0.2,0.2-0.4,0.3c-0.2,0.2-0.3,0.4-0.4,0.4c-0.1,0,0-0.3,0.2-0.5
								C625.8,426.8,626.1,426.8,626.1,426.8z"/>
						</g>
					</g>
				</g>
				<g>
					<g>
						<g>
							<path class="st5" d="M627.2,426c0,0,0,0.2-0.1,0.3c-0.1,0.1-0.2,0.2-0.3,0.1c0,0,0-0.2,0.1-0.3
								C627,426,627.2,425.9,627.2,426z"/>
						</g>
					</g>
				</g>
			</g>
		</g>
		<g>
			<g>
				<g>
					<path class="st5" d="M628.2,422.6l-23,13.1L572.8,371c-4.8-17.3-9.4-78.2-9.4-78.2l26.6,2c0,0,4.1,43.7,10.5,66.3L628.2,422.6z
						"/>
				</g>
				<g>
					<path class="st5" d="M603.2,266.1c0.6,0,5.3,18-0.4,28.9c-0.6,1.1-4.6,7-4.6,7c-14.5,17.1-29.2,50.3-33.3,59
						c-8.4,17.9-39.5,76.8-39.5,76.8l-19.9-11.4l29.1-74.9l25-73.5L603.2,266.1z"/>
					<g>
						<path class="st6" d="M590.2,312.4c0,0-0.3,0.5-0.8,1.5c-0.5,1-1.3,2.4-2.2,4.1c-1.8,3.5-4.4,8.2-7.2,13.4
							c-2.8,5.2-5.3,10-7.1,13.5c-0.9,1.7-1.6,3.2-2,4.2c-0.5,1-0.7,1.5-0.7,1.6c0,0,0.3-0.5,0.8-1.5c0.5-1,1.3-2.4,2.2-4.1
							c1.8-3.5,4.4-8.2,7.2-13.4c2.8-5.2,5.3-10,7.1-13.5c0.9-1.7,1.6-3.2,2-4.2C589.9,313,590.2,312.4,590.2,312.4z"/>
					</g>
				</g>
			</g>
		</g>
		<g>
			<g>
				<path class="st17" d="M535.1,248.5c-3.7-0.4-8.2-0.9-10.5-1.4c-4.3-1-4.2-1.4-4-1.9c0.5-1.3,7.6,1.5,6.4,0
					c-1.2-1.5-9-2.4-8.4-3.8c0.8-1.7,8.1,1.4,8.8,1.6c0.6,0.2,0.9-0.7,0.4-0.9c-0.8-0.2-9.6-2.9-8.9-4.6c0.4-0.9,2,0,2,0
					s8.1,3.1,8.4,2.3c0.3-0.8-4.3-2.8-6-3.4c-1.6-0.6-2-1.6-1.2-2.1c0.6-0.3,5.6,1.3,7.2,1.8c1.6,0.6,5.9,2.3,4.4-0.3
					c-1.5-2.6-1.7-5.1-1.3-5.9c0.4-0.7,1.6-0.4,1.7,0.6c0.1,0.7,0.6,2,1,2.9c0.3,0.7,0.8,1.4,1.4,2c0.5,0.5,0.9,0.9,1.3,1.3l3.6,3.4
					l-2.5,8.7L535.1,248.5z"/>
			</g>
		</g>
		<g>
			<g>
				<path class="st5" d="M579.9,153.6c-1.3-2.1-3.9-2.8-6.4-2.8c-6.7,0.1-13,5.4-14.2,12c-0.5,2.7-0.2,5.6-1.1,8.2
					c-0.6,1.9-1.8,3.5-2.9,5.2c-1.1,1.7-2.1,3.4-2.4,5.4c-0.3,2,0.3,4.2,2,5.3c-1.9,2-2.4,5.3-1.1,7.7c1.3,2.5,4.3,3.9,7,3.5
					c1.5-0.3,3-1,4.3-0.3c0.7,0.3,1.1,1,1.6,1.5c2,2.1,5.3,2.4,8,1.4c2.7-1,4.8-3.2,6.3-5.6c0.4-0.6,1-1.4,1.7-1.3
					c0.4,0,0.8,0.4,1.1,0.6c2.6,2,6.8,1.7,9.1-0.7c2.3-2.4,2.4-6.6,0.2-9.1c2.4-0.7,4.3-2.7,5.1-5.1c0.8-2.4,0.6-5-0.3-7.3
					c-1.3-3.5-3.8-6.3-6.2-9.1c-2.2-2.5-2.9-6.4-5.1-8.9c-1-1.1-2.1-2.4-4.2-2.8c-1.4-0.3-3.5,0.3-4.8,1.1"/>
			</g>
			<g>
				<g>
					<g>
						<g>
							<g>
								<g>
									<g>
										<path class="st17" d="M574.9,154.8c7,0,12.6,5.7,12.5,12.7l-0.4,34.2c-0.1,4.4-3.9,7.8-8.5,7.7h0
											c-4.7-0.1-8.6-3.8-8.6-8.2c0-4.6-0.1-9.5-0.1-9.5s-6-1-7.2-8.8c-0.3-2-0.3-9.1-0.3-15.8
											C562.4,160.4,568,154.8,574.9,154.8L574.9,154.8z"/>
									</g>
								</g>
								<g>
									<g>
										<g>
											<path class="st5" d="M564.1,172c0,0.5,0.4,1,1,1c0.5,0,1-0.4,1-0.9c0-0.5-0.4-1-1-1C564.6,171.1,564.1,171.5,564.1,172z"
												/>
										</g>
									</g>
									<g>
										<g>
											<g>
												<path class="st5" d="M563.9,170.9c0.1,0.1,0.9-0.4,2-0.4c1.1,0,1.9,0.5,2,0.4c0.1-0.1-0.1-0.3-0.4-0.5
													c-0.3-0.2-0.9-0.5-1.6-0.5c-0.7,0-1.2,0.3-1.6,0.5C564,170.6,563.8,170.8,563.9,170.9z"/>
											</g>
										</g>
									</g>
								</g>
								<g>
									<g>
										<g>
											<path class="st5" d="M574.9,172c0,0.5,0.4,1,1,1c0.5,0,1-0.4,1-0.9c0-0.5-0.4-1-1-1C575.4,171.1,574.9,171.5,574.9,172z"
												/>
										</g>
									</g>
									<g>
										<g>
											<g>
												<path class="st5" d="M574.5,171.1c0.1,0.1,0.9-0.4,2-0.4c1.1,0,1.9,0.5,2,0.4c0.1-0.1-0.1-0.3-0.4-0.5
													c-0.3-0.2-0.9-0.5-1.6-0.5c-0.7,0-1.2,0.2-1.6,0.5C574.5,170.8,574.4,171,574.5,171.1z"/>
											</g>
										</g>
									</g>
								</g>
								<g>
									<g>
										<g>
											<path class="st5" d="M570.6,179.1c0-0.1-0.7-0.2-1.7-0.3c-0.3,0-0.5-0.1-0.6-0.3c-0.1-0.2,0.1-0.5,0.2-0.8
												c0.3-0.7,0.5-1.4,0.8-2.1c1.1-3,1.9-5.4,1.8-5.5c-0.1,0-1.1,2.3-2.3,5.3c-0.3,0.7-0.5,1.4-0.8,2.1
												c-0.1,0.3-0.3,0.7-0.1,1.1c0.1,0.2,0.3,0.4,0.5,0.4c0.2,0.1,0.3,0.1,0.5,0.1C569.9,179.1,570.6,179.1,570.6,179.1z"/>
										</g>
									</g>
								</g>
								<g>
									<g>
										<path class="st18" d="M569.8,191.8c0,0,5.2,0.3,10.4-2.8c0,0-2.5,5.3-10.3,4.6L569.8,191.8z"/>
									</g>
								</g>
								<g>
									<g>
										<path class="st18" d="M571,181.7c0.4-0.5,1.1-0.8,1.7-0.7c0.5,0.1,0.9,0.3,1.2,0.7c0.3,0.4,0.3,0.9,0.1,1.3
											c-0.3,0.4-0.9,0.5-1.4,0.4c-0.5-0.1-1-0.5-1.4-0.8c-0.1-0.1-0.2-0.2-0.3-0.3C570.9,182,570.9,181.8,571,181.7"/>
									</g>
								</g>
								<g>
									<g>
										<g>
											<path class="st5" d="M573.7,179.8c-0.2,0-0.2,1.2-1.2,2c-1,0.8-2.2,0.7-2.2,0.9c0,0.1,0.3,0.2,0.8,0.2
												c0.5,0,1.3-0.1,1.9-0.7c0.6-0.5,0.9-1.2,0.9-1.7C573.9,180.1,573.8,179.8,573.7,179.8z"/>
										</g>
									</g>
								</g>
							</g>
						</g>
					</g>
					<g>
						<g>
							<path class="st5" d="M574.4,168.1c0.1,0.3,1.2,0.2,2.4,0.3c1.3,0.1,2.3,0.5,2.4,0.2c0.1-0.1-0.1-0.4-0.5-0.7
								c-0.4-0.3-1.1-0.6-1.8-0.6c-0.8-0.1-1.4,0-1.9,0.2C574.6,167.7,574.4,168,574.4,168.1z"/>
						</g>
					</g>
					<g>
						<g>
							<path class="st5" d="M564.3,167.8c0.2,0.2,0.9,0,1.8,0c0.9,0,1.6,0.2,1.8-0.1c0.1-0.1,0-0.4-0.4-0.6
								c-0.3-0.2-0.9-0.4-1.5-0.4c-0.6,0-1.1,0.2-1.5,0.5C564.3,167.4,564.2,167.7,564.3,167.8z"/>
						</g>
					</g>
				</g>
			</g>
			<g>
				<path class="st5" d="M590.2,167.3c-0.5-4.7-2.8-9.5-6.8-11.9c-3.5-2.2-7.2-2.7-10.7-0.8c-2.9-0.5-6,0.6-8.3,2.6
					c-2.3,2.1-3.7,5.1-4,8.2c-0.4,3.1,0.2,6.2,1.4,9.1c0.2-2.6,0.4-5.3,0.6-7.9c4-1.7,8.5-5.1,10-9.2c1.5,5.5,6.2,10.2,11.8,11.5
					c-0.8,4.6,1,9.5,4.6,12.5C589.9,176.8,590.8,172,590.2,167.3z"/>
			</g>
			<g>
				<path class="st5" d="M585.1,172c0.6,3-0.4,6.1-1.2,9.1c-0.8,3-1.2,6.3,0.4,9c0.5,0.8,1.1,1.5,1.1,2.4c0,0.8-0.6,1.5-0.8,2.2
					c-0.4,1.4,0.3,3,1.6,3.7c1.2,0.8,2.8,0.9,4.2,0.6c1.4-0.3,2.7-0.9,4-1.6c1.3-0.6,2.5-1.3,3.8-1.9c0.6-0.3,1.1-0.6,1.6-1
					c0.8-0.7,1.1-1.8,1.4-2.8c0.9-4,0-8.3-2-11.9c-2-3.6-1.1-9.6-4.6-11.8"/>
			</g>
			<g>
				<g>
					<path class="st6" d="M596.2,196.1c0-0.1,0.8-0.1,2-0.8c0.6-0.4,1.3-0.9,1.8-1.7c0.6-0.8,1-1.9,1.2-3.1c0.1-1.2-0.1-2.6-0.7-4
						c-0.3-0.7-0.7-1.3-1.2-1.9c-0.5-0.6-1-1.2-1.6-1.8c-0.6-0.6-1.2-1.2-1.7-2c-0.5-0.7-0.9-1.6-1-2.6c-0.2-1.9,0.5-3.8,0.2-5.6
						c-0.2-0.9-0.7-1.7-1.4-2.2c-0.7-0.5-1.6-0.9-2.4-1.2c-1.7-0.5-3.5-1.2-4.9-2.2c-2.9-1.9-5-4.1-6.7-6.1
						c-1.7-1.9-2.9-3.6-3.7-4.8c-0.4-0.6-0.7-1-0.9-1.4c-0.2-0.3-0.3-0.5-0.3-0.5c0,0,0.1,0.1,0.4,0.4c0.3,0.3,0.6,0.8,1,1.3
						c0.9,1.1,2.1,2.8,3.8,4.6c1.7,1.9,3.8,4.1,6.6,5.9c1.4,0.9,3,1.6,4.8,2.1c0.9,0.3,1.8,0.6,2.6,1.2c0.8,0.6,1.4,1.5,1.6,2.6
						c0.3,2-0.4,3.9-0.2,5.7c0.2,1.8,1.5,3.1,2.6,4.3c0.6,0.6,1.2,1.2,1.7,1.9c0.5,0.7,0.9,1.3,1.2,2.1c0.6,1.4,0.8,2.9,0.6,4.2
						c-0.1,1.3-0.7,2.4-1.3,3.2c-0.6,0.8-1.3,1.4-2,1.7c-0.6,0.3-1.2,0.5-1.6,0.6C596.4,196.1,596.2,196.1,596.2,196.1z"/>
				</g>
			</g>
			<g>
				<g>
					<path class="st6" d="M593.8,165.4c0,0-0.3,0-0.8-0.2c-0.5-0.1-1.3-0.4-2.2-0.7c-1.8-0.7-4.3-1.9-6.7-3.5
						c-2.5-1.7-4.4-3.5-5.7-4.9c-0.7-0.7-1.2-1.3-1.5-1.8c-0.3-0.4-0.5-0.7-0.5-0.7c0.1-0.1,0.8,0.9,2.2,2.2
						c1.4,1.4,3.4,3.1,5.8,4.8c2.4,1.6,4.8,2.8,6.6,3.6C592.7,164.9,593.8,165.3,593.8,165.4z"/>
				</g>
			</g>
			<g>
				<g>
					<path class="st6" d="M566.4,153.4c0-0.1,0.4-0.5,1.1-1c0.8-0.5,2-1.2,3.5-1.2c0.7,0,1.5,0.1,2.1,0.4c0.6,0.3,1,0.7,1.3,1.1
						c0.6,0.8,0.6,1.5,0.5,1.5c-0.1,0-0.2-0.6-0.8-1.2c-0.6-0.7-1.7-1.3-3.1-1.2c-1.4,0-2.5,0.6-3.3,1
						C566.9,153.1,566.5,153.5,566.4,153.4z"/>
				</g>
			</g>
		</g>
	</g>
</g>
<g id="Plants">
	<g>
		<path class="st13" d="M123.2,326.3c0,0,6.6,0.3,4.3,14.8c-2.3,14.5-4.7,22.2-4.7,22.2s-0.2,3.3,2.4,2.9c2.6-0.3,7.7-2.9,9.7-0.3
			c2.1,2.7,0.8,6.4-2.9,10.4c-3.7,4-11.6,13.2-12.3,14c-0.7,0.8-1.1,2.4,0.7,2.5c1.8,0,14.3-2.6,15.2,3.4c0.9,6-11.3,15.6-12.6,16.6
			c-1.3,1.1-1.5,1.8-1.1,2.6c0.4,0.8,4.5-0.5,8.1-1.1c3.6-0.6,7.8-0.7,8.1,2.8c0.2,3.5-5.8,13-25.1,21.4l-9.2,3.3l-7.6-6.2
			c-15.5-14.3-18.1-25.2-16.7-28.4c1.4-3.2,5.4-1.8,8.6,0c3.2,1.7,6.7,4.3,7.3,3.7c0.6-0.6,0.7-1.4-0.2-2.8
			c-0.9-1.4-9.3-14.5-6.5-19.8c2.8-5.4,13.8,1.2,15.5,1.8s1.8-1.1,1.5-2.1c-0.4-1-4.8-12.2-7-17.3c-2.2-5-2.2-8.9,0.7-10.8
			c2.8-1.8,6.8,2.3,9.1,3.5c2.3,1.2,3.2-2,3.2-2s0.2-8,2.8-22.5c2.6-14.5,9-12.6,9-12.6"/>
		<g>
			<path class="st5" d="M121.2,339.3c0,0,0,0.1,0,0.3c0,0.2-0.1,0.5-0.1,0.8c-0.1,0.7-0.3,1.7-0.5,3c-0.4,2.6-1.1,6.4-1.9,11
				c-1.5,9.3-3.6,22.1-6,36.3c-2.3,14.2-4.5,27-6.1,36.3c-0.8,4.6-1.5,8.4-2,11c-0.2,1.3-0.4,2.3-0.6,3c-0.1,0.3-0.1,0.6-0.2,0.8
				c0,0.2-0.1,0.3-0.1,0.3c0,0,0-0.1,0-0.3c0-0.2,0.1-0.5,0.1-0.8c0.1-0.7,0.3-1.7,0.5-3c0.4-2.6,1.1-6.4,1.9-11
				c1.6-9.3,3.7-22.1,6-36.3c2.3-14.2,4.5-27,6.1-36.3c0.8-4.6,1.5-8.4,2-11c0.2-1.3,0.4-2.3,0.6-3c0.1-0.3,0.1-0.6,0.2-0.8
				C121.2,339.4,121.2,339.3,121.2,339.3z"/>
		</g>
		<g>
			<path class="st5" d="M128,369.8c0,0-0.7,0.7-2,1.7c-1.3,1.1-3,2.5-4.8,4.1c-1.9,1.6-3.6,3.1-4.9,4.1c-0.6,0.5-1.2,0.9-1.5,1.2
				c-0.4,0.3-0.6,0.4-0.6,0.4c0,0,0.7-0.7,2-1.8c1.3-1.1,3-2.6,4.8-4.2c1.9-1.6,3.6-3,4.9-4c0.6-0.5,1.2-0.9,1.5-1.2
				C127.7,369.9,127.9,369.8,128,369.8z"/>
		</g>
		<g>
			<path class="st5" d="M113.3,380.9c-0.1,0.1-3-3.5-6.5-8c-3.5-4.5-6.3-8.2-6.2-8.3c0.1-0.1,3,3.5,6.5,8
				C110.6,377.1,113.4,380.8,113.3,380.9z"/>
		</g>
		<g>
			<path class="st5" d="M110.4,406.1c0,0-0.2-0.1-0.6-0.3c-0.4-0.2-1-0.6-1.7-1.1c-1.4-0.9-3.3-2.2-5.3-3.8c-2-1.6-3.7-3.1-5-4.2
				c-0.6-0.6-1.1-1-1.4-1.4c-0.3-0.3-0.5-0.5-0.5-0.5c0,0,0.8,0.6,2.1,1.7c1.3,1.1,3,2.5,5,4.1c2,1.6,3.8,2.9,5.2,3.9
				C109.6,405.5,110.5,406.1,110.4,406.1z"/>
		</g>
		<g>
			<path class="st5" d="M125.9,399c0,0-0.8,0.5-2.2,1.1c-1.4,0.7-3.3,1.5-5.4,2.5c-2.1,1-4.1,1.8-5.5,2.4c-1.4,0.6-2.3,0.9-2.3,0.9
				c0,0,0.8-0.5,2.2-1.1c1.4-0.7,3.3-1.5,5.4-2.5c2.1-1,4.1-1.8,5.5-2.4C125,399.3,125.9,398.9,125.9,399z"/>
		</g>
		<g>
			<path class="st5" d="M126.2,421.5c0,0-0.3,0.2-0.8,0.4c-0.6,0.3-1.3,0.6-2.1,1c-1.8,0.8-4.3,1.9-7,3.1c-2.7,1.2-5.2,2.3-7.1,3
				c-0.9,0.3-1.6,0.6-2.2,0.9c-0.5,0.2-0.8,0.3-0.8,0.3c0,0,0.3-0.2,0.8-0.4c0.6-0.3,1.3-0.6,2.1-1c1.8-0.8,4.3-1.9,7-3.1
				c2.7-1.2,5.2-2.3,7.1-3c0.9-0.3,1.6-0.6,2.2-0.9C125.9,421.6,126.1,421.5,126.2,421.5z"/>
		</g>
		<g>
			<path class="st5" d="M106.7,429.9c0,0-0.3-0.2-0.8-0.5c-0.5-0.3-1.2-0.8-2-1.4c-1.7-1.2-4-3-6.5-5.1c-2.5-2.1-4.6-4-6.2-5.4
				c-0.8-0.7-1.4-1.3-1.8-1.7c-0.4-0.4-0.6-0.7-0.6-0.7c0,0,0.3,0.2,0.7,0.6c0.5,0.4,1.1,1,1.9,1.6c1.6,1.4,3.8,3.3,6.2,5.3
				c2.5,2.1,4.7,3.8,6.4,5.1c0.8,0.6,1.4,1.1,2,1.5C106.4,429.6,106.7,429.9,106.7,429.9z"/>
		</g>
	</g>
	<g>
		<g>
			<path class="st13" d="M658.2,378.2c2.9,1.3,5.1,4,6.2,7c1.1,3,1.2,6.3,0.8,9.5c-0.7,6.1-4.2,12.4-8,17.3
				c-5.2-4.5-6.4-12.4-6.7-16.4C650,389.1,652.8,377.3,658.2,378.2"/>
		</g>
		<g>
			<path class="st13" d="M663.3,422.1c-0.8-3.5,0.6-7.3,3.3-9.7c2.7-2.4,6.4-3.4,10-3.1c1.6,0.1,3.4,0.6,4.4,2
				c0.9,1.3,0.8,3,0.1,4.4c-0.7,1.4-2,2.4-3.3,3.2C673.2,421.7,668.3,423.6,663.3,422.1"/>
		</g>
		<g>
			<g>
				<path class="st5" d="M656.6,440.9c0,0,0-0.5,0.2-1.3c0.2-0.9,0.4-2,0.6-3.4c0.6-2.9,1.3-6.9,3.5-10.9c2.2-4,5.2-6.9,7.8-8.3
					c1.3-0.7,2.4-1.2,3.2-1.4c0.4-0.1,0.7-0.2,0.9-0.2c0.2,0,0.3-0.1,0.3,0c0,0.1-1.8,0.4-4.3,2c-2.5,1.5-5.4,4.4-7.6,8.3
					c-2.2,3.9-3,7.9-3.6,10.8c-0.3,1.4-0.6,2.6-0.8,3.4C656.8,440.5,656.7,440.9,656.6,440.9z"/>
			</g>
		</g>
		<g>
			<g>
				<path class="st5" d="M656.8,387.4c0,0,0,0.2,0.1,0.6c0,0.4,0.1,0.9,0.1,1.6c0.1,1.4,0.2,3.4,0.2,5.8c0.2,4.9,0.3,11.7,0.3,19.3
					c0,7.5-0.2,14.3-0.4,19.3c-0.1,2.5-0.2,4.5-0.3,5.8c0,0.6-0.1,1.2-0.1,1.6c0,0.4-0.1,0.6-0.1,0.6c0,0,0-0.2,0-0.6
					c0-0.4,0-0.9,0-1.6c0-1.4,0.1-3.4,0.1-5.8c0.1-4.9,0.3-11.7,0.3-19.2c0-7.5,0-14.3-0.1-19.2c0-2.4-0.1-4.4-0.1-5.8
					c0-0.7,0-1.2,0-1.6C656.8,387.6,656.8,387.4,656.8,387.4z"/>
			</g>
		</g>
		<g>
			<path class="st13" d="M654.3,425.8c-1.2-7.4-6.2-14.2-13-17.4c-1.7-0.8-4-1.4-5.4-0.1c-1.4,1.3-1.1,3.6-0.4,5.4
				c2.9,7.4,10.7,12.7,18.7,12.6"/>
		</g>
		<g>
			<g>
				<path class="st5" d="M642.2,414.2c0,0,0.4,0.1,1.1,0.5c0.3,0.2,0.8,0.4,1.2,0.7c0.5,0.3,1,0.6,1.6,1c0.6,0.4,1.2,0.8,1.8,1.4
					c0.6,0.5,1.3,1.1,1.9,1.7c1.3,1.3,2.6,2.9,3.7,4.7c1.1,1.8,1.9,3.7,2.4,5.4c0.2,0.9,0.5,1.7,0.6,2.5c0.2,0.8,0.2,1.6,0.3,2.2
					c0.1,0.7,0.1,1.3,0.1,1.9c0,0.5,0,1,0,1.4c-0.1,0.8-0.1,1.2-0.1,1.2c-0.1,0,0.1-1.7-0.2-4.4c-0.1-0.7-0.2-1.4-0.4-2.2
					c-0.1-0.8-0.4-1.6-0.6-2.5c-0.6-1.7-1.3-3.5-2.4-5.3c-1.1-1.8-2.3-3.3-3.6-4.6c-0.6-0.6-1.2-1.2-1.9-1.8c-0.6-0.5-1.2-1-1.8-1.4
					C643.7,415,642.1,414.3,642.2,414.2z"/>
			</g>
		</g>
	</g>
</g>
<g id="Image_upload">
	<g>
		<g>
			<g>
				<rect x="267.9" y="133.2" class="st9" width="199.4" height="199.4"/>
			</g>
			<g>
				<g>
					<path class="st5" d="M467.3,332.6c0-1.9-0.1-79.9-0.2-199.4l0.2,0.2c-58,0-126.4,0-199.4,0h0l0.3-0.3c0,73,0,141.5,0,199.4
						l-0.2-0.2C387.4,332.5,465.4,332.6,467.3,332.6c-1.9,0-79.9,0.1-199.4,0.2l-0.2,0v-0.2c0-58,0-126.4,0-199.4l0-0.3h0.3h0
						c73,0,141.5,0,199.4,0h0.2l0,0.2C467.4,252.7,467.3,330.7,467.3,332.6z"/>
				</g>
			</g>
		</g>
		<g>
			<g>
				<g>
					<path class="st6" d="M449.4,320.7c0-0.1,2.7-0.3,6-0.3c-0.5,0.5-0.1,0.1-0.3,0.3v0v0v0v0v0l0-0.1l0-0.2l0-0.3
						c0-0.2,0-0.4,0-0.6c0-0.4,0-0.8,0-1.1c0-0.7,0-1.3,0.1-1.9c0-1.1,0.1-1.8,0.2-1.8s0.1,0.7,0.2,1.8c0,0.6,0,1.3,0.1,1.9
						c0,0.4,0,0.7,0,1.1c0,0.2,0,0.4,0,0.6l0,0.3l0,0.2l0,0.1v0v0v0v0v0c-0.1,0.1,0.3-0.3-0.3,0.3
						C452.1,321,449.4,320.8,449.4,320.7z"/>
				</g>
			</g>
			<g>
				<g>
					<path class="st6" d="M424.2,320.7c0-0.1,2.8-0.3,6.3-0.3c3.5,0,6.3,0.1,6.3,0.3s-2.8,0.3-6.3,0.3
						C427.1,321,424.2,320.8,424.2,320.7z"/>
				</g>
			</g>
			<g>
				<g>
					<path class="st6" d="M399.1,320.7c0-0.1,2.8-0.3,6.3-0.3c3.5,0,6.3,0.1,6.3,0.3s-2.8,0.3-6.3,0.3
						C401.9,321,399.1,320.8,399.1,320.7z"/>
				</g>
			</g>
			<g>
				<g>
					<path class="st6" d="M373.9,320.7c0-0.1,2.8-0.3,6.3-0.3c3.5,0,6.3,0.1,6.3,0.3s-2.8,0.3-6.3,0.3
						C376.7,321,373.9,320.8,373.9,320.7z"/>
				</g>
			</g>
			<g>
				<g>
					<path class="st6" d="M348.7,320.7c0-0.1,2.8-0.3,6.3-0.3c3.5,0,6.3,0.1,6.3,0.3s-2.8,0.3-6.3,0.3
						C351.5,321,348.7,320.8,348.7,320.7z"/>
				</g>
			</g>
			<g>
				<g>
					<path class="st6" d="M323.5,320.7c0-0.1,2.8-0.3,6.3-0.3c3.5,0,6.3,0.1,6.3,0.3s-2.8,0.3-6.3,0.3
						C326.3,321,323.5,320.8,323.5,320.7z"/>
				</g>
			</g>
			<g>
				<g>
					<path class="st6" d="M298.3,320.7c0-0.1,2.8-0.3,6.3-0.3c3.5,0,6.3,0.1,6.3,0.3s-2.8,0.3-6.3,0.3
						C301.2,321,298.3,320.8,298.3,320.7z"/>
				</g>
			</g>
			<g>
				<g>
					<path class="st6" d="M279.8,314.7c0.1,0,0.3,2.7,0.3,6c-0.5-0.5-0.1-0.1-0.3-0.3h0h0h0h0h0l0.1,0l0.2,0l0.3,0
						c0.2,0,0.4,0,0.6,0c0.4,0,0.8,0,1.1,0c0.7,0,1.3,0,1.9,0.1c1.1,0,1.8,0.1,1.8,0.2s-0.7,0.1-1.8,0.2c-0.6,0-1.3,0-1.9,0.1
						c-0.4,0-0.7,0-1.1,0c-0.2,0-0.4,0-0.6,0l-0.3,0l-0.2,0l-0.1,0h0h0h0h0h0c-0.1-0.1,0.3,0.3-0.3-0.3
						C279.5,317.4,279.6,314.7,279.8,314.7z"/>
				</g>
			</g>
			<g>
				<g>
					<path class="st6" d="M279.8,289.5c0.1,0,0.3,2.8,0.3,6.3c0,3.5-0.1,6.3-0.3,6.3c-0.1,0-0.3-2.8-0.3-6.3
						C279.5,292.3,279.6,289.5,279.8,289.5z"/>
				</g>
			</g>
			<g>
				<g>
					<path class="st6" d="M279.8,264.3c0.1,0,0.3,2.8,0.3,6.3c0,3.5-0.1,6.3-0.3,6.3c-0.1,0-0.3-2.8-0.3-6.3
						C279.5,267.2,279.6,264.3,279.8,264.3z"/>
				</g>
			</g>
			<g>
				<g>
					<path class="st6" d="M279.8,239.2c0.1,0,0.3,2.8,0.3,6.3c0,3.5-0.1,6.3-0.3,6.3c-0.1,0-0.3-2.8-0.3-6.3
						C279.5,242,279.6,239.2,279.8,239.2z"/>
				</g>
			</g>
			<g>
				<g>
					<path class="st6" d="M279.8,214c0.1,0,0.3,2.8,0.3,6.3c0,3.5-0.1,6.3-0.3,6.3c-0.1,0-0.3-2.8-0.3-6.3
						C279.5,216.8,279.6,214,279.8,214z"/>
				</g>
			</g>
			<g>
				<g>
					<path class="st6" d="M279.8,188.8c0.1,0,0.3,2.8,0.3,6.3c0,3.5-0.1,6.3-0.3,6.3c-0.1,0-0.3-2.8-0.3-6.3
						C279.5,191.6,279.6,188.8,279.8,188.8z"/>
				</g>
			</g>
			<g>
				<g>
					<path class="st6" d="M279.8,163.6c0.1,0,0.3,2.8,0.3,6.3c0,3.5-0.1,6.3-0.3,6.3c-0.1,0-0.3-2.8-0.3-6.3
						C279.5,166.4,279.6,163.6,279.8,163.6z"/>
				</g>
			</g>
			<g>
				<g>
					<path class="st6" d="M285.8,145c0,0.1-2.7,0.3-6,0.3c0.5-0.5,0.1-0.1,0.3-0.3v0v0v0v0l0,0v0.1l0,0.2l0,0.3c0,0.2,0,0.4,0,0.6
						c0,0.4,0,0.8,0,1.1c0,0.7,0,1.3-0.1,1.9c0,1.1-0.1,1.8-0.2,1.8c-0.1,0-0.1-0.7-0.2-1.8c0-0.6,0-1.3-0.1-1.9c0-0.4,0-0.7,0-1.1
						c0-0.2,0-0.4,0-0.6l0-0.3l0-0.2l0-0.1v0v0v0v0v0c0.1-0.1-0.3,0.3,0.3-0.3C283.1,144.8,285.8,144.9,285.8,145z"/>
				</g>
			</g>
			<g>
				<g>
					<path class="st6" d="M310.9,145c0,0.1-2.8,0.3-6.3,0.3c-3.5,0-6.3-0.1-6.3-0.3c0-0.1,2.8-0.3,6.3-0.3
						C308.1,144.8,310.9,144.9,310.9,145z"/>
				</g>
			</g>
			<g>
				<g>
					<path class="st6" d="M336.1,145c0,0.1-2.8,0.3-6.3,0.3c-3.5,0-6.3-0.1-6.3-0.3c0-0.1,2.8-0.3,6.3-0.3
						C333.3,144.8,336.1,144.9,336.1,145z"/>
				</g>
			</g>
			<g>
				<g>
					<path class="st6" d="M361.3,145c0,0.1-2.8,0.3-6.3,0.3c-3.5,0-6.3-0.1-6.3-0.3c0-0.1,2.8-0.3,6.3-0.3
						C358.5,144.8,361.3,144.9,361.3,145z"/>
				</g>
			</g>
			<g>
				<g>
					<path class="st6" d="M386.5,145c0,0.1-2.8,0.3-6.3,0.3c-3.5,0-6.3-0.1-6.3-0.3c0-0.1,2.8-0.3,6.3-0.3
						C383.6,144.8,386.5,144.9,386.5,145z"/>
				</g>
			</g>
			<g>
				<g>
					<path class="st6" d="M411.6,145c0,0.1-2.8,0.3-6.3,0.3c-3.5,0-6.3-0.1-6.3-0.3c0-0.1,2.8-0.3,6.3-0.3
						C408.8,144.8,411.6,144.9,411.6,145z"/>
				</g>
			</g>
			<g>
				<g>
					<path class="st6" d="M436.8,145c0,0.1-2.8,0.3-6.3,0.3c-3.5,0-6.3-0.1-6.3-0.3c0-0.1,2.8-0.3,6.3-0.3
						C434,144.8,436.8,144.9,436.8,145z"/>
				</g>
			</g>
			<g>
				<g>
					<path class="st6" d="M455.4,151c-0.1,0-0.3-2.7-0.3-6c0.5,0.5,0.1,0.1,0.3,0.3h0h0h0h0h0l-0.1,0l-0.2,0l-0.3,0
						c-0.2,0-0.4,0-0.6,0c-0.4,0-0.8,0-1.1,0c-0.7,0-1.3,0-1.9-0.1c-1.1,0-1.8-0.1-1.8-0.2c0-0.1,0.7-0.1,1.8-0.2
						c0.6,0,1.3,0,1.9-0.1c0.4,0,0.7,0,1.1,0c0.2,0,0.4,0,0.6,0l0.3,0l0.2,0l0.1,0h0h0h0h0h0c0.1,0.1-0.3-0.3,0.3,0.3
						C455.7,148.4,455.6,151,455.4,151z"/>
				</g>
			</g>
			<g>
				<g>
					<path class="st6" d="M455.4,176.2c-0.1,0-0.3-2.8-0.3-6.3c0-3.5,0.1-6.3,0.3-6.3s0.3,2.8,0.3,6.3
						C455.7,173.4,455.6,176.2,455.4,176.2z"/>
				</g>
			</g>
			<g>
				<g>
					<path class="st6" d="M455.4,201.4c-0.1,0-0.3-2.8-0.3-6.3c0-3.5,0.1-6.3,0.3-6.3s0.3,2.8,0.3,6.3
						C455.7,198.6,455.6,201.4,455.4,201.4z"/>
				</g>
			</g>
			<g>
				<g>
					<path class="st6" d="M455.4,226.6c-0.1,0-0.3-2.8-0.3-6.3c0-3.5,0.1-6.3,0.3-6.3s0.3,2.8,0.3,6.3
						C455.7,223.8,455.6,226.6,455.4,226.6z"/>
				</g>
			</g>
			<g>
				<g>
					<path class="st6" d="M455.4,251.8c-0.1,0-0.3-2.8-0.3-6.3c0-3.5,0.1-6.3,0.3-6.3s0.3,2.8,0.3,6.3
						C455.7,248.9,455.6,251.8,455.4,251.8z"/>
				</g>
			</g>
			<g>
				<g>
					<path class="st6" d="M455.4,276.9c-0.1,0-0.3-2.8-0.3-6.3c0-3.5,0.1-6.3,0.3-6.3s0.3,2.8,0.3,6.3
						C455.7,274.1,455.6,276.9,455.4,276.9z"/>
				</g>
			</g>
			<g>
				<g>
					<path class="st6" d="M455.4,302.1c-0.1,0-0.3-2.8-0.3-6.3c0-3.5,0.1-6.3,0.3-6.3s0.3,2.8,0.3,6.3
						C455.7,299.3,455.6,302.1,455.4,302.1z"/>
				</g>
			</g>
		</g>
		<g>
			<g>
				<g>
					<path class="st5" d="M359,199c0,0-0.4,0-1-0.1c-0.7-0.1-1.6-0.5-2.6-1.5c-0.9-0.9-1.8-2.4-1.6-4.3c0.1-0.9,0.5-1.9,1.3-2.7
						c0.7-0.8,1.8-1.4,3-1.4l-0.2,0.2c0-1.4,0-3,1.1-4.3c0.5-0.6,1.2-1.1,2-1.3c0.8-0.2,1.7-0.2,2.5,0l-0.3,0.3
						c-0.2-1.8,0.4-3.8,1.9-5c0.7-0.6,1.6-1.1,2.6-1.4l0.7-0.2l0.7-0.1c0.5-0.1,1-0.1,1.5-0.1c2-0.1,4.2,0.1,6,1.3
						c0.9,0.6,1.7,1.4,2.2,2.4c0.5,1,0.8,2.1,0.9,3.2c0,0.5,0.1,1,0,1.4l-0.3-0.3c2-0.1,4,0.4,5.6,1.6c1.6,1.2,2.6,2.8,3.3,4.5
						c0.4,0.8,0.6,1.8,0.5,2.7c-0.1,0.9-0.4,1.8-0.9,2.5c-1,1.5-2.6,2.4-4.2,2.6l0,0l0,0c-7.4,0.1-13.6,0.1-18.1,0.2
						c-2.1,0-3.9,0-5.1,0c-0.6,0-1,0-1.3,0C359.2,199.1,359,199.1,359,199c0,0,0.2,0,0.5,0c0.3,0,0.8,0,1.3-0.1
						c1.2,0,2.9-0.1,5.1-0.1c4.4-0.1,10.6-0.2,18-0.4l0,0c1.5-0.2,3-1,3.9-2.4c0.9-1.4,1.1-3.2,0.3-4.8c-0.7-1.6-1.7-3.2-3.1-4.3
						c-1.5-1.1-3.4-1.5-5.2-1.5l-0.3,0l0-0.3c0-0.4,0-0.9,0-1.3c-0.2-2.1-1.2-4.1-2.9-5.2c-1.7-1.1-3.8-1.3-5.7-1.2
						c-1.9,0.1-3.9,0.5-5.3,1.7c-1.4,1.1-2,3-1.8,4.6l0,0.3l-0.3-0.1c-1.5-0.4-3.3,0-4.1,1.2c-0.9,1.2-1,2.7-1,4l0,0.2l-0.2,0
						c-1.1,0-2.1,0.6-2.8,1.3c-0.7,0.7-1.1,1.6-1.2,2.5c-0.2,1.8,0.6,3.3,1.5,4.2c0.9,0.9,1.8,1.3,2.4,1.5
						C358.7,199,359,199,359,199z"/>
				</g>
			</g>
			<g>
				<g>
					<path class="st5" d="M375.9,193c-0.1,0.1-2.2-2.1-4.7-4.9l0.4,0c0,0-0.1,0.1-0.1,0.1c-2.7,2.7-4.9,4.9-5,4.8
						c-0.1-0.1,2-2.4,4.7-5.2c0,0,0.1-0.1,0.1-0.1l0.2-0.2l0.2,0.2C374.1,190.6,376,192.9,375.9,193z"/>
				</g>
			</g>
			<g>
				<g>
					<path class="st5" d="M371.4,204.7c-0.1,0-0.3-3.8-0.3-8.4c0-4.6,0.1-8.4,0.3-8.4s0.3,3.8,0.3,8.4
						C371.6,200.9,371.5,204.7,371.4,204.7z"/>
				</g>
			</g>
		</g>
		<g>
			<path class="st5" d="M329.6,222.3H325l-0.9,2.2h-1.3l3.9-8.6h1.2l3.9,8.6h-1.3L329.6,222.3z M329.2,221.3l-1.9-4.2l-1.9,4.2
				H329.2z"/>
			<path class="st5" d="M339.1,215.3v9.1h-1.1v-1c-0.5,0.7-1.4,1.1-2.3,1.1c-1.9,0-3.3-1.3-3.3-3.3s1.4-3.3,3.3-3.3
				c0.9,0,1.7,0.3,2.3,1v-3.6H339.1z M337.9,221.2c0-1.4-0.9-2.3-2.2-2.3c-1.3,0-2.2,0.9-2.2,2.3s0.9,2.3,2.2,2.3
				C337,223.5,337.9,222.6,337.9,221.2z"/>
			<path class="st5" d="M347.5,215.3v9.1h-1.1v-1c-0.5,0.7-1.4,1.1-2.3,1.1c-1.9,0-3.3-1.3-3.3-3.3s1.4-3.3,3.3-3.3
				c0.9,0,1.7,0.3,2.3,1v-3.6H347.5z M346.3,221.2c0-1.4-0.9-2.3-2.2-2.3c-1.3,0-2.2,0.9-2.2,2.3s0.9,2.3,2.2,2.3
				C345.4,223.5,346.3,222.6,346.3,221.2z"/>
			<path class="st5" d="M352.8,215.9c0-0.4,0.3-0.8,0.8-0.8c0.5,0,0.8,0.3,0.8,0.8c0,0.4-0.3,0.8-0.8,0.8
				C353.2,216.7,352.8,216.3,352.8,215.9z M353,217.9h1.2v6.5H353V217.9z"/>
			<path class="st5" d="M360.1,224.1c-0.4,0.3-0.9,0.5-1.4,0.5c-1.3,0-2.1-0.7-2.1-2v-3.6h-1.1v-1h1.1v-1.4h1.2v1.4h1.9v1h-1.9v3.5
				c0,0.7,0.4,1.1,1,1.1c0.3,0,0.7-0.1,0.9-0.3L360.1,224.1z"/>
			<path class="st5" d="M367.2,221.6h-5.3c0.1,1.1,1.1,1.9,2.4,1.9c0.8,0,1.4-0.3,1.9-0.8l0.7,0.8c-0.6,0.7-1.5,1.1-2.6,1.1
				c-2.1,0-3.5-1.4-3.5-3.3c0-1.9,1.4-3.3,3.3-3.3c1.9,0,3.2,1.4,3.2,3.4C367.2,221.3,367.2,221.5,367.2,221.6z M361.9,220.7h4.2
				c-0.1-1.1-0.9-1.9-2.1-1.9C362.9,218.8,362,219.6,361.9,220.7z"/>
			<path class="st5" d="M379.7,220.7v3.8h-1.2v-3.6c0-1.3-0.6-1.9-1.7-1.9c-1.2,0-2,0.8-2,2.2v3.4h-1.2v-3.6c0-1.3-0.6-1.9-1.7-1.9
				c-1.2,0-2,0.8-2,2.2v3.4h-1.2v-6.5h1.1v1c0.5-0.7,1.3-1,2.3-1c1,0,1.8,0.4,2.3,1.2c0.5-0.7,1.4-1.2,2.5-1.2
				C378.6,217.9,379.7,218.8,379.7,220.7z"/>
			<path class="st5" d="M385,215.9c0-0.4,0.3-0.8,0.8-0.8c0.5,0,0.8,0.3,0.8,0.8c0,0.4-0.3,0.8-0.8,0.8
				C385.3,216.7,385,216.3,385,215.9z M385.2,217.9h1.2v6.5h-1.2V217.9z"/>
			<path class="st5" d="M399.5,220.7v3.8h-1.2v-3.6c0-1.3-0.6-1.9-1.7-1.9c-1.2,0-2,0.8-2,2.2v3.4h-1.2v-3.6c0-1.3-0.6-1.9-1.7-1.9
				c-1.2,0-2,0.8-2,2.2v3.4h-1.2v-6.5h1.1v1c0.5-0.7,1.3-1,2.3-1c1,0,1.8,0.4,2.3,1.2c0.5-0.7,1.4-1.2,2.5-1.2
				C398.4,217.9,399.5,218.8,399.5,220.7z"/>
			<path class="st5" d="M406.8,220.5v3.9h-1.1v-0.9c-0.4,0.6-1.1,0.9-2.1,0.9c-1.5,0-2.4-0.8-2.4-1.9c0-1,0.7-1.9,2.6-1.9h1.9v-0.2
				c0-1-0.6-1.6-1.7-1.6c-0.8,0-1.6,0.3-2.1,0.7l-0.5-0.9c0.7-0.5,1.7-0.8,2.7-0.8C405.8,217.9,406.8,218.7,406.8,220.5z
				 M405.6,222.4v-0.9h-1.8c-1.2,0-1.5,0.5-1.5,1c0,0.7,0.5,1.1,1.4,1.1C404.6,223.6,405.3,223.2,405.6,222.4z"/>
			<path class="st5" d="M415.3,217.9v5.6c0,2.3-1.2,3.3-3.4,3.3c-1.2,0-2.4-0.3-3.1-1l0.6-0.9c0.6,0.5,1.6,0.8,2.5,0.8
				c1.5,0,2.2-0.7,2.2-2.2v-0.5c-0.6,0.7-1.4,1-2.4,1c-1.9,0-3.3-1.3-3.3-3.2c0-1.9,1.4-3.2,3.3-3.2c1,0,1.9,0.4,2.4,1.1v-1H415.3z
				 M414.1,221c0-1.3-0.9-2.1-2.2-2.1c-1.3,0-2.3,0.8-2.3,2.1c0,1.3,0.9,2.1,2.3,2.1C413.2,223.1,414.1,222.3,414.1,221z"/>
			<path class="st5" d="M423.4,221.6h-5.3c0.1,1.1,1.1,1.9,2.4,1.9c0.8,0,1.4-0.3,1.9-0.8l0.7,0.8c-0.6,0.7-1.5,1.1-2.6,1.1
				c-2.1,0-3.5-1.4-3.5-3.3c0-1.9,1.4-3.3,3.3-3.3c1.9,0,3.2,1.4,3.2,3.4C423.4,221.3,423.4,221.5,423.4,221.6z M418.1,220.7h4.2
				c-0.1-1.1-0.9-1.9-2.1-1.9C419.1,218.8,418.2,219.6,418.1,220.7z"/>
		</g>
		<g>
			<path class="st19" d="M367.9,270.1h-56.4c-1.9,0-3.5-1.6-3.5-3.5l0,0c0-1.9,1.6-3.5,3.5-3.5h56.4c1.9,0,3.5,1.6,3.5,3.5l0,0
				C371.4,268.5,369.8,270.1,367.9,270.1z"/>
		</g>
		<g>
			<path class="st5" d="M354.8,278v3.7h-0.6v-0.6c-0.3,0.4-0.7,0.6-1.3,0.6c-1,0-1.6-0.5-1.6-1.6V278h0.7v2.1c0,0.7,0.4,1.1,1,1.1
				c0.7,0,1.2-0.4,1.2-1.2V278H354.8z"/>
			<path class="st5" d="M360,279.9c0,1.2-0.8,1.9-1.9,1.9c-0.5,0-1-0.2-1.3-0.6v1.9h-0.7V278h0.6v0.6c0.3-0.4,0.8-0.6,1.3-0.6
				C359.2,278,360,278.7,360,279.9z M359.3,279.9c0-0.8-0.5-1.3-1.3-1.3c-0.7,0-1.3,0.5-1.3,1.3c0,0.8,0.5,1.3,1.3,1.3
				C358.8,281.2,359.3,280.7,359.3,279.9z"/>
			<path class="st5" d="M361,276.5h0.7v5.2H361V276.5z"/>
			<path class="st5" d="M362.6,279.9c0-1.1,0.8-1.9,1.9-1.9c1.1,0,1.9,0.8,1.9,1.9c0,1.1-0.8,1.9-1.9,1.9
				C363.4,281.8,362.6,281,362.6,279.9z M365.8,279.9c0-0.8-0.5-1.3-1.3-1.3s-1.3,0.5-1.3,1.3c0,0.8,0.5,1.3,1.3,1.3
				S365.8,280.7,365.8,279.9z"/>
			<path class="st5" d="M370.4,279.5v2.3h-0.6v-0.5c-0.2,0.3-0.6,0.5-1.2,0.5c-0.8,0-1.4-0.5-1.4-1.1c0-0.6,0.4-1.1,1.5-1.1h1.1
				v-0.1c0-0.6-0.3-0.9-1-0.9c-0.4,0-0.9,0.2-1.2,0.4l-0.3-0.5c0.4-0.3,0.9-0.5,1.5-0.5C369.8,278,370.4,278.4,370.4,279.5z
				 M369.7,280.6v-0.5h-1c-0.7,0-0.9,0.3-0.9,0.6c0,0.4,0.3,0.6,0.8,0.6C369.1,281.3,369.5,281,369.7,280.6z"/>
			<path class="st5" d="M375.2,276.5v5.2h-0.6v-0.6c-0.3,0.4-0.8,0.6-1.3,0.6c-1.1,0-1.9-0.8-1.9-1.9c0-1.1,0.8-1.9,1.9-1.9
				c0.5,0,1,0.2,1.3,0.6v-2.1H375.2z M374.5,279.9c0-0.8-0.5-1.3-1.3-1.3c-0.7,0-1.3,0.5-1.3,1.3c0,0.8,0.5,1.3,1.3,1.3
				C374,281.2,374.5,280.7,374.5,279.9z"/>
			<path class="st5" d="M376.3,276.8c0-0.2,0.2-0.4,0.5-0.4c0.3,0,0.5,0.2,0.5,0.4c0,0.3-0.2,0.5-0.5,0.5
				C376.5,277.3,376.3,277.1,376.3,276.8z M376.5,278h0.7v3.7h-0.7V278z"/>
			<path class="st5" d="M382,279.6v2.2h-0.7v-2.1c0-0.7-0.4-1.1-1-1.1c-0.7,0-1.2,0.4-1.2,1.2v1.9h-0.7V278h0.7v0.6
				c0.3-0.4,0.8-0.6,1.3-0.6C381.3,278,382,278.5,382,279.6z"/>
			<path class="st5" d="M386.8,278v3.2c0,1.3-0.7,1.9-1.9,1.9c-0.7,0-1.4-0.2-1.8-0.6l0.3-0.5c0.3,0.3,0.9,0.5,1.4,0.5
				c0.9,0,1.3-0.4,1.3-1.3V281c-0.3,0.4-0.8,0.6-1.3,0.6c-1.1,0-1.9-0.7-1.9-1.8c0-1.1,0.8-1.8,1.9-1.8c0.6,0,1.1,0.2,1.4,0.6V278
				H386.8z M386.2,279.8c0-0.7-0.5-1.2-1.3-1.2c-0.8,0-1.3,0.5-1.3,1.2c0,0.7,0.5,1.2,1.3,1.2C385.6,281,386.2,280.5,386.2,279.8z"
				/>
			<path class="st5" d="M387.8,281.3c0-0.3,0.2-0.5,0.5-0.5c0.3,0,0.5,0.2,0.5,0.5c0,0.3-0.2,0.5-0.5,0.5
				C388,281.8,387.8,281.6,387.8,281.3z"/>
			<path class="st5" d="M389.4,281.3c0-0.3,0.2-0.5,0.5-0.5c0.3,0,0.5,0.2,0.5,0.5c0,0.3-0.2,0.5-0.5,0.5
				C389.7,281.8,389.4,281.6,389.4,281.3z"/>
			<path class="st5" d="M391,281.3c0-0.3,0.2-0.5,0.5-0.5c0.3,0,0.5,0.2,0.5,0.5c0,0.3-0.2,0.5-0.5,0.5
				C391.3,281.8,391,281.6,391,281.3z"/>
		</g>
		<g>
			<path class="st19" d="M367.1,255.9c0,1.2-0.8,2.1-2.6,2.1c-1,0-1.9-0.3-2.5-0.8l0.5-0.8c0.5,0.4,1.2,0.7,2.1,0.7
				c1,0,1.6-0.5,1.6-1.2c0-0.8-0.5-1.3-2.1-1.3h-1.6l0.4-3.6h3.9v0.9h-3.1l-0.2,1.9h0.8C366.3,253.9,367.1,254.7,367.1,255.9z"/>
			<path class="st19" d="M367.9,254.6c0-2.2,1.2-3.5,2.8-3.5c1.6,0,2.8,1.3,2.8,3.5c0,2.2-1.2,3.5-2.8,3.5
				C369.1,258.1,367.9,256.8,367.9,254.6z M372.5,254.6c0-1.8-0.7-2.6-1.8-2.6c-1.1,0-1.8,0.9-1.8,2.6c0,1.8,0.7,2.6,1.8,2.6
				C371.8,257.2,372.5,256.3,372.5,254.6z"/>
			<path class="st19" d="M374.3,252.9c0-1.1,0.6-1.9,1.6-1.9c1,0,1.6,0.7,1.6,1.9c0,1.1-0.6,1.9-1.6,1.9
				C375,254.8,374.3,254.1,374.3,252.9z M376.9,252.9c0-0.8-0.4-1.3-1-1.3c-0.6,0-1,0.5-1,1.3c0,0.8,0.4,1.3,1,1.3
				C376.5,254.3,376.9,253.8,376.9,252.9z M380.1,251.1h0.8l-4.7,6.9h-0.8L380.1,251.1z M378.7,256.2c0-1.1,0.6-1.9,1.6-1.9
				c1,0,1.6,0.8,1.6,1.9c0,1.1-0.6,1.9-1.6,1.9C379.3,258.1,378.7,257.3,378.7,256.2z M381.3,256.2c0-0.8-0.4-1.3-1-1.3
				c-0.6,0-1,0.5-1,1.3c0,0.8,0.4,1.3,1,1.3C380.9,257.5,381.3,257,381.3,256.2z"/>
		</g>
		<g>
			<g>
				<path class="st20" d="M426.6,270.1c0,0,0.2,0,0.6-0.1c0.4-0.1,1-0.3,1.7-0.9c0.6-0.5,1.2-1.5,1.1-2.7c0-1.2-0.9-2.6-2.4-3.1
					c-0.7-0.3-1.6-0.1-2.5-0.2c-0.9,0-1.8,0-2.8,0c-1.9,0-4.1,0-6.3,0c-4.5,0-9.7,0-15.4,0c-22.9,0-54.5,0-89.4,0.1
					c-1,0-2,0.5-2.6,1.3c-0.6,0.8-0.8,1.9-0.5,2.8c0.3,1,1,1.8,1.9,2.1c0.5,0.2,0.9,0.2,1.5,0.2l1.6,0c4.3,0,8.4,0,12.6,0
					c8.2,0,16.2,0,23.7,0c15.1,0,28.7,0,40.2,0.1c11.4,0,20.7,0.1,27.1,0.1c3.2,0,5.7,0,7.4,0c0.8,0,1.5,0,1.9,0
					C426.3,270.1,426.6,270.1,426.6,270.1s-0.2,0-0.7,0c-0.4,0-1.1,0-1.9,0c-1.7,0-4.2,0-7.4,0c-6.4,0-15.7,0-27.1,0.1
					c-11.4,0-25.1,0-40.2,0.1c-7.6,0-15.5,0-23.7,0c-4.1,0-8.3,0-12.6,0l-1.6,0c-0.5,0-1.1-0.1-1.7-0.3c-1.1-0.4-1.9-1.4-2.2-2.5
					c-0.3-1.1-0.1-2.4,0.6-3.3c0.7-0.9,1.9-1.5,3-1.5c34.9,0,66.5,0.1,89.4,0.1c5.7,0,10.9,0,15.4,0c2.3,0,4.4,0,6.3,0
					c1,0,1.9,0,2.8,0c0.9,0,1.7-0.1,2.5,0.2c1.6,0.5,2.4,2,2.5,3.3c0.1,1.3-0.6,2.3-1.2,2.8c-0.6,0.6-1.3,0.8-1.7,0.8
					C426.8,270.1,426.6,270.1,426.6,270.1z"/>
			</g>
		</g>
	</g>
</g>
</svg>
